G04 #@! TF.GenerationSoftware,KiCad,Pcbnew,(5.1.0)-1*
G04 #@! TF.CreationDate,2019-10-21T13:58:11-04:00*
G04 #@! TF.ProjectId,PCB_NEW,5043425f-4e45-4572-9e6b-696361645f70,rev?*
G04 #@! TF.SameCoordinates,Original*
G04 #@! TF.FileFunction,Legend,Top*
G04 #@! TF.FilePolarity,Positive*
%FSLAX46Y46*%
G04 Gerber Fmt 4.6, Leading zero omitted, Abs format (unit mm)*
G04 Created by KiCad (PCBNEW (5.1.0)-1) date 2019-10-21 13:58:11*
%MOMM*%
%LPD*%
G04 APERTURE LIST*
%ADD10C,0.120000*%
%ADD11C,0.150000*%
G04 APERTURE END LIST*
D10*
X173370000Y-73600000D02*
X174980000Y-73600000D01*
X173370000Y-73600000D02*
X173370000Y-75600000D01*
X173650000Y-86140000D02*
X173650000Y-73890000D01*
X179410000Y-86140000D02*
X173650000Y-86140000D01*
X179410000Y-73880000D02*
X179410000Y-86140000D01*
X173660000Y-73880000D02*
X179400000Y-73880000D01*
X147970000Y-73600000D02*
X149580000Y-73600000D01*
X147970000Y-73600000D02*
X147970000Y-75600000D01*
X148250000Y-86140000D02*
X148250000Y-73890000D01*
X154010000Y-86140000D02*
X148250000Y-86140000D01*
X154010000Y-73880000D02*
X154010000Y-86140000D01*
X148260000Y-73880000D02*
X154000000Y-73880000D01*
X125110000Y-73600000D02*
X126720000Y-73600000D01*
X125110000Y-73600000D02*
X125110000Y-75600000D01*
X125390000Y-86140000D02*
X125390000Y-73890000D01*
X131150000Y-86140000D02*
X125390000Y-86140000D01*
X131150000Y-73880000D02*
X131150000Y-86140000D01*
X125400000Y-73880000D02*
X131140000Y-73880000D01*
X99710000Y-73600000D02*
X101320000Y-73600000D01*
X99710000Y-73600000D02*
X99710000Y-75600000D01*
X99990000Y-86140000D02*
X99990000Y-73890000D01*
X105750000Y-86140000D02*
X99990000Y-86140000D01*
X105750000Y-73880000D02*
X105750000Y-86140000D01*
X100000000Y-73880000D02*
X105740000Y-73880000D01*
X128470000Y-105680000D02*
X126770000Y-105680000D01*
X128470000Y-107680000D02*
X126770000Y-107680000D01*
X128470000Y-118380000D02*
X126770000Y-118380000D01*
X128470000Y-120380000D02*
X126770000Y-120380000D01*
X107690000Y-123190000D02*
G75*
G03X107690000Y-123190000I-6100000J0D01*
G01*
X78870000Y-83690000D02*
X60830000Y-83690000D01*
X78870000Y-127130000D02*
X78870000Y-83690000D01*
X60830000Y-127130000D02*
X78870000Y-127130000D01*
X63500000Y-124460000D02*
X60830000Y-124460000D01*
X63500000Y-88900000D02*
X63500000Y-124460000D01*
X63500000Y-88900000D02*
X60830000Y-88900000D01*
X76200000Y-124460000D02*
X78870000Y-124460000D01*
X76200000Y-86360000D02*
X76200000Y-124460000D01*
X76200000Y-86360000D02*
X78870000Y-86360000D01*
X60830000Y-83690000D02*
X60830000Y-86360000D01*
X60830000Y-88900000D02*
X60830000Y-127130000D01*
X63500000Y-86360000D02*
X60830000Y-86360000D01*
X63500000Y-88900000D02*
X63500000Y-86360000D01*
D11*
X174768095Y-72152380D02*
X174768095Y-72961904D01*
X174815714Y-73057142D01*
X174863333Y-73104761D01*
X174958571Y-73152380D01*
X175149047Y-73152380D01*
X175244285Y-73104761D01*
X175291904Y-73057142D01*
X175339523Y-72961904D01*
X175339523Y-72152380D01*
X176244285Y-72485714D02*
X176244285Y-73152380D01*
X176006190Y-72104761D02*
X175768095Y-72819047D01*
X176387142Y-72819047D01*
X149368095Y-72152380D02*
X149368095Y-72961904D01*
X149415714Y-73057142D01*
X149463333Y-73104761D01*
X149558571Y-73152380D01*
X149749047Y-73152380D01*
X149844285Y-73104761D01*
X149891904Y-73057142D01*
X149939523Y-72961904D01*
X149939523Y-72152380D01*
X150320476Y-72152380D02*
X150939523Y-72152380D01*
X150606190Y-72533333D01*
X150749047Y-72533333D01*
X150844285Y-72580952D01*
X150891904Y-72628571D01*
X150939523Y-72723809D01*
X150939523Y-72961904D01*
X150891904Y-73057142D01*
X150844285Y-73104761D01*
X150749047Y-73152380D01*
X150463333Y-73152380D01*
X150368095Y-73104761D01*
X150320476Y-73057142D01*
X126508095Y-72152380D02*
X126508095Y-72961904D01*
X126555714Y-73057142D01*
X126603333Y-73104761D01*
X126698571Y-73152380D01*
X126889047Y-73152380D01*
X126984285Y-73104761D01*
X127031904Y-73057142D01*
X127079523Y-72961904D01*
X127079523Y-72152380D01*
X127508095Y-72247619D02*
X127555714Y-72200000D01*
X127650952Y-72152380D01*
X127889047Y-72152380D01*
X127984285Y-72200000D01*
X128031904Y-72247619D01*
X128079523Y-72342857D01*
X128079523Y-72438095D01*
X128031904Y-72580952D01*
X127460476Y-73152380D01*
X128079523Y-73152380D01*
X101108095Y-72152380D02*
X101108095Y-72961904D01*
X101155714Y-73057142D01*
X101203333Y-73104761D01*
X101298571Y-73152380D01*
X101489047Y-73152380D01*
X101584285Y-73104761D01*
X101631904Y-73057142D01*
X101679523Y-72961904D01*
X101679523Y-72152380D01*
X102679523Y-73152380D02*
X102108095Y-73152380D01*
X102393809Y-73152380D02*
X102393809Y-72152380D01*
X102298571Y-72295238D01*
X102203333Y-72390476D01*
X102108095Y-72438095D01*
X127531904Y-105132380D02*
X127531904Y-104132380D01*
X127770000Y-104132380D01*
X127912857Y-104180000D01*
X128008095Y-104275238D01*
X128055714Y-104370476D01*
X128103333Y-104560952D01*
X128103333Y-104703809D01*
X128055714Y-104894285D01*
X128008095Y-104989523D01*
X127912857Y-105084761D01*
X127770000Y-105132380D01*
X127531904Y-105132380D01*
X128484285Y-104227619D02*
X128531904Y-104180000D01*
X128627142Y-104132380D01*
X128865238Y-104132380D01*
X128960476Y-104180000D01*
X129008095Y-104227619D01*
X129055714Y-104322857D01*
X129055714Y-104418095D01*
X129008095Y-104560952D01*
X128436666Y-105132380D01*
X129055714Y-105132380D01*
X127531904Y-117832380D02*
X127531904Y-116832380D01*
X127770000Y-116832380D01*
X127912857Y-116880000D01*
X128008095Y-116975238D01*
X128055714Y-117070476D01*
X128103333Y-117260952D01*
X128103333Y-117403809D01*
X128055714Y-117594285D01*
X128008095Y-117689523D01*
X127912857Y-117784761D01*
X127770000Y-117832380D01*
X127531904Y-117832380D01*
X129055714Y-117832380D02*
X128484285Y-117832380D01*
X128770000Y-117832380D02*
X128770000Y-116832380D01*
X128674761Y-116975238D01*
X128579523Y-117070476D01*
X128484285Y-117118095D01*
X100709047Y-115918571D02*
X100851904Y-115966190D01*
X100899523Y-116013809D01*
X100947142Y-116109047D01*
X100947142Y-116251904D01*
X100899523Y-116347142D01*
X100851904Y-116394761D01*
X100756666Y-116442380D01*
X100375714Y-116442380D01*
X100375714Y-115442380D01*
X100709047Y-115442380D01*
X100804285Y-115490000D01*
X100851904Y-115537619D01*
X100899523Y-115632857D01*
X100899523Y-115728095D01*
X100851904Y-115823333D01*
X100804285Y-115870952D01*
X100709047Y-115918571D01*
X100375714Y-115918571D01*
X101280476Y-115442380D02*
X101947142Y-115442380D01*
X101280476Y-116442380D01*
X101947142Y-116442380D01*
X102851904Y-116442380D02*
X102280476Y-116442380D01*
X102566190Y-116442380D02*
X102566190Y-115442380D01*
X102470952Y-115585238D01*
X102375714Y-115680476D01*
X102280476Y-115728095D01*
X97399047Y-120721428D02*
X98160952Y-120721428D01*
X97780000Y-121102380D02*
X97780000Y-120340476D01*
X69135714Y-82716666D02*
X69611904Y-82716666D01*
X69040476Y-83002380D02*
X69373809Y-82002380D01*
X69707142Y-83002380D01*
X70564285Y-83002380D02*
X69992857Y-83002380D01*
X70278571Y-83002380D02*
X70278571Y-82002380D01*
X70183333Y-82145238D01*
X70088095Y-82240476D01*
X69992857Y-82288095D01*
M02*
