<?xml version="1.0" standalone="no"?>
 <!DOCTYPE svg PUBLIC "-//W3C//DTD SVG 1.1//EN" 
 "http://www.w3.org/Graphics/SVG/1.1/DTD/svg11.dtd"> 
<svg xmlns="http://www.w3.org/2000/svg" version="1.1" 
    width="29.7002cm" height="21.0007cm" viewBox="0 0 116930 82680 ">
<title>SVG Picture created as PCB_NEW-drl_map.svg date 2019/10/21 14:00:15 </title>
  <desc>Picture generated by PCBNEW </desc>
<g style="fill:#000000; fill-opacity:1;stroke:#000000; stroke-opacity:1;
stroke-linecap:round; stroke-linejoin:round; "
 transform="translate(0 0) scale(1 1)">
</g>
<g style="fill:#000000; fill-opacity:0.0; 
stroke:#000000; stroke-width:78.7402; stroke-opacity:1; 
stroke-linecap:round; stroke-linejoin:round;">
<path d="M59342 29842
L59657 30157
" />
<path d="M59657 29842
L59342 30157
" />
<path d="M59342 30842
L59657 31157
" />
<path d="M59657 30842
L59342 31157
" />
<path d="M59342 31842
L59657 32157
" />
<path d="M59657 31842
L59342 32157
" />
<path d="M59342 32842
L59657 33157
" />
<path d="M59657 32842
L59342 33157
" />
<path d="M40342 29842
L40657 30157
" />
<path d="M40657 29842
L40342 30157
" />
<path d="M40342 30842
L40657 31157
" />
<path d="M40657 30842
L40342 31157
" />
<path d="M40342 31842
L40657 32157
" />
<path d="M40657 31842
L40342 32157
" />
<path d="M40342 32842
L40657 33157
" />
<path d="M40657 32842
L40342 33157
" />
<path d="M24342 34342
L24657 34657
" />
<path d="M24657 34342
L24342 34657
" />
<path d="M24342 35342
L24657 35657
" />
<path d="M24657 35342
L24342 35657
" />
<path d="M24342 36342
L24657 36657
" />
<path d="M24657 36342
L24342 36657
" />
<path d="M24342 37342
L24657 37657
" />
<path d="M24657 37342
L24342 37657
" />
<path d="M24342 38342
L24657 38657
" />
<path d="M24657 38342
L24342 38657
" />
<path d="M24342 39342
L24657 39657
" />
<path d="M24657 39342
L24342 39657
" />
<path d="M24342 40342
L24657 40657
" />
<path d="M24657 40342
L24342 40657
" />
<path d="M24342 41342
L24657 41657
" />
<path d="M24657 41342
L24342 41657
" />
<path d="M24342 42342
L24657 42657
" />
<path d="M24657 42342
L24342 42657
" />
<path d="M24342 43342
L24657 43657
" />
<path d="M24657 43342
L24342 43657
" />
<path d="M24342 44342
L24657 44657
" />
<path d="M24657 44342
L24342 44657
" />
<path d="M24342 45342
L24657 45657
" />
<path d="M24657 45342
L24342 45657
" />
<path d="M24342 46342
L24657 46657
" />
<path d="M24657 46342
L24342 46657
" />
<path d="M24342 47342
L24657 47657
" />
<path d="M24657 47342
L24342 47657
" />
<path d="M24342 48342
L24657 48657
" />
<path d="M24657 48342
L24342 48657
" />
<path d="M30342 34342
L30657 34657
" />
<path d="M30657 34342
L30342 34657
" />
<path d="M30342 35342
L30657 35657
" />
<path d="M30657 35342
L30342 35657
" />
<path d="M30342 36342
L30657 36657
" />
<path d="M30657 36342
L30342 36657
" />
<path d="M30342 37342
L30657 37657
" />
<path d="M30657 37342
L30342 37657
" />
<path d="M30342 38342
L30657 38657
" />
<path d="M30657 38342
L30342 38657
" />
<path d="M30342 39342
L30657 39657
" />
<path d="M30657 39342
L30342 39657
" />
<path d="M30342 40342
L30657 40657
" />
<path d="M30657 40342
L30342 40657
" />
<path d="M30342 41342
L30657 41657
" />
<path d="M30657 41342
L30342 41657
" />
<path d="M30342 42342
L30657 42657
" />
<path d="M30657 42342
L30342 42657
" />
<path d="M30342 43342
L30657 43657
" />
<path d="M30657 43342
L30342 43657
" />
<path d="M30342 44342
L30657 44657
" />
<path d="M30657 44342
L30342 44657
" />
<path d="M30342 45342
L30657 45657
" />
<path d="M30657 45342
L30342 45657
" />
<path d="M30342 46342
L30657 46657
" />
<path d="M30657 46342
L30342 46657
" />
<path d="M30342 47342
L30657 47657
" />
<path d="M30657 47342
L30342 47657
" />
<path d="M30342 48342
L30657 48657
" />
<path d="M30657 48342
L30342 48657
" />
<path d="M69342 29842
L69657 30157
" />
<path d="M69657 29842
L69342 30157
" />
<path d="M69342 30842
L69657 31157
" />
<path d="M69657 30842
L69342 31157
" />
<path d="M69342 31842
L69657 32157
" />
<path d="M69657 31842
L69342 32157
" />
<path d="M69342 32842
L69657 33157
" />
<path d="M69657 32842
L69342 33157
" />
<path d="M50342 29842
L50657 30157
" />
<path d="M50657 29842
L50342 30157
" />
<path d="M50342 30842
L50657 31157
" />
<path d="M50657 30842
L50342 31157
" />
<path d="M50342 31842
L50657 32157
" />
<path d="M50657 31842
L50342 32157
" />
<path d="M50342 32842
L50657 33157
" />
<path d="M50657 32842
L50342 33157
" />
<circle cx="38500" cy="48500" r="196.85" /> 
<circle cx="41492.1" cy="48500" r="196.85" /> 
</g>
<g style="fill:#000000; fill-opacity:0.0; 
stroke:#000000; stroke-width:118.11; stroke-opacity:1; 
stroke-linecap:round; stroke-linejoin:round;">
<path d="M1127 1833
L1127 652
L1408 652
L1577 708
L1690 821
L1746 933
L1802 1158
L1802 1327
L1746 1552
L1690 1664
L1577 1777
L1408 1833
L1127 1833
" />
<path d="M2308 1833
L2308 1046
" />
<path d="M2308 1271
L2365 1158
L2421 1102
L2533 1046
L2646 1046
" />
<path d="M3039 1833
L3039 1046
" />
<path d="M3039 652
L2983 708
L3039 764
L3096 708
L3039 652
L3039 764
" />
<path d="M3771 1833
L3658 1777
L3602 1664
L3602 652
" />
<path d="M4389 1833
L4277 1777
L4221 1664
L4221 652
" />
<path d="M5739 1833
L5739 652
L6133 1496
L6526 652
L6526 1833
" />
<path d="M7595 1833
L7595 1214
L7539 1102
L7426 1046
L7201 1046
L7089 1102
" />
<path d="M7595 1777
L7483 1833
L7201 1833
L7089 1777
L7033 1664
L7033 1552
L7089 1439
L7201 1383
L7483 1383
L7595 1327
" />
<path d="M8158 1046
L8158 2227
" />
<path d="M8158 1102
L8270 1046
L8495 1046
L8607 1102
L8664 1158
L8720 1271
L8720 1608
L8664 1721
L8607 1777
L8495 1833
L8270 1833
L8158 1777
" />
<path d="M9226 1721
L9282 1777
L9226 1833
L9170 1777
L9226 1721
L9226 1833
" />
<path d="M9226 1102
L9282 1158
L9226 1214
L9170 1158
L9226 1102
L9226 1214
" />
<path d="M-314 3622
L0 3937
" />
<path d="M0 3622
L-314 3937
" />
<path d="M1352 3132
L1465 3132
L1577 3188
L1633 3245
L1690 3357
L1746 3582
L1746 3863
L1690 4088
L1633 4201
L1577 4257
L1465 4313
L1352 4313
L1240 4257
L1183 4201
L1127 4088
L1071 3863
L1071 3582
L1127 3357
L1183 3245
L1240 3188
L1352 3132
" />
<path d="M2252 4201
L2308 4257
L2252 4313
L2196 4257
L2252 4201
L2252 4313
" />
<path d="M2983 3638
L2871 3582
L2814 3526
L2758 3413
L2758 3357
L2814 3245
L2871 3188
L2983 3132
L3208 3132
L3321 3188
L3377 3245
L3433 3357
L3433 3413
L3377 3526
L3321 3582
L3208 3638
L2983 3638
L2871 3695
L2814 3751
L2758 3863
L2758 4088
L2814 4201
L2871 4257
L2983 4313
L3208 4313
L3321 4257
L3377 4201
L3433 4088
L3433 3863
L3377 3751
L3321 3695
L3208 3638
" />
<path d="M4164 3132
L4277 3132
L4389 3188
L4446 3245
L4502 3357
L4558 3582
L4558 3863
L4502 4088
L4446 4201
L4389 4257
L4277 4313
L4164 4313
L4052 4257
L3996 4201
L3939 4088
L3883 3863
L3883 3582
L3939 3357
L3996 3245
L4052 3188
L4164 3132
" />
<path d="M5064 4313
L5064 3526
" />
<path d="M5064 3638
L5120 3582
L5233 3526
L5402 3526
L5514 3582
L5570 3695
L5570 4313
" />
<path d="M5570 3695
L5627 3582
L5739 3526
L5908 3526
L6020 3582
L6077 3695
L6077 4313
" />
<path d="M6639 4313
L6639 3526
" />
<path d="M6639 3638
L6695 3582
L6808 3526
L6976 3526
L7089 3582
L7145 3695
L7145 4313
" />
<path d="M7145 3695
L7201 3582
L7314 3526
L7483 3526
L7595 3582
L7651 3695
L7651 4313
" />
<path d="M9957 3076
L8945 4595
" />
<path d="M11476 3132
L11588 3132
L11701 3188
L11757 3245
L11813 3357
L11870 3582
L11870 3863
L11813 4088
L11757 4201
L11701 4257
L11588 4313
L11476 4313
L11363 4257
L11307 4201
L11251 4088
L11195 3863
L11195 3582
L11251 3357
L11307 3245
L11363 3188
L11476 3132
" />
<path d="M12376 4201
L12432 4257
L12376 4313
L12320 4257
L12376 4201
L12376 4313
" />
<path d="M13163 3132
L13276 3132
L13388 3188
L13444 3245
L13501 3357
L13557 3582
L13557 3863
L13501 4088
L13444 4201
L13388 4257
L13276 4313
L13163 4313
L13051 4257
L12994 4201
L12938 4088
L12882 3863
L12882 3582
L12938 3357
L12994 3245
L13051 3188
L13163 3132
" />
<path d="M13951 3132
L14682 3132
L14288 3582
L14457 3582
L14569 3638
L14625 3695
L14682 3807
L14682 4088
L14625 4201
L14569 4257
L14457 4313
L14119 4313
L14007 4257
L13951 4201
" />
<path d="M15807 4313
L15132 4313
" />
<path d="M15469 4313
L15469 3132
L15357 3301
L15244 3413
L15132 3470
" />
<path d="M16257 3132
L16257 3357
" />
<path d="M16706 3132
L16706 3357
" />
<path d="M18450 4763
L18394 4707
L18281 4538
L18225 4426
L18169 4257
L18113 3976
L18113 3751
L18169 3470
L18225 3301
L18281 3188
L18394 3020
L18450 2964
" />
<path d="M19406 3526
L19406 4313
" />
<path d="M19125 3076
L18844 3920
L19575 3920
" />
<path d="M20531 3132
L20306 3132
L20194 3188
L20137 3245
L20025 3413
L19969 3638
L19969 4088
L20025 4201
L20081 4257
L20194 4313
L20419 4313
L20531 4257
L20587 4201
L20643 4088
L20643 3807
L20587 3695
L20531 3638
L20419 3582
L20194 3582
L20081 3638
L20025 3695
L19969 3807
" />
<path d="M22050 4313
L22050 3132
" />
<path d="M22556 4313
L22556 3695
L22499 3582
L22387 3526
L22218 3526
L22106 3582
L22050 3638
" />
<path d="M23287 4313
L23174 4257
L23118 4201
L23062 4088
L23062 3751
L23118 3638
L23174 3582
L23287 3526
L23456 3526
L23568 3582
L23624 3638
L23681 3751
L23681 4088
L23624 4201
L23568 4257
L23456 4313
L23287 4313
" />
<path d="M24356 4313
L24243 4257
L24187 4145
L24187 3132
" />
<path d="M25255 4257
L25143 4313
L24918 4313
L24805 4257
L24749 4145
L24749 3695
L24805 3582
L24918 3526
L25143 3526
L25255 3582
L25312 3695
L25312 3807
L24749 3920
" />
<path d="M25762 4257
L25874 4313
L26099 4313
L26212 4257
L26268 4145
L26268 4088
L26212 3976
L26099 3920
L25930 3920
L25818 3863
L25762 3751
L25762 3695
L25818 3582
L25930 3526
L26099 3526
L26212 3582
" />
<path d="M26661 4763
L26718 4707
L26830 4538
L26886 4426
L26943 4257
L26999 3976
L26999 3751
L26943 3470
L26886 3301
L26830 3188
L26718 3020
L26661 2964
" />
<circle cx="-196.85" cy="5338.58" r="196.85" /> 
<path d="M1746 5872
L1071 5872
" />
<path d="M1408 5872
L1408 4691
L1296 4860
L1183 4973
L1071 5029
" />
<path d="M2252 5760
L2308 5816
L2252 5872
L2196 5816
L2252 5760
L2252 5872
" />
<path d="M3039 4691
L3152 4691
L3264 4748
L3321 4804
L3377 4916
L3433 5141
L3433 5422
L3377 5647
L3321 5760
L3264 5816
L3152 5872
L3039 5872
L2927 5816
L2871 5760
L2814 5647
L2758 5422
L2758 5141
L2814 4916
L2871 4804
L2927 4748
L3039 4691
" />
<path d="M4164 4691
L4277 4691
L4389 4748
L4446 4804
L4502 4916
L4558 5141
L4558 5422
L4502 5647
L4446 5760
L4389 5816
L4277 5872
L4164 5872
L4052 5816
L3996 5760
L3939 5647
L3883 5422
L3883 5141
L3939 4916
L3996 4804
L4052 4748
L4164 4691
" />
<path d="M5064 5872
L5064 5085
" />
<path d="M5064 5197
L5120 5141
L5233 5085
L5402 5085
L5514 5141
L5570 5254
L5570 5872
" />
<path d="M5570 5254
L5627 5141
L5739 5085
L5908 5085
L6020 5141
L6077 5254
L6077 5872
" />
<path d="M6639 5872
L6639 5085
" />
<path d="M6639 5197
L6695 5141
L6808 5085
L6976 5085
L7089 5141
L7145 5254
L7145 5872
" />
<path d="M7145 5254
L7201 5141
L7314 5085
L7483 5085
L7595 5141
L7651 5254
L7651 5872
" />
<path d="M9957 4635
L8945 6154
" />
<path d="M11476 4691
L11588 4691
L11701 4748
L11757 4804
L11813 4916
L11870 5141
L11870 5422
L11813 5647
L11757 5760
L11701 5816
L11588 5872
L11476 5872
L11363 5816
L11307 5760
L11251 5647
L11195 5422
L11195 5141
L11251 4916
L11307 4804
L11363 4748
L11476 4691
" />
<path d="M12376 5760
L12432 5816
L12376 5872
L12320 5816
L12376 5760
L12376 5872
" />
<path d="M13163 4691
L13276 4691
L13388 4748
L13444 4804
L13501 4916
L13557 5141
L13557 5422
L13501 5647
L13444 5760
L13388 5816
L13276 5872
L13163 5872
L13051 5816
L12994 5760
L12938 5647
L12882 5422
L12882 5141
L12938 4916
L12994 4804
L13051 4748
L13163 4691
" />
<path d="M13951 4691
L14682 4691
L14288 5141
L14457 5141
L14569 5197
L14625 5254
L14682 5366
L14682 5647
L14625 5760
L14569 5816
L14457 5872
L14119 5872
L14007 5816
L13951 5760
" />
<path d="M15244 5872
L15469 5872
L15582 5816
L15638 5760
L15750 5591
L15807 5366
L15807 4916
L15750 4804
L15694 4748
L15582 4691
L15357 4691
L15244 4748
L15188 4804
L15132 4916
L15132 5197
L15188 5310
L15244 5366
L15357 5422
L15582 5422
L15694 5366
L15750 5310
L15807 5197
" />
<path d="M16257 4691
L16257 4916
" />
<path d="M16706 4691
L16706 4916
" />
<path d="M18450 6322
L18394 6266
L18281 6097
L18225 5985
L18169 5816
L18113 5535
L18113 5310
L18169 5029
L18225 4860
L18281 4748
L18394 4579
L18450 4523
" />
<path d="M18844 4804
L18900 4748
L19012 4691
L19294 4691
L19406 4748
L19462 4804
L19519 4916
L19519 5029
L19462 5197
L18787 5872
L19519 5872
" />
<path d="M20925 5872
L20925 4691
" />
<path d="M21431 5872
L21431 5254
L21375 5141
L21262 5085
L21093 5085
L20981 5141
L20925 5197
" />
<path d="M22162 5872
L22050 5816
L21993 5760
L21937 5647
L21937 5310
L21993 5197
L22050 5141
L22162 5085
L22331 5085
L22443 5141
L22499 5197
L22556 5310
L22556 5647
L22499 5760
L22443 5816
L22331 5872
L22162 5872
" />
<path d="M23231 5872
L23118 5816
L23062 5704
L23062 4691
" />
<path d="M24131 5816
L24018 5872
L23793 5872
L23681 5816
L23624 5704
L23624 5254
L23681 5141
L23793 5085
L24018 5085
L24131 5141
L24187 5254
L24187 5366
L23624 5479
" />
<path d="M24637 5816
L24749 5872
L24974 5872
L25087 5816
L25143 5704
L25143 5647
L25087 5535
L24974 5479
L24805 5479
L24693 5422
L24637 5310
L24637 5254
L24693 5141
L24805 5085
L24974 5085
L25087 5141
" />
<path d="M25537 6322
L25593 6266
L25705 6097
L25762 5985
L25818 5816
L25874 5535
L25874 5310
L25818 5029
L25762 4860
L25705 4748
L25593 4579
L25537 4523
" />
</g> 
</svg>
