G04 #@! TF.GenerationSoftware,KiCad,Pcbnew,(5.1.0)-1*
G04 #@! TF.CreationDate,2019-10-21T13:58:11-04:00*
G04 #@! TF.ProjectId,PCB_NEW,5043425f-4e45-4572-9e6b-696361645f70,rev?*
G04 #@! TF.SameCoordinates,Original*
G04 #@! TF.FileFunction,Copper,L2,Bot*
G04 #@! TF.FilePolarity,Positive*
%FSLAX46Y46*%
G04 Gerber Fmt 4.6, Leading zero omitted, Abs format (unit mm)*
G04 Created by KiCad (PCBNEW (5.1.0)-1) date 2019-10-21 13:58:11*
%MOMM*%
%LPD*%
G04 APERTURE LIST*
%ADD10C,1.500000*%
%ADD11R,1.500000X1.500000*%
%ADD12C,2.000000*%
%ADD13R,2.000000X2.000000*%
%ADD14O,1.600000X1.600000*%
%ADD15R,1.600000X1.600000*%
%ADD16C,0.250000*%
%ADD17C,0.254000*%
G04 APERTURE END LIST*
D10*
X176530000Y-83820000D03*
X176530000Y-81280000D03*
X176530000Y-78740000D03*
D11*
X176530000Y-76200000D03*
D10*
X151130000Y-83820000D03*
X151130000Y-81280000D03*
X151130000Y-78740000D03*
D11*
X151130000Y-76200000D03*
D10*
X128270000Y-83820000D03*
X128270000Y-81280000D03*
X128270000Y-78740000D03*
D11*
X128270000Y-76200000D03*
D10*
X102870000Y-83820000D03*
X102870000Y-81280000D03*
X102870000Y-78740000D03*
D11*
X102870000Y-76200000D03*
D12*
X105390000Y-123190000D03*
D13*
X97790000Y-123190000D03*
D14*
X77470000Y-123190000D03*
X62230000Y-123190000D03*
X77470000Y-87630000D03*
X62230000Y-120650000D03*
X77470000Y-90170000D03*
X62230000Y-118110000D03*
X77470000Y-92710000D03*
X62230000Y-115570000D03*
X77470000Y-95250000D03*
X62230000Y-113030000D03*
X77470000Y-97790000D03*
X62230000Y-110490000D03*
X77470000Y-100330000D03*
X62230000Y-107950000D03*
X77470000Y-102870000D03*
X62230000Y-105410000D03*
X77470000Y-105410000D03*
X62230000Y-102870000D03*
X77470000Y-107950000D03*
X62230000Y-100330000D03*
X77470000Y-110490000D03*
X62230000Y-97790000D03*
X77470000Y-113030000D03*
X62230000Y-95250000D03*
X77470000Y-115570000D03*
X62230000Y-92710000D03*
X77470000Y-118110000D03*
X62230000Y-90170000D03*
X77470000Y-120650000D03*
D15*
X62230000Y-87630000D03*
D16*
X63029999Y-122390001D02*
X62230000Y-123190000D01*
X63644999Y-121775001D02*
X63029999Y-122390001D01*
X108094999Y-121775001D02*
X63644999Y-121775001D01*
X151130000Y-78740000D02*
X108094999Y-121775001D01*
X78269999Y-102070001D02*
X77470000Y-102870000D01*
X78269999Y-101748999D02*
X78269999Y-102070001D01*
X102353999Y-77664999D02*
X78269999Y-101748999D01*
X127194999Y-77664999D02*
X102353999Y-77664999D01*
X128270000Y-78740000D02*
X127194999Y-77664999D01*
D17*
G36*
X190373000Y-138303000D02*
G01*
X52197000Y-138303000D01*
X52197000Y-90170000D01*
X60788057Y-90170000D01*
X60815764Y-90451309D01*
X60897818Y-90721808D01*
X61031068Y-90971101D01*
X61210392Y-91189608D01*
X61428899Y-91368932D01*
X61561858Y-91440000D01*
X61428899Y-91511068D01*
X61210392Y-91690392D01*
X61031068Y-91908899D01*
X60897818Y-92158192D01*
X60815764Y-92428691D01*
X60788057Y-92710000D01*
X60815764Y-92991309D01*
X60897818Y-93261808D01*
X61031068Y-93511101D01*
X61210392Y-93729608D01*
X61428899Y-93908932D01*
X61561858Y-93980000D01*
X61428899Y-94051068D01*
X61210392Y-94230392D01*
X61031068Y-94448899D01*
X60897818Y-94698192D01*
X60815764Y-94968691D01*
X60788057Y-95250000D01*
X60815764Y-95531309D01*
X60897818Y-95801808D01*
X61031068Y-96051101D01*
X61210392Y-96269608D01*
X61428899Y-96448932D01*
X61561858Y-96520000D01*
X61428899Y-96591068D01*
X61210392Y-96770392D01*
X61031068Y-96988899D01*
X60897818Y-97238192D01*
X60815764Y-97508691D01*
X60788057Y-97790000D01*
X60815764Y-98071309D01*
X60897818Y-98341808D01*
X61031068Y-98591101D01*
X61210392Y-98809608D01*
X61428899Y-98988932D01*
X61561858Y-99060000D01*
X61428899Y-99131068D01*
X61210392Y-99310392D01*
X61031068Y-99528899D01*
X60897818Y-99778192D01*
X60815764Y-100048691D01*
X60788057Y-100330000D01*
X60815764Y-100611309D01*
X60897818Y-100881808D01*
X61031068Y-101131101D01*
X61210392Y-101349608D01*
X61428899Y-101528932D01*
X61561858Y-101600000D01*
X61428899Y-101671068D01*
X61210392Y-101850392D01*
X61031068Y-102068899D01*
X60897818Y-102318192D01*
X60815764Y-102588691D01*
X60788057Y-102870000D01*
X60815764Y-103151309D01*
X60897818Y-103421808D01*
X61031068Y-103671101D01*
X61210392Y-103889608D01*
X61428899Y-104068932D01*
X61561858Y-104140000D01*
X61428899Y-104211068D01*
X61210392Y-104390392D01*
X61031068Y-104608899D01*
X60897818Y-104858192D01*
X60815764Y-105128691D01*
X60788057Y-105410000D01*
X60815764Y-105691309D01*
X60897818Y-105961808D01*
X61031068Y-106211101D01*
X61210392Y-106429608D01*
X61428899Y-106608932D01*
X61561858Y-106680000D01*
X61428899Y-106751068D01*
X61210392Y-106930392D01*
X61031068Y-107148899D01*
X60897818Y-107398192D01*
X60815764Y-107668691D01*
X60788057Y-107950000D01*
X60815764Y-108231309D01*
X60897818Y-108501808D01*
X61031068Y-108751101D01*
X61210392Y-108969608D01*
X61428899Y-109148932D01*
X61561858Y-109220000D01*
X61428899Y-109291068D01*
X61210392Y-109470392D01*
X61031068Y-109688899D01*
X60897818Y-109938192D01*
X60815764Y-110208691D01*
X60788057Y-110490000D01*
X60815764Y-110771309D01*
X60897818Y-111041808D01*
X61031068Y-111291101D01*
X61210392Y-111509608D01*
X61428899Y-111688932D01*
X61561858Y-111760000D01*
X61428899Y-111831068D01*
X61210392Y-112010392D01*
X61031068Y-112228899D01*
X60897818Y-112478192D01*
X60815764Y-112748691D01*
X60788057Y-113030000D01*
X60815764Y-113311309D01*
X60897818Y-113581808D01*
X61031068Y-113831101D01*
X61210392Y-114049608D01*
X61428899Y-114228932D01*
X61561858Y-114300000D01*
X61428899Y-114371068D01*
X61210392Y-114550392D01*
X61031068Y-114768899D01*
X60897818Y-115018192D01*
X60815764Y-115288691D01*
X60788057Y-115570000D01*
X60815764Y-115851309D01*
X60897818Y-116121808D01*
X61031068Y-116371101D01*
X61210392Y-116589608D01*
X61428899Y-116768932D01*
X61561858Y-116840000D01*
X61428899Y-116911068D01*
X61210392Y-117090392D01*
X61031068Y-117308899D01*
X60897818Y-117558192D01*
X60815764Y-117828691D01*
X60788057Y-118110000D01*
X60815764Y-118391309D01*
X60897818Y-118661808D01*
X61031068Y-118911101D01*
X61210392Y-119129608D01*
X61428899Y-119308932D01*
X61561858Y-119380000D01*
X61428899Y-119451068D01*
X61210392Y-119630392D01*
X61031068Y-119848899D01*
X60897818Y-120098192D01*
X60815764Y-120368691D01*
X60788057Y-120650000D01*
X60815764Y-120931309D01*
X60897818Y-121201808D01*
X61031068Y-121451101D01*
X61210392Y-121669608D01*
X61428899Y-121848932D01*
X61561858Y-121920000D01*
X61428899Y-121991068D01*
X61210392Y-122170392D01*
X61031068Y-122388899D01*
X60897818Y-122638192D01*
X60815764Y-122908691D01*
X60788057Y-123190000D01*
X60815764Y-123471309D01*
X60897818Y-123741808D01*
X61031068Y-123991101D01*
X61210392Y-124209608D01*
X61428899Y-124388932D01*
X61678192Y-124522182D01*
X61948691Y-124604236D01*
X62159508Y-124625000D01*
X62300492Y-124625000D01*
X62511309Y-124604236D01*
X62781808Y-124522182D01*
X63031101Y-124388932D01*
X63249608Y-124209608D01*
X63428932Y-123991101D01*
X63562182Y-123741808D01*
X63644236Y-123471309D01*
X63671943Y-123190000D01*
X63644236Y-122908691D01*
X63630708Y-122864093D01*
X63959801Y-122535001D01*
X76192975Y-122535001D01*
X76137818Y-122638192D01*
X76055764Y-122908691D01*
X76028057Y-123190000D01*
X76055764Y-123471309D01*
X76137818Y-123741808D01*
X76271068Y-123991101D01*
X76450392Y-124209608D01*
X76668899Y-124388932D01*
X76918192Y-124522182D01*
X77188691Y-124604236D01*
X77399508Y-124625000D01*
X77540492Y-124625000D01*
X77751309Y-124604236D01*
X78021808Y-124522182D01*
X78271101Y-124388932D01*
X78489608Y-124209608D01*
X78668932Y-123991101D01*
X78802182Y-123741808D01*
X78884236Y-123471309D01*
X78911943Y-123190000D01*
X78884236Y-122908691D01*
X78802182Y-122638192D01*
X78747025Y-122535001D01*
X96151928Y-122535001D01*
X96151928Y-124190000D01*
X96164188Y-124314482D01*
X96200498Y-124434180D01*
X96259463Y-124544494D01*
X96338815Y-124641185D01*
X96435506Y-124720537D01*
X96545820Y-124779502D01*
X96665518Y-124815812D01*
X96790000Y-124828072D01*
X98790000Y-124828072D01*
X98914482Y-124815812D01*
X99034180Y-124779502D01*
X99144494Y-124720537D01*
X99241185Y-124641185D01*
X99320537Y-124544494D01*
X99379502Y-124434180D01*
X99412496Y-124325413D01*
X104434192Y-124325413D01*
X104529956Y-124589814D01*
X104819571Y-124730704D01*
X105131108Y-124812384D01*
X105452595Y-124831718D01*
X105771675Y-124787961D01*
X106076088Y-124682795D01*
X106250044Y-124589814D01*
X106345808Y-124325413D01*
X105390000Y-123369605D01*
X104434192Y-124325413D01*
X99412496Y-124325413D01*
X99415812Y-124314482D01*
X99428072Y-124190000D01*
X99428072Y-122535001D01*
X103890437Y-122535001D01*
X103849296Y-122619571D01*
X103767616Y-122931108D01*
X103748282Y-123252595D01*
X103792039Y-123571675D01*
X103897205Y-123876088D01*
X103990186Y-124050044D01*
X104254587Y-124145808D01*
X105210395Y-123190000D01*
X105196253Y-123175858D01*
X105375858Y-122996253D01*
X105390000Y-123010395D01*
X105404143Y-122996253D01*
X105583748Y-123175858D01*
X105569605Y-123190000D01*
X106525413Y-124145808D01*
X106789814Y-124050044D01*
X106930704Y-123760429D01*
X107012384Y-123448892D01*
X107031718Y-123127405D01*
X106987961Y-122808325D01*
X106893535Y-122535001D01*
X108057677Y-122535001D01*
X108094999Y-122538677D01*
X108132321Y-122535001D01*
X108132332Y-122535001D01*
X108243985Y-122524004D01*
X108387246Y-122480547D01*
X108519275Y-122409975D01*
X108635000Y-122315002D01*
X108658803Y-122285998D01*
X146167808Y-84776993D01*
X150352612Y-84776993D01*
X150418137Y-85015860D01*
X150665116Y-85131760D01*
X150929960Y-85197250D01*
X151202492Y-85209812D01*
X151472238Y-85168965D01*
X151728832Y-85076277D01*
X151841863Y-85015860D01*
X151907388Y-84776993D01*
X175752612Y-84776993D01*
X175818137Y-85015860D01*
X176065116Y-85131760D01*
X176329960Y-85197250D01*
X176602492Y-85209812D01*
X176872238Y-85168965D01*
X177128832Y-85076277D01*
X177241863Y-85015860D01*
X177307388Y-84776993D01*
X176530000Y-83999605D01*
X175752612Y-84776993D01*
X151907388Y-84776993D01*
X151130000Y-83999605D01*
X150352612Y-84776993D01*
X146167808Y-84776993D01*
X147052309Y-83892492D01*
X149740188Y-83892492D01*
X149781035Y-84162238D01*
X149873723Y-84418832D01*
X149934140Y-84531863D01*
X150173007Y-84597388D01*
X150950395Y-83820000D01*
X151309605Y-83820000D01*
X152086993Y-84597388D01*
X152325860Y-84531863D01*
X152441760Y-84284884D01*
X152507250Y-84020040D01*
X152513129Y-83892492D01*
X175140188Y-83892492D01*
X175181035Y-84162238D01*
X175273723Y-84418832D01*
X175334140Y-84531863D01*
X175573007Y-84597388D01*
X176350395Y-83820000D01*
X176709605Y-83820000D01*
X177486993Y-84597388D01*
X177725860Y-84531863D01*
X177841760Y-84284884D01*
X177907250Y-84020040D01*
X177919812Y-83747508D01*
X177878965Y-83477762D01*
X177786277Y-83221168D01*
X177725860Y-83108137D01*
X177486993Y-83042612D01*
X176709605Y-83820000D01*
X176350395Y-83820000D01*
X175573007Y-83042612D01*
X175334140Y-83108137D01*
X175218240Y-83355116D01*
X175152750Y-83619960D01*
X175140188Y-83892492D01*
X152513129Y-83892492D01*
X152519812Y-83747508D01*
X152478965Y-83477762D01*
X152386277Y-83221168D01*
X152325860Y-83108137D01*
X152086993Y-83042612D01*
X151309605Y-83820000D01*
X150950395Y-83820000D01*
X150173007Y-83042612D01*
X149934140Y-83108137D01*
X149818240Y-83355116D01*
X149752750Y-83619960D01*
X149740188Y-83892492D01*
X147052309Y-83892492D01*
X149745000Y-81199802D01*
X149745000Y-81416411D01*
X149798225Y-81683989D01*
X149902629Y-81936043D01*
X150054201Y-82162886D01*
X150247114Y-82355799D01*
X150473957Y-82507371D01*
X150573279Y-82548511D01*
X150531168Y-82563723D01*
X150418137Y-82624140D01*
X150352612Y-82863007D01*
X151130000Y-83640395D01*
X151907388Y-82863007D01*
X151841863Y-82624140D01*
X151683523Y-82549836D01*
X151786043Y-82507371D01*
X152012886Y-82355799D01*
X152205799Y-82162886D01*
X152357371Y-81936043D01*
X152461775Y-81683989D01*
X152515000Y-81416411D01*
X152515000Y-81143589D01*
X152461775Y-80876011D01*
X152357371Y-80623957D01*
X152205799Y-80397114D01*
X152012886Y-80204201D01*
X151786043Y-80052629D01*
X151683127Y-80010000D01*
X151786043Y-79967371D01*
X152012886Y-79815799D01*
X152205799Y-79622886D01*
X152357371Y-79396043D01*
X152461775Y-79143989D01*
X152515000Y-78876411D01*
X152515000Y-78603589D01*
X152461775Y-78336011D01*
X152357371Y-78083957D01*
X152205799Y-77857114D01*
X152012886Y-77664201D01*
X151896517Y-77586445D01*
X152004482Y-77575812D01*
X152124180Y-77539502D01*
X152234494Y-77480537D01*
X152331185Y-77401185D01*
X152410537Y-77304494D01*
X152469502Y-77194180D01*
X152505812Y-77074482D01*
X152518072Y-76950000D01*
X152518072Y-75450000D01*
X175141928Y-75450000D01*
X175141928Y-76950000D01*
X175154188Y-77074482D01*
X175190498Y-77194180D01*
X175249463Y-77304494D01*
X175328815Y-77401185D01*
X175425506Y-77480537D01*
X175535820Y-77539502D01*
X175655518Y-77575812D01*
X175763483Y-77586445D01*
X175647114Y-77664201D01*
X175454201Y-77857114D01*
X175302629Y-78083957D01*
X175198225Y-78336011D01*
X175145000Y-78603589D01*
X175145000Y-78876411D01*
X175198225Y-79143989D01*
X175302629Y-79396043D01*
X175454201Y-79622886D01*
X175647114Y-79815799D01*
X175873957Y-79967371D01*
X175976873Y-80010000D01*
X175873957Y-80052629D01*
X175647114Y-80204201D01*
X175454201Y-80397114D01*
X175302629Y-80623957D01*
X175198225Y-80876011D01*
X175145000Y-81143589D01*
X175145000Y-81416411D01*
X175198225Y-81683989D01*
X175302629Y-81936043D01*
X175454201Y-82162886D01*
X175647114Y-82355799D01*
X175873957Y-82507371D01*
X175973279Y-82548511D01*
X175931168Y-82563723D01*
X175818137Y-82624140D01*
X175752612Y-82863007D01*
X176530000Y-83640395D01*
X177307388Y-82863007D01*
X177241863Y-82624140D01*
X177083523Y-82549836D01*
X177186043Y-82507371D01*
X177412886Y-82355799D01*
X177605799Y-82162886D01*
X177757371Y-81936043D01*
X177861775Y-81683989D01*
X177915000Y-81416411D01*
X177915000Y-81143589D01*
X177861775Y-80876011D01*
X177757371Y-80623957D01*
X177605799Y-80397114D01*
X177412886Y-80204201D01*
X177186043Y-80052629D01*
X177083127Y-80010000D01*
X177186043Y-79967371D01*
X177412886Y-79815799D01*
X177605799Y-79622886D01*
X177757371Y-79396043D01*
X177861775Y-79143989D01*
X177915000Y-78876411D01*
X177915000Y-78603589D01*
X177861775Y-78336011D01*
X177757371Y-78083957D01*
X177605799Y-77857114D01*
X177412886Y-77664201D01*
X177296517Y-77586445D01*
X177404482Y-77575812D01*
X177524180Y-77539502D01*
X177634494Y-77480537D01*
X177731185Y-77401185D01*
X177810537Y-77304494D01*
X177869502Y-77194180D01*
X177905812Y-77074482D01*
X177918072Y-76950000D01*
X177918072Y-75450000D01*
X177905812Y-75325518D01*
X177869502Y-75205820D01*
X177810537Y-75095506D01*
X177731185Y-74998815D01*
X177634494Y-74919463D01*
X177524180Y-74860498D01*
X177404482Y-74824188D01*
X177280000Y-74811928D01*
X175780000Y-74811928D01*
X175655518Y-74824188D01*
X175535820Y-74860498D01*
X175425506Y-74919463D01*
X175328815Y-74998815D01*
X175249463Y-75095506D01*
X175190498Y-75205820D01*
X175154188Y-75325518D01*
X175141928Y-75450000D01*
X152518072Y-75450000D01*
X152505812Y-75325518D01*
X152469502Y-75205820D01*
X152410537Y-75095506D01*
X152331185Y-74998815D01*
X152234494Y-74919463D01*
X152124180Y-74860498D01*
X152004482Y-74824188D01*
X151880000Y-74811928D01*
X150380000Y-74811928D01*
X150255518Y-74824188D01*
X150135820Y-74860498D01*
X150025506Y-74919463D01*
X149928815Y-74998815D01*
X149849463Y-75095506D01*
X149790498Y-75205820D01*
X149754188Y-75325518D01*
X149741928Y-75450000D01*
X149741928Y-76950000D01*
X149754188Y-77074482D01*
X149790498Y-77194180D01*
X149849463Y-77304494D01*
X149928815Y-77401185D01*
X150025506Y-77480537D01*
X150135820Y-77539502D01*
X150255518Y-77575812D01*
X150363483Y-77586445D01*
X150247114Y-77664201D01*
X150054201Y-77857114D01*
X149902629Y-78083957D01*
X149798225Y-78336011D01*
X149745000Y-78603589D01*
X149745000Y-78876411D01*
X149773833Y-79021365D01*
X107780198Y-121015001D01*
X78858849Y-121015001D01*
X78884236Y-120931309D01*
X78911943Y-120650000D01*
X78884236Y-120368691D01*
X78802182Y-120098192D01*
X78668932Y-119848899D01*
X78489608Y-119630392D01*
X78271101Y-119451068D01*
X78138142Y-119380000D01*
X78271101Y-119308932D01*
X78489608Y-119129608D01*
X78668932Y-118911101D01*
X78802182Y-118661808D01*
X78884236Y-118391309D01*
X78911943Y-118110000D01*
X78884236Y-117828691D01*
X78802182Y-117558192D01*
X78668932Y-117308899D01*
X78489608Y-117090392D01*
X78271101Y-116911068D01*
X78138142Y-116840000D01*
X78271101Y-116768932D01*
X78489608Y-116589608D01*
X78668932Y-116371101D01*
X78802182Y-116121808D01*
X78884236Y-115851309D01*
X78911943Y-115570000D01*
X78884236Y-115288691D01*
X78802182Y-115018192D01*
X78668932Y-114768899D01*
X78489608Y-114550392D01*
X78271101Y-114371068D01*
X78138142Y-114300000D01*
X78271101Y-114228932D01*
X78489608Y-114049608D01*
X78668932Y-113831101D01*
X78802182Y-113581808D01*
X78884236Y-113311309D01*
X78911943Y-113030000D01*
X78884236Y-112748691D01*
X78802182Y-112478192D01*
X78668932Y-112228899D01*
X78489608Y-112010392D01*
X78271101Y-111831068D01*
X78138142Y-111760000D01*
X78271101Y-111688932D01*
X78489608Y-111509608D01*
X78668932Y-111291101D01*
X78802182Y-111041808D01*
X78884236Y-110771309D01*
X78911943Y-110490000D01*
X78884236Y-110208691D01*
X78802182Y-109938192D01*
X78668932Y-109688899D01*
X78489608Y-109470392D01*
X78271101Y-109291068D01*
X78138142Y-109220000D01*
X78271101Y-109148932D01*
X78489608Y-108969608D01*
X78668932Y-108751101D01*
X78802182Y-108501808D01*
X78884236Y-108231309D01*
X78911943Y-107950000D01*
X78884236Y-107668691D01*
X78802182Y-107398192D01*
X78668932Y-107148899D01*
X78489608Y-106930392D01*
X78271101Y-106751068D01*
X78138142Y-106680000D01*
X78271101Y-106608932D01*
X78489608Y-106429608D01*
X78668932Y-106211101D01*
X78802182Y-105961808D01*
X78884236Y-105691309D01*
X78911943Y-105410000D01*
X78884236Y-105128691D01*
X78802182Y-104858192D01*
X78668932Y-104608899D01*
X78489608Y-104390392D01*
X78271101Y-104211068D01*
X78138142Y-104140000D01*
X78271101Y-104068932D01*
X78489608Y-103889608D01*
X78668932Y-103671101D01*
X78802182Y-103421808D01*
X78884236Y-103151309D01*
X78911943Y-102870000D01*
X78884236Y-102588691D01*
X78868922Y-102538206D01*
X78904972Y-102494278D01*
X78904973Y-102494277D01*
X78975545Y-102362248D01*
X79019002Y-102218986D01*
X79029999Y-102107333D01*
X79029999Y-102107325D01*
X79033675Y-102070002D01*
X79032789Y-102061010D01*
X96316806Y-84776993D01*
X102092612Y-84776993D01*
X102158137Y-85015860D01*
X102405116Y-85131760D01*
X102669960Y-85197250D01*
X102942492Y-85209812D01*
X103212238Y-85168965D01*
X103468832Y-85076277D01*
X103581863Y-85015860D01*
X103647388Y-84776993D01*
X127492612Y-84776993D01*
X127558137Y-85015860D01*
X127805116Y-85131760D01*
X128069960Y-85197250D01*
X128342492Y-85209812D01*
X128612238Y-85168965D01*
X128868832Y-85076277D01*
X128981863Y-85015860D01*
X129047388Y-84776993D01*
X128270000Y-83999605D01*
X127492612Y-84776993D01*
X103647388Y-84776993D01*
X102870000Y-83999605D01*
X102092612Y-84776993D01*
X96316806Y-84776993D01*
X97201308Y-83892492D01*
X101480188Y-83892492D01*
X101521035Y-84162238D01*
X101613723Y-84418832D01*
X101674140Y-84531863D01*
X101913007Y-84597388D01*
X102690395Y-83820000D01*
X103049605Y-83820000D01*
X103826993Y-84597388D01*
X104065860Y-84531863D01*
X104181760Y-84284884D01*
X104247250Y-84020040D01*
X104253129Y-83892492D01*
X126880188Y-83892492D01*
X126921035Y-84162238D01*
X127013723Y-84418832D01*
X127074140Y-84531863D01*
X127313007Y-84597388D01*
X128090395Y-83820000D01*
X128449605Y-83820000D01*
X129226993Y-84597388D01*
X129465860Y-84531863D01*
X129581760Y-84284884D01*
X129647250Y-84020040D01*
X129659812Y-83747508D01*
X129618965Y-83477762D01*
X129526277Y-83221168D01*
X129465860Y-83108137D01*
X129226993Y-83042612D01*
X128449605Y-83820000D01*
X128090395Y-83820000D01*
X127313007Y-83042612D01*
X127074140Y-83108137D01*
X126958240Y-83355116D01*
X126892750Y-83619960D01*
X126880188Y-83892492D01*
X104253129Y-83892492D01*
X104259812Y-83747508D01*
X104218965Y-83477762D01*
X104126277Y-83221168D01*
X104065860Y-83108137D01*
X103826993Y-83042612D01*
X103049605Y-83820000D01*
X102690395Y-83820000D01*
X101913007Y-83042612D01*
X101674140Y-83108137D01*
X101558240Y-83355116D01*
X101492750Y-83619960D01*
X101480188Y-83892492D01*
X97201308Y-83892492D01*
X101664711Y-79429090D01*
X101794201Y-79622886D01*
X101987114Y-79815799D01*
X102213957Y-79967371D01*
X102316873Y-80010000D01*
X102213957Y-80052629D01*
X101987114Y-80204201D01*
X101794201Y-80397114D01*
X101642629Y-80623957D01*
X101538225Y-80876011D01*
X101485000Y-81143589D01*
X101485000Y-81416411D01*
X101538225Y-81683989D01*
X101642629Y-81936043D01*
X101794201Y-82162886D01*
X101987114Y-82355799D01*
X102213957Y-82507371D01*
X102313279Y-82548511D01*
X102271168Y-82563723D01*
X102158137Y-82624140D01*
X102092612Y-82863007D01*
X102870000Y-83640395D01*
X103647388Y-82863007D01*
X103581863Y-82624140D01*
X103423523Y-82549836D01*
X103526043Y-82507371D01*
X103752886Y-82355799D01*
X103945799Y-82162886D01*
X104097371Y-81936043D01*
X104201775Y-81683989D01*
X104255000Y-81416411D01*
X104255000Y-81143589D01*
X104201775Y-80876011D01*
X104097371Y-80623957D01*
X103945799Y-80397114D01*
X103752886Y-80204201D01*
X103526043Y-80052629D01*
X103423127Y-80010000D01*
X103526043Y-79967371D01*
X103752886Y-79815799D01*
X103945799Y-79622886D01*
X104097371Y-79396043D01*
X104201775Y-79143989D01*
X104255000Y-78876411D01*
X104255000Y-78603589D01*
X104219476Y-78424999D01*
X126880198Y-78424999D01*
X126913833Y-78458635D01*
X126885000Y-78603589D01*
X126885000Y-78876411D01*
X126938225Y-79143989D01*
X127042629Y-79396043D01*
X127194201Y-79622886D01*
X127387114Y-79815799D01*
X127613957Y-79967371D01*
X127716873Y-80010000D01*
X127613957Y-80052629D01*
X127387114Y-80204201D01*
X127194201Y-80397114D01*
X127042629Y-80623957D01*
X126938225Y-80876011D01*
X126885000Y-81143589D01*
X126885000Y-81416411D01*
X126938225Y-81683989D01*
X127042629Y-81936043D01*
X127194201Y-82162886D01*
X127387114Y-82355799D01*
X127613957Y-82507371D01*
X127713279Y-82548511D01*
X127671168Y-82563723D01*
X127558137Y-82624140D01*
X127492612Y-82863007D01*
X128270000Y-83640395D01*
X129047388Y-82863007D01*
X128981863Y-82624140D01*
X128823523Y-82549836D01*
X128926043Y-82507371D01*
X129152886Y-82355799D01*
X129345799Y-82162886D01*
X129497371Y-81936043D01*
X129601775Y-81683989D01*
X129655000Y-81416411D01*
X129655000Y-81143589D01*
X129601775Y-80876011D01*
X129497371Y-80623957D01*
X129345799Y-80397114D01*
X129152886Y-80204201D01*
X128926043Y-80052629D01*
X128823127Y-80010000D01*
X128926043Y-79967371D01*
X129152886Y-79815799D01*
X129345799Y-79622886D01*
X129497371Y-79396043D01*
X129601775Y-79143989D01*
X129655000Y-78876411D01*
X129655000Y-78603589D01*
X129601775Y-78336011D01*
X129497371Y-78083957D01*
X129345799Y-77857114D01*
X129152886Y-77664201D01*
X129036517Y-77586445D01*
X129144482Y-77575812D01*
X129264180Y-77539502D01*
X129374494Y-77480537D01*
X129471185Y-77401185D01*
X129550537Y-77304494D01*
X129609502Y-77194180D01*
X129645812Y-77074482D01*
X129658072Y-76950000D01*
X129658072Y-75450000D01*
X129645812Y-75325518D01*
X129609502Y-75205820D01*
X129550537Y-75095506D01*
X129471185Y-74998815D01*
X129374494Y-74919463D01*
X129264180Y-74860498D01*
X129144482Y-74824188D01*
X129020000Y-74811928D01*
X127520000Y-74811928D01*
X127395518Y-74824188D01*
X127275820Y-74860498D01*
X127165506Y-74919463D01*
X127068815Y-74998815D01*
X126989463Y-75095506D01*
X126930498Y-75205820D01*
X126894188Y-75325518D01*
X126881928Y-75450000D01*
X126881928Y-76904999D01*
X104258072Y-76904999D01*
X104258072Y-75450000D01*
X104245812Y-75325518D01*
X104209502Y-75205820D01*
X104150537Y-75095506D01*
X104071185Y-74998815D01*
X103974494Y-74919463D01*
X103864180Y-74860498D01*
X103744482Y-74824188D01*
X103620000Y-74811928D01*
X102120000Y-74811928D01*
X101995518Y-74824188D01*
X101875820Y-74860498D01*
X101765506Y-74919463D01*
X101668815Y-74998815D01*
X101589463Y-75095506D01*
X101530498Y-75205820D01*
X101494188Y-75325518D01*
X101481928Y-75450000D01*
X101481928Y-76950000D01*
X101494188Y-77074482D01*
X101530498Y-77194180D01*
X101589463Y-77304494D01*
X101612108Y-77332087D01*
X78885246Y-100058950D01*
X78884236Y-100048691D01*
X78802182Y-99778192D01*
X78668932Y-99528899D01*
X78489608Y-99310392D01*
X78271101Y-99131068D01*
X78138142Y-99060000D01*
X78271101Y-98988932D01*
X78489608Y-98809608D01*
X78668932Y-98591101D01*
X78802182Y-98341808D01*
X78884236Y-98071309D01*
X78911943Y-97790000D01*
X78884236Y-97508691D01*
X78802182Y-97238192D01*
X78668932Y-96988899D01*
X78489608Y-96770392D01*
X78271101Y-96591068D01*
X78138142Y-96520000D01*
X78271101Y-96448932D01*
X78489608Y-96269608D01*
X78668932Y-96051101D01*
X78802182Y-95801808D01*
X78884236Y-95531309D01*
X78911943Y-95250000D01*
X78884236Y-94968691D01*
X78802182Y-94698192D01*
X78668932Y-94448899D01*
X78489608Y-94230392D01*
X78271101Y-94051068D01*
X78138142Y-93980000D01*
X78271101Y-93908932D01*
X78489608Y-93729608D01*
X78668932Y-93511101D01*
X78802182Y-93261808D01*
X78884236Y-92991309D01*
X78911943Y-92710000D01*
X78884236Y-92428691D01*
X78802182Y-92158192D01*
X78668932Y-91908899D01*
X78489608Y-91690392D01*
X78271101Y-91511068D01*
X78133318Y-91437421D01*
X78325131Y-91322385D01*
X78533519Y-91133414D01*
X78701037Y-90907420D01*
X78821246Y-90653087D01*
X78861904Y-90519039D01*
X78739915Y-90297000D01*
X77597000Y-90297000D01*
X77597000Y-90317000D01*
X77343000Y-90317000D01*
X77343000Y-90297000D01*
X76200085Y-90297000D01*
X76078096Y-90519039D01*
X76118754Y-90653087D01*
X76238963Y-90907420D01*
X76406481Y-91133414D01*
X76614869Y-91322385D01*
X76806682Y-91437421D01*
X76668899Y-91511068D01*
X76450392Y-91690392D01*
X76271068Y-91908899D01*
X76137818Y-92158192D01*
X76055764Y-92428691D01*
X76028057Y-92710000D01*
X76055764Y-92991309D01*
X76137818Y-93261808D01*
X76271068Y-93511101D01*
X76450392Y-93729608D01*
X76668899Y-93908932D01*
X76801858Y-93980000D01*
X76668899Y-94051068D01*
X76450392Y-94230392D01*
X76271068Y-94448899D01*
X76137818Y-94698192D01*
X76055764Y-94968691D01*
X76028057Y-95250000D01*
X76055764Y-95531309D01*
X76137818Y-95801808D01*
X76271068Y-96051101D01*
X76450392Y-96269608D01*
X76668899Y-96448932D01*
X76801858Y-96520000D01*
X76668899Y-96591068D01*
X76450392Y-96770392D01*
X76271068Y-96988899D01*
X76137818Y-97238192D01*
X76055764Y-97508691D01*
X76028057Y-97790000D01*
X76055764Y-98071309D01*
X76137818Y-98341808D01*
X76271068Y-98591101D01*
X76450392Y-98809608D01*
X76668899Y-98988932D01*
X76801858Y-99060000D01*
X76668899Y-99131068D01*
X76450392Y-99310392D01*
X76271068Y-99528899D01*
X76137818Y-99778192D01*
X76055764Y-100048691D01*
X76028057Y-100330000D01*
X76055764Y-100611309D01*
X76137818Y-100881808D01*
X76271068Y-101131101D01*
X76450392Y-101349608D01*
X76668899Y-101528932D01*
X76801858Y-101600000D01*
X76668899Y-101671068D01*
X76450392Y-101850392D01*
X76271068Y-102068899D01*
X76137818Y-102318192D01*
X76055764Y-102588691D01*
X76028057Y-102870000D01*
X76055764Y-103151309D01*
X76137818Y-103421808D01*
X76271068Y-103671101D01*
X76450392Y-103889608D01*
X76668899Y-104068932D01*
X76801858Y-104140000D01*
X76668899Y-104211068D01*
X76450392Y-104390392D01*
X76271068Y-104608899D01*
X76137818Y-104858192D01*
X76055764Y-105128691D01*
X76028057Y-105410000D01*
X76055764Y-105691309D01*
X76137818Y-105961808D01*
X76271068Y-106211101D01*
X76450392Y-106429608D01*
X76668899Y-106608932D01*
X76801858Y-106680000D01*
X76668899Y-106751068D01*
X76450392Y-106930392D01*
X76271068Y-107148899D01*
X76137818Y-107398192D01*
X76055764Y-107668691D01*
X76028057Y-107950000D01*
X76055764Y-108231309D01*
X76137818Y-108501808D01*
X76271068Y-108751101D01*
X76450392Y-108969608D01*
X76668899Y-109148932D01*
X76801858Y-109220000D01*
X76668899Y-109291068D01*
X76450392Y-109470392D01*
X76271068Y-109688899D01*
X76137818Y-109938192D01*
X76055764Y-110208691D01*
X76028057Y-110490000D01*
X76055764Y-110771309D01*
X76137818Y-111041808D01*
X76271068Y-111291101D01*
X76450392Y-111509608D01*
X76668899Y-111688932D01*
X76801858Y-111760000D01*
X76668899Y-111831068D01*
X76450392Y-112010392D01*
X76271068Y-112228899D01*
X76137818Y-112478192D01*
X76055764Y-112748691D01*
X76028057Y-113030000D01*
X76055764Y-113311309D01*
X76137818Y-113581808D01*
X76271068Y-113831101D01*
X76450392Y-114049608D01*
X76668899Y-114228932D01*
X76801858Y-114300000D01*
X76668899Y-114371068D01*
X76450392Y-114550392D01*
X76271068Y-114768899D01*
X76137818Y-115018192D01*
X76055764Y-115288691D01*
X76028057Y-115570000D01*
X76055764Y-115851309D01*
X76137818Y-116121808D01*
X76271068Y-116371101D01*
X76450392Y-116589608D01*
X76668899Y-116768932D01*
X76801858Y-116840000D01*
X76668899Y-116911068D01*
X76450392Y-117090392D01*
X76271068Y-117308899D01*
X76137818Y-117558192D01*
X76055764Y-117828691D01*
X76028057Y-118110000D01*
X76055764Y-118391309D01*
X76137818Y-118661808D01*
X76271068Y-118911101D01*
X76450392Y-119129608D01*
X76668899Y-119308932D01*
X76801858Y-119380000D01*
X76668899Y-119451068D01*
X76450392Y-119630392D01*
X76271068Y-119848899D01*
X76137818Y-120098192D01*
X76055764Y-120368691D01*
X76028057Y-120650000D01*
X76055764Y-120931309D01*
X76081151Y-121015001D01*
X63682321Y-121015001D01*
X63644998Y-121011325D01*
X63619193Y-121013867D01*
X63644236Y-120931309D01*
X63671943Y-120650000D01*
X63644236Y-120368691D01*
X63562182Y-120098192D01*
X63428932Y-119848899D01*
X63249608Y-119630392D01*
X63031101Y-119451068D01*
X62898142Y-119380000D01*
X63031101Y-119308932D01*
X63249608Y-119129608D01*
X63428932Y-118911101D01*
X63562182Y-118661808D01*
X63644236Y-118391309D01*
X63671943Y-118110000D01*
X63644236Y-117828691D01*
X63562182Y-117558192D01*
X63428932Y-117308899D01*
X63249608Y-117090392D01*
X63031101Y-116911068D01*
X62898142Y-116840000D01*
X63031101Y-116768932D01*
X63249608Y-116589608D01*
X63428932Y-116371101D01*
X63562182Y-116121808D01*
X63644236Y-115851309D01*
X63671943Y-115570000D01*
X63644236Y-115288691D01*
X63562182Y-115018192D01*
X63428932Y-114768899D01*
X63249608Y-114550392D01*
X63031101Y-114371068D01*
X62898142Y-114300000D01*
X63031101Y-114228932D01*
X63249608Y-114049608D01*
X63428932Y-113831101D01*
X63562182Y-113581808D01*
X63644236Y-113311309D01*
X63671943Y-113030000D01*
X63644236Y-112748691D01*
X63562182Y-112478192D01*
X63428932Y-112228899D01*
X63249608Y-112010392D01*
X63031101Y-111831068D01*
X62898142Y-111760000D01*
X63031101Y-111688932D01*
X63249608Y-111509608D01*
X63428932Y-111291101D01*
X63562182Y-111041808D01*
X63644236Y-110771309D01*
X63671943Y-110490000D01*
X63644236Y-110208691D01*
X63562182Y-109938192D01*
X63428932Y-109688899D01*
X63249608Y-109470392D01*
X63031101Y-109291068D01*
X62898142Y-109220000D01*
X63031101Y-109148932D01*
X63249608Y-108969608D01*
X63428932Y-108751101D01*
X63562182Y-108501808D01*
X63644236Y-108231309D01*
X63671943Y-107950000D01*
X63644236Y-107668691D01*
X63562182Y-107398192D01*
X63428932Y-107148899D01*
X63249608Y-106930392D01*
X63031101Y-106751068D01*
X62898142Y-106680000D01*
X63031101Y-106608932D01*
X63249608Y-106429608D01*
X63428932Y-106211101D01*
X63562182Y-105961808D01*
X63644236Y-105691309D01*
X63671943Y-105410000D01*
X63644236Y-105128691D01*
X63562182Y-104858192D01*
X63428932Y-104608899D01*
X63249608Y-104390392D01*
X63031101Y-104211068D01*
X62898142Y-104140000D01*
X63031101Y-104068932D01*
X63249608Y-103889608D01*
X63428932Y-103671101D01*
X63562182Y-103421808D01*
X63644236Y-103151309D01*
X63671943Y-102870000D01*
X63644236Y-102588691D01*
X63562182Y-102318192D01*
X63428932Y-102068899D01*
X63249608Y-101850392D01*
X63031101Y-101671068D01*
X62898142Y-101600000D01*
X63031101Y-101528932D01*
X63249608Y-101349608D01*
X63428932Y-101131101D01*
X63562182Y-100881808D01*
X63644236Y-100611309D01*
X63671943Y-100330000D01*
X63644236Y-100048691D01*
X63562182Y-99778192D01*
X63428932Y-99528899D01*
X63249608Y-99310392D01*
X63031101Y-99131068D01*
X62898142Y-99060000D01*
X63031101Y-98988932D01*
X63249608Y-98809608D01*
X63428932Y-98591101D01*
X63562182Y-98341808D01*
X63644236Y-98071309D01*
X63671943Y-97790000D01*
X63644236Y-97508691D01*
X63562182Y-97238192D01*
X63428932Y-96988899D01*
X63249608Y-96770392D01*
X63031101Y-96591068D01*
X62898142Y-96520000D01*
X63031101Y-96448932D01*
X63249608Y-96269608D01*
X63428932Y-96051101D01*
X63562182Y-95801808D01*
X63644236Y-95531309D01*
X63671943Y-95250000D01*
X63644236Y-94968691D01*
X63562182Y-94698192D01*
X63428932Y-94448899D01*
X63249608Y-94230392D01*
X63031101Y-94051068D01*
X62898142Y-93980000D01*
X63031101Y-93908932D01*
X63249608Y-93729608D01*
X63428932Y-93511101D01*
X63562182Y-93261808D01*
X63644236Y-92991309D01*
X63671943Y-92710000D01*
X63644236Y-92428691D01*
X63562182Y-92158192D01*
X63428932Y-91908899D01*
X63249608Y-91690392D01*
X63031101Y-91511068D01*
X62898142Y-91440000D01*
X63031101Y-91368932D01*
X63249608Y-91189608D01*
X63428932Y-90971101D01*
X63562182Y-90721808D01*
X63644236Y-90451309D01*
X63671943Y-90170000D01*
X63644236Y-89888691D01*
X63562182Y-89618192D01*
X63428932Y-89368899D01*
X63249608Y-89150392D01*
X63136518Y-89057581D01*
X63154482Y-89055812D01*
X63274180Y-89019502D01*
X63384494Y-88960537D01*
X63481185Y-88881185D01*
X63560537Y-88784494D01*
X63619502Y-88674180D01*
X63655812Y-88554482D01*
X63668072Y-88430000D01*
X63668072Y-87630000D01*
X76028057Y-87630000D01*
X76055764Y-87911309D01*
X76137818Y-88181808D01*
X76271068Y-88431101D01*
X76450392Y-88649608D01*
X76668899Y-88828932D01*
X76806682Y-88902579D01*
X76614869Y-89017615D01*
X76406481Y-89206586D01*
X76238963Y-89432580D01*
X76118754Y-89686913D01*
X76078096Y-89820961D01*
X76200085Y-90043000D01*
X77343000Y-90043000D01*
X77343000Y-90023000D01*
X77597000Y-90023000D01*
X77597000Y-90043000D01*
X78739915Y-90043000D01*
X78861904Y-89820961D01*
X78821246Y-89686913D01*
X78701037Y-89432580D01*
X78533519Y-89206586D01*
X78325131Y-89017615D01*
X78133318Y-88902579D01*
X78271101Y-88828932D01*
X78489608Y-88649608D01*
X78668932Y-88431101D01*
X78802182Y-88181808D01*
X78884236Y-87911309D01*
X78911943Y-87630000D01*
X78884236Y-87348691D01*
X78802182Y-87078192D01*
X78668932Y-86828899D01*
X78489608Y-86610392D01*
X78271101Y-86431068D01*
X78021808Y-86297818D01*
X77751309Y-86215764D01*
X77540492Y-86195000D01*
X77399508Y-86195000D01*
X77188691Y-86215764D01*
X76918192Y-86297818D01*
X76668899Y-86431068D01*
X76450392Y-86610392D01*
X76271068Y-86828899D01*
X76137818Y-87078192D01*
X76055764Y-87348691D01*
X76028057Y-87630000D01*
X63668072Y-87630000D01*
X63668072Y-86830000D01*
X63655812Y-86705518D01*
X63619502Y-86585820D01*
X63560537Y-86475506D01*
X63481185Y-86378815D01*
X63384494Y-86299463D01*
X63274180Y-86240498D01*
X63154482Y-86204188D01*
X63030000Y-86191928D01*
X61430000Y-86191928D01*
X61305518Y-86204188D01*
X61185820Y-86240498D01*
X61075506Y-86299463D01*
X60978815Y-86378815D01*
X60899463Y-86475506D01*
X60840498Y-86585820D01*
X60804188Y-86705518D01*
X60791928Y-86830000D01*
X60791928Y-88430000D01*
X60804188Y-88554482D01*
X60840498Y-88674180D01*
X60899463Y-88784494D01*
X60978815Y-88881185D01*
X61075506Y-88960537D01*
X61185820Y-89019502D01*
X61305518Y-89055812D01*
X61323482Y-89057581D01*
X61210392Y-89150392D01*
X61031068Y-89368899D01*
X60897818Y-89618192D01*
X60815764Y-89888691D01*
X60788057Y-90170000D01*
X52197000Y-90170000D01*
X52197000Y-63627000D01*
X190373000Y-63627000D01*
X190373000Y-138303000D01*
X190373000Y-138303000D01*
G37*
X190373000Y-138303000D02*
X52197000Y-138303000D01*
X52197000Y-90170000D01*
X60788057Y-90170000D01*
X60815764Y-90451309D01*
X60897818Y-90721808D01*
X61031068Y-90971101D01*
X61210392Y-91189608D01*
X61428899Y-91368932D01*
X61561858Y-91440000D01*
X61428899Y-91511068D01*
X61210392Y-91690392D01*
X61031068Y-91908899D01*
X60897818Y-92158192D01*
X60815764Y-92428691D01*
X60788057Y-92710000D01*
X60815764Y-92991309D01*
X60897818Y-93261808D01*
X61031068Y-93511101D01*
X61210392Y-93729608D01*
X61428899Y-93908932D01*
X61561858Y-93980000D01*
X61428899Y-94051068D01*
X61210392Y-94230392D01*
X61031068Y-94448899D01*
X60897818Y-94698192D01*
X60815764Y-94968691D01*
X60788057Y-95250000D01*
X60815764Y-95531309D01*
X60897818Y-95801808D01*
X61031068Y-96051101D01*
X61210392Y-96269608D01*
X61428899Y-96448932D01*
X61561858Y-96520000D01*
X61428899Y-96591068D01*
X61210392Y-96770392D01*
X61031068Y-96988899D01*
X60897818Y-97238192D01*
X60815764Y-97508691D01*
X60788057Y-97790000D01*
X60815764Y-98071309D01*
X60897818Y-98341808D01*
X61031068Y-98591101D01*
X61210392Y-98809608D01*
X61428899Y-98988932D01*
X61561858Y-99060000D01*
X61428899Y-99131068D01*
X61210392Y-99310392D01*
X61031068Y-99528899D01*
X60897818Y-99778192D01*
X60815764Y-100048691D01*
X60788057Y-100330000D01*
X60815764Y-100611309D01*
X60897818Y-100881808D01*
X61031068Y-101131101D01*
X61210392Y-101349608D01*
X61428899Y-101528932D01*
X61561858Y-101600000D01*
X61428899Y-101671068D01*
X61210392Y-101850392D01*
X61031068Y-102068899D01*
X60897818Y-102318192D01*
X60815764Y-102588691D01*
X60788057Y-102870000D01*
X60815764Y-103151309D01*
X60897818Y-103421808D01*
X61031068Y-103671101D01*
X61210392Y-103889608D01*
X61428899Y-104068932D01*
X61561858Y-104140000D01*
X61428899Y-104211068D01*
X61210392Y-104390392D01*
X61031068Y-104608899D01*
X60897818Y-104858192D01*
X60815764Y-105128691D01*
X60788057Y-105410000D01*
X60815764Y-105691309D01*
X60897818Y-105961808D01*
X61031068Y-106211101D01*
X61210392Y-106429608D01*
X61428899Y-106608932D01*
X61561858Y-106680000D01*
X61428899Y-106751068D01*
X61210392Y-106930392D01*
X61031068Y-107148899D01*
X60897818Y-107398192D01*
X60815764Y-107668691D01*
X60788057Y-107950000D01*
X60815764Y-108231309D01*
X60897818Y-108501808D01*
X61031068Y-108751101D01*
X61210392Y-108969608D01*
X61428899Y-109148932D01*
X61561858Y-109220000D01*
X61428899Y-109291068D01*
X61210392Y-109470392D01*
X61031068Y-109688899D01*
X60897818Y-109938192D01*
X60815764Y-110208691D01*
X60788057Y-110490000D01*
X60815764Y-110771309D01*
X60897818Y-111041808D01*
X61031068Y-111291101D01*
X61210392Y-111509608D01*
X61428899Y-111688932D01*
X61561858Y-111760000D01*
X61428899Y-111831068D01*
X61210392Y-112010392D01*
X61031068Y-112228899D01*
X60897818Y-112478192D01*
X60815764Y-112748691D01*
X60788057Y-113030000D01*
X60815764Y-113311309D01*
X60897818Y-113581808D01*
X61031068Y-113831101D01*
X61210392Y-114049608D01*
X61428899Y-114228932D01*
X61561858Y-114300000D01*
X61428899Y-114371068D01*
X61210392Y-114550392D01*
X61031068Y-114768899D01*
X60897818Y-115018192D01*
X60815764Y-115288691D01*
X60788057Y-115570000D01*
X60815764Y-115851309D01*
X60897818Y-116121808D01*
X61031068Y-116371101D01*
X61210392Y-116589608D01*
X61428899Y-116768932D01*
X61561858Y-116840000D01*
X61428899Y-116911068D01*
X61210392Y-117090392D01*
X61031068Y-117308899D01*
X60897818Y-117558192D01*
X60815764Y-117828691D01*
X60788057Y-118110000D01*
X60815764Y-118391309D01*
X60897818Y-118661808D01*
X61031068Y-118911101D01*
X61210392Y-119129608D01*
X61428899Y-119308932D01*
X61561858Y-119380000D01*
X61428899Y-119451068D01*
X61210392Y-119630392D01*
X61031068Y-119848899D01*
X60897818Y-120098192D01*
X60815764Y-120368691D01*
X60788057Y-120650000D01*
X60815764Y-120931309D01*
X60897818Y-121201808D01*
X61031068Y-121451101D01*
X61210392Y-121669608D01*
X61428899Y-121848932D01*
X61561858Y-121920000D01*
X61428899Y-121991068D01*
X61210392Y-122170392D01*
X61031068Y-122388899D01*
X60897818Y-122638192D01*
X60815764Y-122908691D01*
X60788057Y-123190000D01*
X60815764Y-123471309D01*
X60897818Y-123741808D01*
X61031068Y-123991101D01*
X61210392Y-124209608D01*
X61428899Y-124388932D01*
X61678192Y-124522182D01*
X61948691Y-124604236D01*
X62159508Y-124625000D01*
X62300492Y-124625000D01*
X62511309Y-124604236D01*
X62781808Y-124522182D01*
X63031101Y-124388932D01*
X63249608Y-124209608D01*
X63428932Y-123991101D01*
X63562182Y-123741808D01*
X63644236Y-123471309D01*
X63671943Y-123190000D01*
X63644236Y-122908691D01*
X63630708Y-122864093D01*
X63959801Y-122535001D01*
X76192975Y-122535001D01*
X76137818Y-122638192D01*
X76055764Y-122908691D01*
X76028057Y-123190000D01*
X76055764Y-123471309D01*
X76137818Y-123741808D01*
X76271068Y-123991101D01*
X76450392Y-124209608D01*
X76668899Y-124388932D01*
X76918192Y-124522182D01*
X77188691Y-124604236D01*
X77399508Y-124625000D01*
X77540492Y-124625000D01*
X77751309Y-124604236D01*
X78021808Y-124522182D01*
X78271101Y-124388932D01*
X78489608Y-124209608D01*
X78668932Y-123991101D01*
X78802182Y-123741808D01*
X78884236Y-123471309D01*
X78911943Y-123190000D01*
X78884236Y-122908691D01*
X78802182Y-122638192D01*
X78747025Y-122535001D01*
X96151928Y-122535001D01*
X96151928Y-124190000D01*
X96164188Y-124314482D01*
X96200498Y-124434180D01*
X96259463Y-124544494D01*
X96338815Y-124641185D01*
X96435506Y-124720537D01*
X96545820Y-124779502D01*
X96665518Y-124815812D01*
X96790000Y-124828072D01*
X98790000Y-124828072D01*
X98914482Y-124815812D01*
X99034180Y-124779502D01*
X99144494Y-124720537D01*
X99241185Y-124641185D01*
X99320537Y-124544494D01*
X99379502Y-124434180D01*
X99412496Y-124325413D01*
X104434192Y-124325413D01*
X104529956Y-124589814D01*
X104819571Y-124730704D01*
X105131108Y-124812384D01*
X105452595Y-124831718D01*
X105771675Y-124787961D01*
X106076088Y-124682795D01*
X106250044Y-124589814D01*
X106345808Y-124325413D01*
X105390000Y-123369605D01*
X104434192Y-124325413D01*
X99412496Y-124325413D01*
X99415812Y-124314482D01*
X99428072Y-124190000D01*
X99428072Y-122535001D01*
X103890437Y-122535001D01*
X103849296Y-122619571D01*
X103767616Y-122931108D01*
X103748282Y-123252595D01*
X103792039Y-123571675D01*
X103897205Y-123876088D01*
X103990186Y-124050044D01*
X104254587Y-124145808D01*
X105210395Y-123190000D01*
X105196253Y-123175858D01*
X105375858Y-122996253D01*
X105390000Y-123010395D01*
X105404143Y-122996253D01*
X105583748Y-123175858D01*
X105569605Y-123190000D01*
X106525413Y-124145808D01*
X106789814Y-124050044D01*
X106930704Y-123760429D01*
X107012384Y-123448892D01*
X107031718Y-123127405D01*
X106987961Y-122808325D01*
X106893535Y-122535001D01*
X108057677Y-122535001D01*
X108094999Y-122538677D01*
X108132321Y-122535001D01*
X108132332Y-122535001D01*
X108243985Y-122524004D01*
X108387246Y-122480547D01*
X108519275Y-122409975D01*
X108635000Y-122315002D01*
X108658803Y-122285998D01*
X146167808Y-84776993D01*
X150352612Y-84776993D01*
X150418137Y-85015860D01*
X150665116Y-85131760D01*
X150929960Y-85197250D01*
X151202492Y-85209812D01*
X151472238Y-85168965D01*
X151728832Y-85076277D01*
X151841863Y-85015860D01*
X151907388Y-84776993D01*
X175752612Y-84776993D01*
X175818137Y-85015860D01*
X176065116Y-85131760D01*
X176329960Y-85197250D01*
X176602492Y-85209812D01*
X176872238Y-85168965D01*
X177128832Y-85076277D01*
X177241863Y-85015860D01*
X177307388Y-84776993D01*
X176530000Y-83999605D01*
X175752612Y-84776993D01*
X151907388Y-84776993D01*
X151130000Y-83999605D01*
X150352612Y-84776993D01*
X146167808Y-84776993D01*
X147052309Y-83892492D01*
X149740188Y-83892492D01*
X149781035Y-84162238D01*
X149873723Y-84418832D01*
X149934140Y-84531863D01*
X150173007Y-84597388D01*
X150950395Y-83820000D01*
X151309605Y-83820000D01*
X152086993Y-84597388D01*
X152325860Y-84531863D01*
X152441760Y-84284884D01*
X152507250Y-84020040D01*
X152513129Y-83892492D01*
X175140188Y-83892492D01*
X175181035Y-84162238D01*
X175273723Y-84418832D01*
X175334140Y-84531863D01*
X175573007Y-84597388D01*
X176350395Y-83820000D01*
X176709605Y-83820000D01*
X177486993Y-84597388D01*
X177725860Y-84531863D01*
X177841760Y-84284884D01*
X177907250Y-84020040D01*
X177919812Y-83747508D01*
X177878965Y-83477762D01*
X177786277Y-83221168D01*
X177725860Y-83108137D01*
X177486993Y-83042612D01*
X176709605Y-83820000D01*
X176350395Y-83820000D01*
X175573007Y-83042612D01*
X175334140Y-83108137D01*
X175218240Y-83355116D01*
X175152750Y-83619960D01*
X175140188Y-83892492D01*
X152513129Y-83892492D01*
X152519812Y-83747508D01*
X152478965Y-83477762D01*
X152386277Y-83221168D01*
X152325860Y-83108137D01*
X152086993Y-83042612D01*
X151309605Y-83820000D01*
X150950395Y-83820000D01*
X150173007Y-83042612D01*
X149934140Y-83108137D01*
X149818240Y-83355116D01*
X149752750Y-83619960D01*
X149740188Y-83892492D01*
X147052309Y-83892492D01*
X149745000Y-81199802D01*
X149745000Y-81416411D01*
X149798225Y-81683989D01*
X149902629Y-81936043D01*
X150054201Y-82162886D01*
X150247114Y-82355799D01*
X150473957Y-82507371D01*
X150573279Y-82548511D01*
X150531168Y-82563723D01*
X150418137Y-82624140D01*
X150352612Y-82863007D01*
X151130000Y-83640395D01*
X151907388Y-82863007D01*
X151841863Y-82624140D01*
X151683523Y-82549836D01*
X151786043Y-82507371D01*
X152012886Y-82355799D01*
X152205799Y-82162886D01*
X152357371Y-81936043D01*
X152461775Y-81683989D01*
X152515000Y-81416411D01*
X152515000Y-81143589D01*
X152461775Y-80876011D01*
X152357371Y-80623957D01*
X152205799Y-80397114D01*
X152012886Y-80204201D01*
X151786043Y-80052629D01*
X151683127Y-80010000D01*
X151786043Y-79967371D01*
X152012886Y-79815799D01*
X152205799Y-79622886D01*
X152357371Y-79396043D01*
X152461775Y-79143989D01*
X152515000Y-78876411D01*
X152515000Y-78603589D01*
X152461775Y-78336011D01*
X152357371Y-78083957D01*
X152205799Y-77857114D01*
X152012886Y-77664201D01*
X151896517Y-77586445D01*
X152004482Y-77575812D01*
X152124180Y-77539502D01*
X152234494Y-77480537D01*
X152331185Y-77401185D01*
X152410537Y-77304494D01*
X152469502Y-77194180D01*
X152505812Y-77074482D01*
X152518072Y-76950000D01*
X152518072Y-75450000D01*
X175141928Y-75450000D01*
X175141928Y-76950000D01*
X175154188Y-77074482D01*
X175190498Y-77194180D01*
X175249463Y-77304494D01*
X175328815Y-77401185D01*
X175425506Y-77480537D01*
X175535820Y-77539502D01*
X175655518Y-77575812D01*
X175763483Y-77586445D01*
X175647114Y-77664201D01*
X175454201Y-77857114D01*
X175302629Y-78083957D01*
X175198225Y-78336011D01*
X175145000Y-78603589D01*
X175145000Y-78876411D01*
X175198225Y-79143989D01*
X175302629Y-79396043D01*
X175454201Y-79622886D01*
X175647114Y-79815799D01*
X175873957Y-79967371D01*
X175976873Y-80010000D01*
X175873957Y-80052629D01*
X175647114Y-80204201D01*
X175454201Y-80397114D01*
X175302629Y-80623957D01*
X175198225Y-80876011D01*
X175145000Y-81143589D01*
X175145000Y-81416411D01*
X175198225Y-81683989D01*
X175302629Y-81936043D01*
X175454201Y-82162886D01*
X175647114Y-82355799D01*
X175873957Y-82507371D01*
X175973279Y-82548511D01*
X175931168Y-82563723D01*
X175818137Y-82624140D01*
X175752612Y-82863007D01*
X176530000Y-83640395D01*
X177307388Y-82863007D01*
X177241863Y-82624140D01*
X177083523Y-82549836D01*
X177186043Y-82507371D01*
X177412886Y-82355799D01*
X177605799Y-82162886D01*
X177757371Y-81936043D01*
X177861775Y-81683989D01*
X177915000Y-81416411D01*
X177915000Y-81143589D01*
X177861775Y-80876011D01*
X177757371Y-80623957D01*
X177605799Y-80397114D01*
X177412886Y-80204201D01*
X177186043Y-80052629D01*
X177083127Y-80010000D01*
X177186043Y-79967371D01*
X177412886Y-79815799D01*
X177605799Y-79622886D01*
X177757371Y-79396043D01*
X177861775Y-79143989D01*
X177915000Y-78876411D01*
X177915000Y-78603589D01*
X177861775Y-78336011D01*
X177757371Y-78083957D01*
X177605799Y-77857114D01*
X177412886Y-77664201D01*
X177296517Y-77586445D01*
X177404482Y-77575812D01*
X177524180Y-77539502D01*
X177634494Y-77480537D01*
X177731185Y-77401185D01*
X177810537Y-77304494D01*
X177869502Y-77194180D01*
X177905812Y-77074482D01*
X177918072Y-76950000D01*
X177918072Y-75450000D01*
X177905812Y-75325518D01*
X177869502Y-75205820D01*
X177810537Y-75095506D01*
X177731185Y-74998815D01*
X177634494Y-74919463D01*
X177524180Y-74860498D01*
X177404482Y-74824188D01*
X177280000Y-74811928D01*
X175780000Y-74811928D01*
X175655518Y-74824188D01*
X175535820Y-74860498D01*
X175425506Y-74919463D01*
X175328815Y-74998815D01*
X175249463Y-75095506D01*
X175190498Y-75205820D01*
X175154188Y-75325518D01*
X175141928Y-75450000D01*
X152518072Y-75450000D01*
X152505812Y-75325518D01*
X152469502Y-75205820D01*
X152410537Y-75095506D01*
X152331185Y-74998815D01*
X152234494Y-74919463D01*
X152124180Y-74860498D01*
X152004482Y-74824188D01*
X151880000Y-74811928D01*
X150380000Y-74811928D01*
X150255518Y-74824188D01*
X150135820Y-74860498D01*
X150025506Y-74919463D01*
X149928815Y-74998815D01*
X149849463Y-75095506D01*
X149790498Y-75205820D01*
X149754188Y-75325518D01*
X149741928Y-75450000D01*
X149741928Y-76950000D01*
X149754188Y-77074482D01*
X149790498Y-77194180D01*
X149849463Y-77304494D01*
X149928815Y-77401185D01*
X150025506Y-77480537D01*
X150135820Y-77539502D01*
X150255518Y-77575812D01*
X150363483Y-77586445D01*
X150247114Y-77664201D01*
X150054201Y-77857114D01*
X149902629Y-78083957D01*
X149798225Y-78336011D01*
X149745000Y-78603589D01*
X149745000Y-78876411D01*
X149773833Y-79021365D01*
X107780198Y-121015001D01*
X78858849Y-121015001D01*
X78884236Y-120931309D01*
X78911943Y-120650000D01*
X78884236Y-120368691D01*
X78802182Y-120098192D01*
X78668932Y-119848899D01*
X78489608Y-119630392D01*
X78271101Y-119451068D01*
X78138142Y-119380000D01*
X78271101Y-119308932D01*
X78489608Y-119129608D01*
X78668932Y-118911101D01*
X78802182Y-118661808D01*
X78884236Y-118391309D01*
X78911943Y-118110000D01*
X78884236Y-117828691D01*
X78802182Y-117558192D01*
X78668932Y-117308899D01*
X78489608Y-117090392D01*
X78271101Y-116911068D01*
X78138142Y-116840000D01*
X78271101Y-116768932D01*
X78489608Y-116589608D01*
X78668932Y-116371101D01*
X78802182Y-116121808D01*
X78884236Y-115851309D01*
X78911943Y-115570000D01*
X78884236Y-115288691D01*
X78802182Y-115018192D01*
X78668932Y-114768899D01*
X78489608Y-114550392D01*
X78271101Y-114371068D01*
X78138142Y-114300000D01*
X78271101Y-114228932D01*
X78489608Y-114049608D01*
X78668932Y-113831101D01*
X78802182Y-113581808D01*
X78884236Y-113311309D01*
X78911943Y-113030000D01*
X78884236Y-112748691D01*
X78802182Y-112478192D01*
X78668932Y-112228899D01*
X78489608Y-112010392D01*
X78271101Y-111831068D01*
X78138142Y-111760000D01*
X78271101Y-111688932D01*
X78489608Y-111509608D01*
X78668932Y-111291101D01*
X78802182Y-111041808D01*
X78884236Y-110771309D01*
X78911943Y-110490000D01*
X78884236Y-110208691D01*
X78802182Y-109938192D01*
X78668932Y-109688899D01*
X78489608Y-109470392D01*
X78271101Y-109291068D01*
X78138142Y-109220000D01*
X78271101Y-109148932D01*
X78489608Y-108969608D01*
X78668932Y-108751101D01*
X78802182Y-108501808D01*
X78884236Y-108231309D01*
X78911943Y-107950000D01*
X78884236Y-107668691D01*
X78802182Y-107398192D01*
X78668932Y-107148899D01*
X78489608Y-106930392D01*
X78271101Y-106751068D01*
X78138142Y-106680000D01*
X78271101Y-106608932D01*
X78489608Y-106429608D01*
X78668932Y-106211101D01*
X78802182Y-105961808D01*
X78884236Y-105691309D01*
X78911943Y-105410000D01*
X78884236Y-105128691D01*
X78802182Y-104858192D01*
X78668932Y-104608899D01*
X78489608Y-104390392D01*
X78271101Y-104211068D01*
X78138142Y-104140000D01*
X78271101Y-104068932D01*
X78489608Y-103889608D01*
X78668932Y-103671101D01*
X78802182Y-103421808D01*
X78884236Y-103151309D01*
X78911943Y-102870000D01*
X78884236Y-102588691D01*
X78868922Y-102538206D01*
X78904972Y-102494278D01*
X78904973Y-102494277D01*
X78975545Y-102362248D01*
X79019002Y-102218986D01*
X79029999Y-102107333D01*
X79029999Y-102107325D01*
X79033675Y-102070002D01*
X79032789Y-102061010D01*
X96316806Y-84776993D01*
X102092612Y-84776993D01*
X102158137Y-85015860D01*
X102405116Y-85131760D01*
X102669960Y-85197250D01*
X102942492Y-85209812D01*
X103212238Y-85168965D01*
X103468832Y-85076277D01*
X103581863Y-85015860D01*
X103647388Y-84776993D01*
X127492612Y-84776993D01*
X127558137Y-85015860D01*
X127805116Y-85131760D01*
X128069960Y-85197250D01*
X128342492Y-85209812D01*
X128612238Y-85168965D01*
X128868832Y-85076277D01*
X128981863Y-85015860D01*
X129047388Y-84776993D01*
X128270000Y-83999605D01*
X127492612Y-84776993D01*
X103647388Y-84776993D01*
X102870000Y-83999605D01*
X102092612Y-84776993D01*
X96316806Y-84776993D01*
X97201308Y-83892492D01*
X101480188Y-83892492D01*
X101521035Y-84162238D01*
X101613723Y-84418832D01*
X101674140Y-84531863D01*
X101913007Y-84597388D01*
X102690395Y-83820000D01*
X103049605Y-83820000D01*
X103826993Y-84597388D01*
X104065860Y-84531863D01*
X104181760Y-84284884D01*
X104247250Y-84020040D01*
X104253129Y-83892492D01*
X126880188Y-83892492D01*
X126921035Y-84162238D01*
X127013723Y-84418832D01*
X127074140Y-84531863D01*
X127313007Y-84597388D01*
X128090395Y-83820000D01*
X128449605Y-83820000D01*
X129226993Y-84597388D01*
X129465860Y-84531863D01*
X129581760Y-84284884D01*
X129647250Y-84020040D01*
X129659812Y-83747508D01*
X129618965Y-83477762D01*
X129526277Y-83221168D01*
X129465860Y-83108137D01*
X129226993Y-83042612D01*
X128449605Y-83820000D01*
X128090395Y-83820000D01*
X127313007Y-83042612D01*
X127074140Y-83108137D01*
X126958240Y-83355116D01*
X126892750Y-83619960D01*
X126880188Y-83892492D01*
X104253129Y-83892492D01*
X104259812Y-83747508D01*
X104218965Y-83477762D01*
X104126277Y-83221168D01*
X104065860Y-83108137D01*
X103826993Y-83042612D01*
X103049605Y-83820000D01*
X102690395Y-83820000D01*
X101913007Y-83042612D01*
X101674140Y-83108137D01*
X101558240Y-83355116D01*
X101492750Y-83619960D01*
X101480188Y-83892492D01*
X97201308Y-83892492D01*
X101664711Y-79429090D01*
X101794201Y-79622886D01*
X101987114Y-79815799D01*
X102213957Y-79967371D01*
X102316873Y-80010000D01*
X102213957Y-80052629D01*
X101987114Y-80204201D01*
X101794201Y-80397114D01*
X101642629Y-80623957D01*
X101538225Y-80876011D01*
X101485000Y-81143589D01*
X101485000Y-81416411D01*
X101538225Y-81683989D01*
X101642629Y-81936043D01*
X101794201Y-82162886D01*
X101987114Y-82355799D01*
X102213957Y-82507371D01*
X102313279Y-82548511D01*
X102271168Y-82563723D01*
X102158137Y-82624140D01*
X102092612Y-82863007D01*
X102870000Y-83640395D01*
X103647388Y-82863007D01*
X103581863Y-82624140D01*
X103423523Y-82549836D01*
X103526043Y-82507371D01*
X103752886Y-82355799D01*
X103945799Y-82162886D01*
X104097371Y-81936043D01*
X104201775Y-81683989D01*
X104255000Y-81416411D01*
X104255000Y-81143589D01*
X104201775Y-80876011D01*
X104097371Y-80623957D01*
X103945799Y-80397114D01*
X103752886Y-80204201D01*
X103526043Y-80052629D01*
X103423127Y-80010000D01*
X103526043Y-79967371D01*
X103752886Y-79815799D01*
X103945799Y-79622886D01*
X104097371Y-79396043D01*
X104201775Y-79143989D01*
X104255000Y-78876411D01*
X104255000Y-78603589D01*
X104219476Y-78424999D01*
X126880198Y-78424999D01*
X126913833Y-78458635D01*
X126885000Y-78603589D01*
X126885000Y-78876411D01*
X126938225Y-79143989D01*
X127042629Y-79396043D01*
X127194201Y-79622886D01*
X127387114Y-79815799D01*
X127613957Y-79967371D01*
X127716873Y-80010000D01*
X127613957Y-80052629D01*
X127387114Y-80204201D01*
X127194201Y-80397114D01*
X127042629Y-80623957D01*
X126938225Y-80876011D01*
X126885000Y-81143589D01*
X126885000Y-81416411D01*
X126938225Y-81683989D01*
X127042629Y-81936043D01*
X127194201Y-82162886D01*
X127387114Y-82355799D01*
X127613957Y-82507371D01*
X127713279Y-82548511D01*
X127671168Y-82563723D01*
X127558137Y-82624140D01*
X127492612Y-82863007D01*
X128270000Y-83640395D01*
X129047388Y-82863007D01*
X128981863Y-82624140D01*
X128823523Y-82549836D01*
X128926043Y-82507371D01*
X129152886Y-82355799D01*
X129345799Y-82162886D01*
X129497371Y-81936043D01*
X129601775Y-81683989D01*
X129655000Y-81416411D01*
X129655000Y-81143589D01*
X129601775Y-80876011D01*
X129497371Y-80623957D01*
X129345799Y-80397114D01*
X129152886Y-80204201D01*
X128926043Y-80052629D01*
X128823127Y-80010000D01*
X128926043Y-79967371D01*
X129152886Y-79815799D01*
X129345799Y-79622886D01*
X129497371Y-79396043D01*
X129601775Y-79143989D01*
X129655000Y-78876411D01*
X129655000Y-78603589D01*
X129601775Y-78336011D01*
X129497371Y-78083957D01*
X129345799Y-77857114D01*
X129152886Y-77664201D01*
X129036517Y-77586445D01*
X129144482Y-77575812D01*
X129264180Y-77539502D01*
X129374494Y-77480537D01*
X129471185Y-77401185D01*
X129550537Y-77304494D01*
X129609502Y-77194180D01*
X129645812Y-77074482D01*
X129658072Y-76950000D01*
X129658072Y-75450000D01*
X129645812Y-75325518D01*
X129609502Y-75205820D01*
X129550537Y-75095506D01*
X129471185Y-74998815D01*
X129374494Y-74919463D01*
X129264180Y-74860498D01*
X129144482Y-74824188D01*
X129020000Y-74811928D01*
X127520000Y-74811928D01*
X127395518Y-74824188D01*
X127275820Y-74860498D01*
X127165506Y-74919463D01*
X127068815Y-74998815D01*
X126989463Y-75095506D01*
X126930498Y-75205820D01*
X126894188Y-75325518D01*
X126881928Y-75450000D01*
X126881928Y-76904999D01*
X104258072Y-76904999D01*
X104258072Y-75450000D01*
X104245812Y-75325518D01*
X104209502Y-75205820D01*
X104150537Y-75095506D01*
X104071185Y-74998815D01*
X103974494Y-74919463D01*
X103864180Y-74860498D01*
X103744482Y-74824188D01*
X103620000Y-74811928D01*
X102120000Y-74811928D01*
X101995518Y-74824188D01*
X101875820Y-74860498D01*
X101765506Y-74919463D01*
X101668815Y-74998815D01*
X101589463Y-75095506D01*
X101530498Y-75205820D01*
X101494188Y-75325518D01*
X101481928Y-75450000D01*
X101481928Y-76950000D01*
X101494188Y-77074482D01*
X101530498Y-77194180D01*
X101589463Y-77304494D01*
X101612108Y-77332087D01*
X78885246Y-100058950D01*
X78884236Y-100048691D01*
X78802182Y-99778192D01*
X78668932Y-99528899D01*
X78489608Y-99310392D01*
X78271101Y-99131068D01*
X78138142Y-99060000D01*
X78271101Y-98988932D01*
X78489608Y-98809608D01*
X78668932Y-98591101D01*
X78802182Y-98341808D01*
X78884236Y-98071309D01*
X78911943Y-97790000D01*
X78884236Y-97508691D01*
X78802182Y-97238192D01*
X78668932Y-96988899D01*
X78489608Y-96770392D01*
X78271101Y-96591068D01*
X78138142Y-96520000D01*
X78271101Y-96448932D01*
X78489608Y-96269608D01*
X78668932Y-96051101D01*
X78802182Y-95801808D01*
X78884236Y-95531309D01*
X78911943Y-95250000D01*
X78884236Y-94968691D01*
X78802182Y-94698192D01*
X78668932Y-94448899D01*
X78489608Y-94230392D01*
X78271101Y-94051068D01*
X78138142Y-93980000D01*
X78271101Y-93908932D01*
X78489608Y-93729608D01*
X78668932Y-93511101D01*
X78802182Y-93261808D01*
X78884236Y-92991309D01*
X78911943Y-92710000D01*
X78884236Y-92428691D01*
X78802182Y-92158192D01*
X78668932Y-91908899D01*
X78489608Y-91690392D01*
X78271101Y-91511068D01*
X78133318Y-91437421D01*
X78325131Y-91322385D01*
X78533519Y-91133414D01*
X78701037Y-90907420D01*
X78821246Y-90653087D01*
X78861904Y-90519039D01*
X78739915Y-90297000D01*
X77597000Y-90297000D01*
X77597000Y-90317000D01*
X77343000Y-90317000D01*
X77343000Y-90297000D01*
X76200085Y-90297000D01*
X76078096Y-90519039D01*
X76118754Y-90653087D01*
X76238963Y-90907420D01*
X76406481Y-91133414D01*
X76614869Y-91322385D01*
X76806682Y-91437421D01*
X76668899Y-91511068D01*
X76450392Y-91690392D01*
X76271068Y-91908899D01*
X76137818Y-92158192D01*
X76055764Y-92428691D01*
X76028057Y-92710000D01*
X76055764Y-92991309D01*
X76137818Y-93261808D01*
X76271068Y-93511101D01*
X76450392Y-93729608D01*
X76668899Y-93908932D01*
X76801858Y-93980000D01*
X76668899Y-94051068D01*
X76450392Y-94230392D01*
X76271068Y-94448899D01*
X76137818Y-94698192D01*
X76055764Y-94968691D01*
X76028057Y-95250000D01*
X76055764Y-95531309D01*
X76137818Y-95801808D01*
X76271068Y-96051101D01*
X76450392Y-96269608D01*
X76668899Y-96448932D01*
X76801858Y-96520000D01*
X76668899Y-96591068D01*
X76450392Y-96770392D01*
X76271068Y-96988899D01*
X76137818Y-97238192D01*
X76055764Y-97508691D01*
X76028057Y-97790000D01*
X76055764Y-98071309D01*
X76137818Y-98341808D01*
X76271068Y-98591101D01*
X76450392Y-98809608D01*
X76668899Y-98988932D01*
X76801858Y-99060000D01*
X76668899Y-99131068D01*
X76450392Y-99310392D01*
X76271068Y-99528899D01*
X76137818Y-99778192D01*
X76055764Y-100048691D01*
X76028057Y-100330000D01*
X76055764Y-100611309D01*
X76137818Y-100881808D01*
X76271068Y-101131101D01*
X76450392Y-101349608D01*
X76668899Y-101528932D01*
X76801858Y-101600000D01*
X76668899Y-101671068D01*
X76450392Y-101850392D01*
X76271068Y-102068899D01*
X76137818Y-102318192D01*
X76055764Y-102588691D01*
X76028057Y-102870000D01*
X76055764Y-103151309D01*
X76137818Y-103421808D01*
X76271068Y-103671101D01*
X76450392Y-103889608D01*
X76668899Y-104068932D01*
X76801858Y-104140000D01*
X76668899Y-104211068D01*
X76450392Y-104390392D01*
X76271068Y-104608899D01*
X76137818Y-104858192D01*
X76055764Y-105128691D01*
X76028057Y-105410000D01*
X76055764Y-105691309D01*
X76137818Y-105961808D01*
X76271068Y-106211101D01*
X76450392Y-106429608D01*
X76668899Y-106608932D01*
X76801858Y-106680000D01*
X76668899Y-106751068D01*
X76450392Y-106930392D01*
X76271068Y-107148899D01*
X76137818Y-107398192D01*
X76055764Y-107668691D01*
X76028057Y-107950000D01*
X76055764Y-108231309D01*
X76137818Y-108501808D01*
X76271068Y-108751101D01*
X76450392Y-108969608D01*
X76668899Y-109148932D01*
X76801858Y-109220000D01*
X76668899Y-109291068D01*
X76450392Y-109470392D01*
X76271068Y-109688899D01*
X76137818Y-109938192D01*
X76055764Y-110208691D01*
X76028057Y-110490000D01*
X76055764Y-110771309D01*
X76137818Y-111041808D01*
X76271068Y-111291101D01*
X76450392Y-111509608D01*
X76668899Y-111688932D01*
X76801858Y-111760000D01*
X76668899Y-111831068D01*
X76450392Y-112010392D01*
X76271068Y-112228899D01*
X76137818Y-112478192D01*
X76055764Y-112748691D01*
X76028057Y-113030000D01*
X76055764Y-113311309D01*
X76137818Y-113581808D01*
X76271068Y-113831101D01*
X76450392Y-114049608D01*
X76668899Y-114228932D01*
X76801858Y-114300000D01*
X76668899Y-114371068D01*
X76450392Y-114550392D01*
X76271068Y-114768899D01*
X76137818Y-115018192D01*
X76055764Y-115288691D01*
X76028057Y-115570000D01*
X76055764Y-115851309D01*
X76137818Y-116121808D01*
X76271068Y-116371101D01*
X76450392Y-116589608D01*
X76668899Y-116768932D01*
X76801858Y-116840000D01*
X76668899Y-116911068D01*
X76450392Y-117090392D01*
X76271068Y-117308899D01*
X76137818Y-117558192D01*
X76055764Y-117828691D01*
X76028057Y-118110000D01*
X76055764Y-118391309D01*
X76137818Y-118661808D01*
X76271068Y-118911101D01*
X76450392Y-119129608D01*
X76668899Y-119308932D01*
X76801858Y-119380000D01*
X76668899Y-119451068D01*
X76450392Y-119630392D01*
X76271068Y-119848899D01*
X76137818Y-120098192D01*
X76055764Y-120368691D01*
X76028057Y-120650000D01*
X76055764Y-120931309D01*
X76081151Y-121015001D01*
X63682321Y-121015001D01*
X63644998Y-121011325D01*
X63619193Y-121013867D01*
X63644236Y-120931309D01*
X63671943Y-120650000D01*
X63644236Y-120368691D01*
X63562182Y-120098192D01*
X63428932Y-119848899D01*
X63249608Y-119630392D01*
X63031101Y-119451068D01*
X62898142Y-119380000D01*
X63031101Y-119308932D01*
X63249608Y-119129608D01*
X63428932Y-118911101D01*
X63562182Y-118661808D01*
X63644236Y-118391309D01*
X63671943Y-118110000D01*
X63644236Y-117828691D01*
X63562182Y-117558192D01*
X63428932Y-117308899D01*
X63249608Y-117090392D01*
X63031101Y-116911068D01*
X62898142Y-116840000D01*
X63031101Y-116768932D01*
X63249608Y-116589608D01*
X63428932Y-116371101D01*
X63562182Y-116121808D01*
X63644236Y-115851309D01*
X63671943Y-115570000D01*
X63644236Y-115288691D01*
X63562182Y-115018192D01*
X63428932Y-114768899D01*
X63249608Y-114550392D01*
X63031101Y-114371068D01*
X62898142Y-114300000D01*
X63031101Y-114228932D01*
X63249608Y-114049608D01*
X63428932Y-113831101D01*
X63562182Y-113581808D01*
X63644236Y-113311309D01*
X63671943Y-113030000D01*
X63644236Y-112748691D01*
X63562182Y-112478192D01*
X63428932Y-112228899D01*
X63249608Y-112010392D01*
X63031101Y-111831068D01*
X62898142Y-111760000D01*
X63031101Y-111688932D01*
X63249608Y-111509608D01*
X63428932Y-111291101D01*
X63562182Y-111041808D01*
X63644236Y-110771309D01*
X63671943Y-110490000D01*
X63644236Y-110208691D01*
X63562182Y-109938192D01*
X63428932Y-109688899D01*
X63249608Y-109470392D01*
X63031101Y-109291068D01*
X62898142Y-109220000D01*
X63031101Y-109148932D01*
X63249608Y-108969608D01*
X63428932Y-108751101D01*
X63562182Y-108501808D01*
X63644236Y-108231309D01*
X63671943Y-107950000D01*
X63644236Y-107668691D01*
X63562182Y-107398192D01*
X63428932Y-107148899D01*
X63249608Y-106930392D01*
X63031101Y-106751068D01*
X62898142Y-106680000D01*
X63031101Y-106608932D01*
X63249608Y-106429608D01*
X63428932Y-106211101D01*
X63562182Y-105961808D01*
X63644236Y-105691309D01*
X63671943Y-105410000D01*
X63644236Y-105128691D01*
X63562182Y-104858192D01*
X63428932Y-104608899D01*
X63249608Y-104390392D01*
X63031101Y-104211068D01*
X62898142Y-104140000D01*
X63031101Y-104068932D01*
X63249608Y-103889608D01*
X63428932Y-103671101D01*
X63562182Y-103421808D01*
X63644236Y-103151309D01*
X63671943Y-102870000D01*
X63644236Y-102588691D01*
X63562182Y-102318192D01*
X63428932Y-102068899D01*
X63249608Y-101850392D01*
X63031101Y-101671068D01*
X62898142Y-101600000D01*
X63031101Y-101528932D01*
X63249608Y-101349608D01*
X63428932Y-101131101D01*
X63562182Y-100881808D01*
X63644236Y-100611309D01*
X63671943Y-100330000D01*
X63644236Y-100048691D01*
X63562182Y-99778192D01*
X63428932Y-99528899D01*
X63249608Y-99310392D01*
X63031101Y-99131068D01*
X62898142Y-99060000D01*
X63031101Y-98988932D01*
X63249608Y-98809608D01*
X63428932Y-98591101D01*
X63562182Y-98341808D01*
X63644236Y-98071309D01*
X63671943Y-97790000D01*
X63644236Y-97508691D01*
X63562182Y-97238192D01*
X63428932Y-96988899D01*
X63249608Y-96770392D01*
X63031101Y-96591068D01*
X62898142Y-96520000D01*
X63031101Y-96448932D01*
X63249608Y-96269608D01*
X63428932Y-96051101D01*
X63562182Y-95801808D01*
X63644236Y-95531309D01*
X63671943Y-95250000D01*
X63644236Y-94968691D01*
X63562182Y-94698192D01*
X63428932Y-94448899D01*
X63249608Y-94230392D01*
X63031101Y-94051068D01*
X62898142Y-93980000D01*
X63031101Y-93908932D01*
X63249608Y-93729608D01*
X63428932Y-93511101D01*
X63562182Y-93261808D01*
X63644236Y-92991309D01*
X63671943Y-92710000D01*
X63644236Y-92428691D01*
X63562182Y-92158192D01*
X63428932Y-91908899D01*
X63249608Y-91690392D01*
X63031101Y-91511068D01*
X62898142Y-91440000D01*
X63031101Y-91368932D01*
X63249608Y-91189608D01*
X63428932Y-90971101D01*
X63562182Y-90721808D01*
X63644236Y-90451309D01*
X63671943Y-90170000D01*
X63644236Y-89888691D01*
X63562182Y-89618192D01*
X63428932Y-89368899D01*
X63249608Y-89150392D01*
X63136518Y-89057581D01*
X63154482Y-89055812D01*
X63274180Y-89019502D01*
X63384494Y-88960537D01*
X63481185Y-88881185D01*
X63560537Y-88784494D01*
X63619502Y-88674180D01*
X63655812Y-88554482D01*
X63668072Y-88430000D01*
X63668072Y-87630000D01*
X76028057Y-87630000D01*
X76055764Y-87911309D01*
X76137818Y-88181808D01*
X76271068Y-88431101D01*
X76450392Y-88649608D01*
X76668899Y-88828932D01*
X76806682Y-88902579D01*
X76614869Y-89017615D01*
X76406481Y-89206586D01*
X76238963Y-89432580D01*
X76118754Y-89686913D01*
X76078096Y-89820961D01*
X76200085Y-90043000D01*
X77343000Y-90043000D01*
X77343000Y-90023000D01*
X77597000Y-90023000D01*
X77597000Y-90043000D01*
X78739915Y-90043000D01*
X78861904Y-89820961D01*
X78821246Y-89686913D01*
X78701037Y-89432580D01*
X78533519Y-89206586D01*
X78325131Y-89017615D01*
X78133318Y-88902579D01*
X78271101Y-88828932D01*
X78489608Y-88649608D01*
X78668932Y-88431101D01*
X78802182Y-88181808D01*
X78884236Y-87911309D01*
X78911943Y-87630000D01*
X78884236Y-87348691D01*
X78802182Y-87078192D01*
X78668932Y-86828899D01*
X78489608Y-86610392D01*
X78271101Y-86431068D01*
X78021808Y-86297818D01*
X77751309Y-86215764D01*
X77540492Y-86195000D01*
X77399508Y-86195000D01*
X77188691Y-86215764D01*
X76918192Y-86297818D01*
X76668899Y-86431068D01*
X76450392Y-86610392D01*
X76271068Y-86828899D01*
X76137818Y-87078192D01*
X76055764Y-87348691D01*
X76028057Y-87630000D01*
X63668072Y-87630000D01*
X63668072Y-86830000D01*
X63655812Y-86705518D01*
X63619502Y-86585820D01*
X63560537Y-86475506D01*
X63481185Y-86378815D01*
X63384494Y-86299463D01*
X63274180Y-86240498D01*
X63154482Y-86204188D01*
X63030000Y-86191928D01*
X61430000Y-86191928D01*
X61305518Y-86204188D01*
X61185820Y-86240498D01*
X61075506Y-86299463D01*
X60978815Y-86378815D01*
X60899463Y-86475506D01*
X60840498Y-86585820D01*
X60804188Y-86705518D01*
X60791928Y-86830000D01*
X60791928Y-88430000D01*
X60804188Y-88554482D01*
X60840498Y-88674180D01*
X60899463Y-88784494D01*
X60978815Y-88881185D01*
X61075506Y-88960537D01*
X61185820Y-89019502D01*
X61305518Y-89055812D01*
X61323482Y-89057581D01*
X61210392Y-89150392D01*
X61031068Y-89368899D01*
X60897818Y-89618192D01*
X60815764Y-89888691D01*
X60788057Y-90170000D01*
X52197000Y-90170000D01*
X52197000Y-63627000D01*
X190373000Y-63627000D01*
X190373000Y-138303000D01*
M02*
