M48
; DRILL file {KiCad (5.1.0)-1} date 10/21/2019 1:59:40 PM
; FORMAT={-:-/ absolute / metric / decimal}
; #@! TF.CreationDate,2019-10-21T13:59:40-04:00
; #@! TF.GenerationSoftware,Kicad,Pcbnew,(5.1.0)-1
FMAT,2
METRIC
T1C0.800
T2C1.000
%
G90
G05
T1
X151.13Y-76.2
X151.13Y-78.74
X151.13Y-81.28
X151.13Y-83.82
X102.87Y-76.2
X102.87Y-78.74
X102.87Y-81.28
X102.87Y-83.82
X62.23Y-87.63
X62.23Y-90.17
X62.23Y-92.71
X62.23Y-95.25
X62.23Y-97.79
X62.23Y-100.33
X62.23Y-102.87
X62.23Y-105.41
X62.23Y-107.95
X62.23Y-110.49
X62.23Y-113.03
X62.23Y-115.57
X62.23Y-118.11
X62.23Y-120.65
X62.23Y-123.19
X77.47Y-87.63
X77.47Y-90.17
X77.47Y-92.71
X77.47Y-95.25
X77.47Y-97.79
X77.47Y-100.33
X77.47Y-102.87
X77.47Y-105.41
X77.47Y-107.95
X77.47Y-110.49
X77.47Y-113.03
X77.47Y-115.57
X77.47Y-118.11
X77.47Y-120.65
X77.47Y-123.19
X176.53Y-76.2
X176.53Y-78.74
X176.53Y-81.28
X176.53Y-83.82
X128.27Y-76.2
X128.27Y-78.74
X128.27Y-81.28
X128.27Y-83.82
T2
X97.79Y-123.19
X105.39Y-123.19
T0
M30
