G04 #@! TF.GenerationSoftware,KiCad,Pcbnew,(5.1.0)-1*
G04 #@! TF.CreationDate,2019-10-21T13:58:11-04:00*
G04 #@! TF.ProjectId,PCB_NEW,5043425f-4e45-4572-9e6b-696361645f70,rev?*
G04 #@! TF.SameCoordinates,Original*
G04 #@! TF.FileFunction,Soldermask,Top*
G04 #@! TF.FilePolarity,Negative*
%FSLAX46Y46*%
G04 Gerber Fmt 4.6, Leading zero omitted, Abs format (unit mm)*
G04 Created by KiCad (PCBNEW (5.1.0)-1) date 2019-10-21 13:58:11*
%MOMM*%
%LPD*%
G04 APERTURE LIST*
%ADD10C,0.100000*%
G04 APERTURE END LIST*
D10*
G36*
X105696564Y-122179389D02*
G01*
X105887833Y-122258615D01*
X105887835Y-122258616D01*
X106008138Y-122339000D01*
X106059973Y-122373635D01*
X106206365Y-122520027D01*
X106321385Y-122692167D01*
X106400611Y-122883436D01*
X106441000Y-123086484D01*
X106441000Y-123293516D01*
X106400611Y-123496564D01*
X106330811Y-123665076D01*
X106321384Y-123687835D01*
X106206365Y-123859973D01*
X106059973Y-124006365D01*
X105887835Y-124121384D01*
X105887834Y-124121385D01*
X105887833Y-124121385D01*
X105696564Y-124200611D01*
X105493516Y-124241000D01*
X105286484Y-124241000D01*
X105083436Y-124200611D01*
X104892167Y-124121385D01*
X104892166Y-124121385D01*
X104892165Y-124121384D01*
X104720027Y-124006365D01*
X104573635Y-123859973D01*
X104458616Y-123687835D01*
X104449189Y-123665076D01*
X104379389Y-123496564D01*
X104339000Y-123293516D01*
X104339000Y-123086484D01*
X104379389Y-122883436D01*
X104458615Y-122692167D01*
X104573635Y-122520027D01*
X104720027Y-122373635D01*
X104771862Y-122339000D01*
X104892165Y-122258616D01*
X104892167Y-122258615D01*
X105083436Y-122179389D01*
X105286484Y-122139000D01*
X105493516Y-122139000D01*
X105696564Y-122179389D01*
X105696564Y-122179389D01*
G37*
G36*
X98841000Y-124241000D02*
G01*
X96739000Y-124241000D01*
X96739000Y-122139000D01*
X98841000Y-122139000D01*
X98841000Y-124241000D01*
X98841000Y-124241000D01*
G37*
G36*
X62396823Y-122351313D02*
G01*
X62557242Y-122399976D01*
X62689906Y-122470886D01*
X62705078Y-122478996D01*
X62834659Y-122585341D01*
X62941004Y-122714922D01*
X62941005Y-122714924D01*
X63020024Y-122862758D01*
X63068687Y-123023177D01*
X63085117Y-123190000D01*
X63068687Y-123356823D01*
X63020024Y-123517242D01*
X62949114Y-123649906D01*
X62941004Y-123665078D01*
X62834659Y-123794659D01*
X62705078Y-123901004D01*
X62705076Y-123901005D01*
X62557242Y-123980024D01*
X62396823Y-124028687D01*
X62271804Y-124041000D01*
X62188196Y-124041000D01*
X62063177Y-124028687D01*
X61902758Y-123980024D01*
X61754924Y-123901005D01*
X61754922Y-123901004D01*
X61625341Y-123794659D01*
X61518996Y-123665078D01*
X61510886Y-123649906D01*
X61439976Y-123517242D01*
X61391313Y-123356823D01*
X61374883Y-123190000D01*
X61391313Y-123023177D01*
X61439976Y-122862758D01*
X61518995Y-122714924D01*
X61518996Y-122714922D01*
X61625341Y-122585341D01*
X61754922Y-122478996D01*
X61770094Y-122470886D01*
X61902758Y-122399976D01*
X62063177Y-122351313D01*
X62188196Y-122339000D01*
X62271804Y-122339000D01*
X62396823Y-122351313D01*
X62396823Y-122351313D01*
G37*
G36*
X77636823Y-122351313D02*
G01*
X77797242Y-122399976D01*
X77929906Y-122470886D01*
X77945078Y-122478996D01*
X78074659Y-122585341D01*
X78181004Y-122714922D01*
X78181005Y-122714924D01*
X78260024Y-122862758D01*
X78308687Y-123023177D01*
X78325117Y-123190000D01*
X78308687Y-123356823D01*
X78260024Y-123517242D01*
X78189114Y-123649906D01*
X78181004Y-123665078D01*
X78074659Y-123794659D01*
X77945078Y-123901004D01*
X77945076Y-123901005D01*
X77797242Y-123980024D01*
X77636823Y-124028687D01*
X77511804Y-124041000D01*
X77428196Y-124041000D01*
X77303177Y-124028687D01*
X77142758Y-123980024D01*
X76994924Y-123901005D01*
X76994922Y-123901004D01*
X76865341Y-123794659D01*
X76758996Y-123665078D01*
X76750886Y-123649906D01*
X76679976Y-123517242D01*
X76631313Y-123356823D01*
X76614883Y-123190000D01*
X76631313Y-123023177D01*
X76679976Y-122862758D01*
X76758995Y-122714924D01*
X76758996Y-122714922D01*
X76865341Y-122585341D01*
X76994922Y-122478996D01*
X77010094Y-122470886D01*
X77142758Y-122399976D01*
X77303177Y-122351313D01*
X77428196Y-122339000D01*
X77511804Y-122339000D01*
X77636823Y-122351313D01*
X77636823Y-122351313D01*
G37*
G36*
X77636823Y-119811313D02*
G01*
X77797242Y-119859976D01*
X77929906Y-119930886D01*
X77945078Y-119938996D01*
X78074659Y-120045341D01*
X78181004Y-120174922D01*
X78181005Y-120174924D01*
X78260024Y-120322758D01*
X78308687Y-120483177D01*
X78325117Y-120650000D01*
X78308687Y-120816823D01*
X78260024Y-120977242D01*
X78189114Y-121109906D01*
X78181004Y-121125078D01*
X78074659Y-121254659D01*
X77945078Y-121361004D01*
X77945076Y-121361005D01*
X77797242Y-121440024D01*
X77636823Y-121488687D01*
X77511804Y-121501000D01*
X77428196Y-121501000D01*
X77303177Y-121488687D01*
X77142758Y-121440024D01*
X76994924Y-121361005D01*
X76994922Y-121361004D01*
X76865341Y-121254659D01*
X76758996Y-121125078D01*
X76750886Y-121109906D01*
X76679976Y-120977242D01*
X76631313Y-120816823D01*
X76614883Y-120650000D01*
X76631313Y-120483177D01*
X76679976Y-120322758D01*
X76758995Y-120174924D01*
X76758996Y-120174922D01*
X76865341Y-120045341D01*
X76994922Y-119938996D01*
X77010094Y-119930886D01*
X77142758Y-119859976D01*
X77303177Y-119811313D01*
X77428196Y-119799000D01*
X77511804Y-119799000D01*
X77636823Y-119811313D01*
X77636823Y-119811313D01*
G37*
G36*
X62396823Y-119811313D02*
G01*
X62557242Y-119859976D01*
X62689906Y-119930886D01*
X62705078Y-119938996D01*
X62834659Y-120045341D01*
X62941004Y-120174922D01*
X62941005Y-120174924D01*
X63020024Y-120322758D01*
X63068687Y-120483177D01*
X63085117Y-120650000D01*
X63068687Y-120816823D01*
X63020024Y-120977242D01*
X62949114Y-121109906D01*
X62941004Y-121125078D01*
X62834659Y-121254659D01*
X62705078Y-121361004D01*
X62705076Y-121361005D01*
X62557242Y-121440024D01*
X62396823Y-121488687D01*
X62271804Y-121501000D01*
X62188196Y-121501000D01*
X62063177Y-121488687D01*
X61902758Y-121440024D01*
X61754924Y-121361005D01*
X61754922Y-121361004D01*
X61625341Y-121254659D01*
X61518996Y-121125078D01*
X61510886Y-121109906D01*
X61439976Y-120977242D01*
X61391313Y-120816823D01*
X61374883Y-120650000D01*
X61391313Y-120483177D01*
X61439976Y-120322758D01*
X61518995Y-120174924D01*
X61518996Y-120174922D01*
X61625341Y-120045341D01*
X61754922Y-119938996D01*
X61770094Y-119930886D01*
X61902758Y-119859976D01*
X62063177Y-119811313D01*
X62188196Y-119799000D01*
X62271804Y-119799000D01*
X62396823Y-119811313D01*
X62396823Y-119811313D01*
G37*
G36*
X128066000Y-120231000D02*
G01*
X126714000Y-120231000D01*
X126714000Y-118529000D01*
X128066000Y-118529000D01*
X128066000Y-120231000D01*
X128066000Y-120231000D01*
G37*
G36*
X129826000Y-120231000D02*
G01*
X128474000Y-120231000D01*
X128474000Y-118529000D01*
X129826000Y-118529000D01*
X129826000Y-120231000D01*
X129826000Y-120231000D01*
G37*
G36*
X77636823Y-117271313D02*
G01*
X77797242Y-117319976D01*
X77929906Y-117390886D01*
X77945078Y-117398996D01*
X78074659Y-117505341D01*
X78181004Y-117634922D01*
X78181005Y-117634924D01*
X78260024Y-117782758D01*
X78308687Y-117943177D01*
X78325117Y-118110000D01*
X78308687Y-118276823D01*
X78260024Y-118437242D01*
X78210978Y-118529000D01*
X78181004Y-118585078D01*
X78074659Y-118714659D01*
X77945078Y-118821004D01*
X77945076Y-118821005D01*
X77797242Y-118900024D01*
X77636823Y-118948687D01*
X77511804Y-118961000D01*
X77428196Y-118961000D01*
X77303177Y-118948687D01*
X77142758Y-118900024D01*
X76994924Y-118821005D01*
X76994922Y-118821004D01*
X76865341Y-118714659D01*
X76758996Y-118585078D01*
X76729022Y-118529000D01*
X76679976Y-118437242D01*
X76631313Y-118276823D01*
X76614883Y-118110000D01*
X76631313Y-117943177D01*
X76679976Y-117782758D01*
X76758995Y-117634924D01*
X76758996Y-117634922D01*
X76865341Y-117505341D01*
X76994922Y-117398996D01*
X77010094Y-117390886D01*
X77142758Y-117319976D01*
X77303177Y-117271313D01*
X77428196Y-117259000D01*
X77511804Y-117259000D01*
X77636823Y-117271313D01*
X77636823Y-117271313D01*
G37*
G36*
X62396823Y-117271313D02*
G01*
X62557242Y-117319976D01*
X62689906Y-117390886D01*
X62705078Y-117398996D01*
X62834659Y-117505341D01*
X62941004Y-117634922D01*
X62941005Y-117634924D01*
X63020024Y-117782758D01*
X63068687Y-117943177D01*
X63085117Y-118110000D01*
X63068687Y-118276823D01*
X63020024Y-118437242D01*
X62970978Y-118529000D01*
X62941004Y-118585078D01*
X62834659Y-118714659D01*
X62705078Y-118821004D01*
X62705076Y-118821005D01*
X62557242Y-118900024D01*
X62396823Y-118948687D01*
X62271804Y-118961000D01*
X62188196Y-118961000D01*
X62063177Y-118948687D01*
X61902758Y-118900024D01*
X61754924Y-118821005D01*
X61754922Y-118821004D01*
X61625341Y-118714659D01*
X61518996Y-118585078D01*
X61489022Y-118529000D01*
X61439976Y-118437242D01*
X61391313Y-118276823D01*
X61374883Y-118110000D01*
X61391313Y-117943177D01*
X61439976Y-117782758D01*
X61518995Y-117634924D01*
X61518996Y-117634922D01*
X61625341Y-117505341D01*
X61754922Y-117398996D01*
X61770094Y-117390886D01*
X61902758Y-117319976D01*
X62063177Y-117271313D01*
X62188196Y-117259000D01*
X62271804Y-117259000D01*
X62396823Y-117271313D01*
X62396823Y-117271313D01*
G37*
G36*
X77636823Y-114731313D02*
G01*
X77797242Y-114779976D01*
X77929906Y-114850886D01*
X77945078Y-114858996D01*
X78074659Y-114965341D01*
X78181004Y-115094922D01*
X78181005Y-115094924D01*
X78260024Y-115242758D01*
X78308687Y-115403177D01*
X78325117Y-115570000D01*
X78308687Y-115736823D01*
X78260024Y-115897242D01*
X78189114Y-116029906D01*
X78181004Y-116045078D01*
X78074659Y-116174659D01*
X77945078Y-116281004D01*
X77945076Y-116281005D01*
X77797242Y-116360024D01*
X77636823Y-116408687D01*
X77511804Y-116421000D01*
X77428196Y-116421000D01*
X77303177Y-116408687D01*
X77142758Y-116360024D01*
X76994924Y-116281005D01*
X76994922Y-116281004D01*
X76865341Y-116174659D01*
X76758996Y-116045078D01*
X76750886Y-116029906D01*
X76679976Y-115897242D01*
X76631313Y-115736823D01*
X76614883Y-115570000D01*
X76631313Y-115403177D01*
X76679976Y-115242758D01*
X76758995Y-115094924D01*
X76758996Y-115094922D01*
X76865341Y-114965341D01*
X76994922Y-114858996D01*
X77010094Y-114850886D01*
X77142758Y-114779976D01*
X77303177Y-114731313D01*
X77428196Y-114719000D01*
X77511804Y-114719000D01*
X77636823Y-114731313D01*
X77636823Y-114731313D01*
G37*
G36*
X62396823Y-114731313D02*
G01*
X62557242Y-114779976D01*
X62689906Y-114850886D01*
X62705078Y-114858996D01*
X62834659Y-114965341D01*
X62941004Y-115094922D01*
X62941005Y-115094924D01*
X63020024Y-115242758D01*
X63068687Y-115403177D01*
X63085117Y-115570000D01*
X63068687Y-115736823D01*
X63020024Y-115897242D01*
X62949114Y-116029906D01*
X62941004Y-116045078D01*
X62834659Y-116174659D01*
X62705078Y-116281004D01*
X62705076Y-116281005D01*
X62557242Y-116360024D01*
X62396823Y-116408687D01*
X62271804Y-116421000D01*
X62188196Y-116421000D01*
X62063177Y-116408687D01*
X61902758Y-116360024D01*
X61754924Y-116281005D01*
X61754922Y-116281004D01*
X61625341Y-116174659D01*
X61518996Y-116045078D01*
X61510886Y-116029906D01*
X61439976Y-115897242D01*
X61391313Y-115736823D01*
X61374883Y-115570000D01*
X61391313Y-115403177D01*
X61439976Y-115242758D01*
X61518995Y-115094924D01*
X61518996Y-115094922D01*
X61625341Y-114965341D01*
X61754922Y-114858996D01*
X61770094Y-114850886D01*
X61902758Y-114779976D01*
X62063177Y-114731313D01*
X62188196Y-114719000D01*
X62271804Y-114719000D01*
X62396823Y-114731313D01*
X62396823Y-114731313D01*
G37*
G36*
X62396823Y-112191313D02*
G01*
X62557242Y-112239976D01*
X62689906Y-112310886D01*
X62705078Y-112318996D01*
X62834659Y-112425341D01*
X62941004Y-112554922D01*
X62941005Y-112554924D01*
X63020024Y-112702758D01*
X63068687Y-112863177D01*
X63085117Y-113030000D01*
X63068687Y-113196823D01*
X63020024Y-113357242D01*
X62949114Y-113489906D01*
X62941004Y-113505078D01*
X62834659Y-113634659D01*
X62705078Y-113741004D01*
X62705076Y-113741005D01*
X62557242Y-113820024D01*
X62396823Y-113868687D01*
X62271804Y-113881000D01*
X62188196Y-113881000D01*
X62063177Y-113868687D01*
X61902758Y-113820024D01*
X61754924Y-113741005D01*
X61754922Y-113741004D01*
X61625341Y-113634659D01*
X61518996Y-113505078D01*
X61510886Y-113489906D01*
X61439976Y-113357242D01*
X61391313Y-113196823D01*
X61374883Y-113030000D01*
X61391313Y-112863177D01*
X61439976Y-112702758D01*
X61518995Y-112554924D01*
X61518996Y-112554922D01*
X61625341Y-112425341D01*
X61754922Y-112318996D01*
X61770094Y-112310886D01*
X61902758Y-112239976D01*
X62063177Y-112191313D01*
X62188196Y-112179000D01*
X62271804Y-112179000D01*
X62396823Y-112191313D01*
X62396823Y-112191313D01*
G37*
G36*
X77636823Y-112191313D02*
G01*
X77797242Y-112239976D01*
X77929906Y-112310886D01*
X77945078Y-112318996D01*
X78074659Y-112425341D01*
X78181004Y-112554922D01*
X78181005Y-112554924D01*
X78260024Y-112702758D01*
X78308687Y-112863177D01*
X78325117Y-113030000D01*
X78308687Y-113196823D01*
X78260024Y-113357242D01*
X78189114Y-113489906D01*
X78181004Y-113505078D01*
X78074659Y-113634659D01*
X77945078Y-113741004D01*
X77945076Y-113741005D01*
X77797242Y-113820024D01*
X77636823Y-113868687D01*
X77511804Y-113881000D01*
X77428196Y-113881000D01*
X77303177Y-113868687D01*
X77142758Y-113820024D01*
X76994924Y-113741005D01*
X76994922Y-113741004D01*
X76865341Y-113634659D01*
X76758996Y-113505078D01*
X76750886Y-113489906D01*
X76679976Y-113357242D01*
X76631313Y-113196823D01*
X76614883Y-113030000D01*
X76631313Y-112863177D01*
X76679976Y-112702758D01*
X76758995Y-112554924D01*
X76758996Y-112554922D01*
X76865341Y-112425341D01*
X76994922Y-112318996D01*
X77010094Y-112310886D01*
X77142758Y-112239976D01*
X77303177Y-112191313D01*
X77428196Y-112179000D01*
X77511804Y-112179000D01*
X77636823Y-112191313D01*
X77636823Y-112191313D01*
G37*
G36*
X77636823Y-109651313D02*
G01*
X77797242Y-109699976D01*
X77929906Y-109770886D01*
X77945078Y-109778996D01*
X78074659Y-109885341D01*
X78181004Y-110014922D01*
X78181005Y-110014924D01*
X78260024Y-110162758D01*
X78308687Y-110323177D01*
X78325117Y-110490000D01*
X78308687Y-110656823D01*
X78260024Y-110817242D01*
X78189114Y-110949906D01*
X78181004Y-110965078D01*
X78074659Y-111094659D01*
X77945078Y-111201004D01*
X77945076Y-111201005D01*
X77797242Y-111280024D01*
X77636823Y-111328687D01*
X77511804Y-111341000D01*
X77428196Y-111341000D01*
X77303177Y-111328687D01*
X77142758Y-111280024D01*
X76994924Y-111201005D01*
X76994922Y-111201004D01*
X76865341Y-111094659D01*
X76758996Y-110965078D01*
X76750886Y-110949906D01*
X76679976Y-110817242D01*
X76631313Y-110656823D01*
X76614883Y-110490000D01*
X76631313Y-110323177D01*
X76679976Y-110162758D01*
X76758995Y-110014924D01*
X76758996Y-110014922D01*
X76865341Y-109885341D01*
X76994922Y-109778996D01*
X77010094Y-109770886D01*
X77142758Y-109699976D01*
X77303177Y-109651313D01*
X77428196Y-109639000D01*
X77511804Y-109639000D01*
X77636823Y-109651313D01*
X77636823Y-109651313D01*
G37*
G36*
X62396823Y-109651313D02*
G01*
X62557242Y-109699976D01*
X62689906Y-109770886D01*
X62705078Y-109778996D01*
X62834659Y-109885341D01*
X62941004Y-110014922D01*
X62941005Y-110014924D01*
X63020024Y-110162758D01*
X63068687Y-110323177D01*
X63085117Y-110490000D01*
X63068687Y-110656823D01*
X63020024Y-110817242D01*
X62949114Y-110949906D01*
X62941004Y-110965078D01*
X62834659Y-111094659D01*
X62705078Y-111201004D01*
X62705076Y-111201005D01*
X62557242Y-111280024D01*
X62396823Y-111328687D01*
X62271804Y-111341000D01*
X62188196Y-111341000D01*
X62063177Y-111328687D01*
X61902758Y-111280024D01*
X61754924Y-111201005D01*
X61754922Y-111201004D01*
X61625341Y-111094659D01*
X61518996Y-110965078D01*
X61510886Y-110949906D01*
X61439976Y-110817242D01*
X61391313Y-110656823D01*
X61374883Y-110490000D01*
X61391313Y-110323177D01*
X61439976Y-110162758D01*
X61518995Y-110014924D01*
X61518996Y-110014922D01*
X61625341Y-109885341D01*
X61754922Y-109778996D01*
X61770094Y-109770886D01*
X61902758Y-109699976D01*
X62063177Y-109651313D01*
X62188196Y-109639000D01*
X62271804Y-109639000D01*
X62396823Y-109651313D01*
X62396823Y-109651313D01*
G37*
G36*
X62396823Y-107111313D02*
G01*
X62557242Y-107159976D01*
X62689906Y-107230886D01*
X62705078Y-107238996D01*
X62834659Y-107345341D01*
X62941004Y-107474922D01*
X62941005Y-107474924D01*
X63020024Y-107622758D01*
X63068687Y-107783177D01*
X63085117Y-107950000D01*
X63068687Y-108116823D01*
X63020024Y-108277242D01*
X62949114Y-108409906D01*
X62941004Y-108425078D01*
X62834659Y-108554659D01*
X62705078Y-108661004D01*
X62705076Y-108661005D01*
X62557242Y-108740024D01*
X62396823Y-108788687D01*
X62271804Y-108801000D01*
X62188196Y-108801000D01*
X62063177Y-108788687D01*
X61902758Y-108740024D01*
X61754924Y-108661005D01*
X61754922Y-108661004D01*
X61625341Y-108554659D01*
X61518996Y-108425078D01*
X61510886Y-108409906D01*
X61439976Y-108277242D01*
X61391313Y-108116823D01*
X61374883Y-107950000D01*
X61391313Y-107783177D01*
X61439976Y-107622758D01*
X61518995Y-107474924D01*
X61518996Y-107474922D01*
X61625341Y-107345341D01*
X61754922Y-107238996D01*
X61770094Y-107230886D01*
X61902758Y-107159976D01*
X62063177Y-107111313D01*
X62188196Y-107099000D01*
X62271804Y-107099000D01*
X62396823Y-107111313D01*
X62396823Y-107111313D01*
G37*
G36*
X77636823Y-107111313D02*
G01*
X77797242Y-107159976D01*
X77929906Y-107230886D01*
X77945078Y-107238996D01*
X78074659Y-107345341D01*
X78181004Y-107474922D01*
X78181005Y-107474924D01*
X78260024Y-107622758D01*
X78308687Y-107783177D01*
X78325117Y-107950000D01*
X78308687Y-108116823D01*
X78260024Y-108277242D01*
X78189114Y-108409906D01*
X78181004Y-108425078D01*
X78074659Y-108554659D01*
X77945078Y-108661004D01*
X77945076Y-108661005D01*
X77797242Y-108740024D01*
X77636823Y-108788687D01*
X77511804Y-108801000D01*
X77428196Y-108801000D01*
X77303177Y-108788687D01*
X77142758Y-108740024D01*
X76994924Y-108661005D01*
X76994922Y-108661004D01*
X76865341Y-108554659D01*
X76758996Y-108425078D01*
X76750886Y-108409906D01*
X76679976Y-108277242D01*
X76631313Y-108116823D01*
X76614883Y-107950000D01*
X76631313Y-107783177D01*
X76679976Y-107622758D01*
X76758995Y-107474924D01*
X76758996Y-107474922D01*
X76865341Y-107345341D01*
X76994922Y-107238996D01*
X77010094Y-107230886D01*
X77142758Y-107159976D01*
X77303177Y-107111313D01*
X77428196Y-107099000D01*
X77511804Y-107099000D01*
X77636823Y-107111313D01*
X77636823Y-107111313D01*
G37*
G36*
X129826000Y-107531000D02*
G01*
X128474000Y-107531000D01*
X128474000Y-105829000D01*
X129826000Y-105829000D01*
X129826000Y-107531000D01*
X129826000Y-107531000D01*
G37*
G36*
X128066000Y-107531000D02*
G01*
X126714000Y-107531000D01*
X126714000Y-105829000D01*
X128066000Y-105829000D01*
X128066000Y-107531000D01*
X128066000Y-107531000D01*
G37*
G36*
X77636823Y-104571313D02*
G01*
X77797242Y-104619976D01*
X77929906Y-104690886D01*
X77945078Y-104698996D01*
X78074659Y-104805341D01*
X78181004Y-104934922D01*
X78181005Y-104934924D01*
X78260024Y-105082758D01*
X78308687Y-105243177D01*
X78325117Y-105410000D01*
X78308687Y-105576823D01*
X78260024Y-105737242D01*
X78210978Y-105829000D01*
X78181004Y-105885078D01*
X78074659Y-106014659D01*
X77945078Y-106121004D01*
X77945076Y-106121005D01*
X77797242Y-106200024D01*
X77636823Y-106248687D01*
X77511804Y-106261000D01*
X77428196Y-106261000D01*
X77303177Y-106248687D01*
X77142758Y-106200024D01*
X76994924Y-106121005D01*
X76994922Y-106121004D01*
X76865341Y-106014659D01*
X76758996Y-105885078D01*
X76729022Y-105829000D01*
X76679976Y-105737242D01*
X76631313Y-105576823D01*
X76614883Y-105410000D01*
X76631313Y-105243177D01*
X76679976Y-105082758D01*
X76758995Y-104934924D01*
X76758996Y-104934922D01*
X76865341Y-104805341D01*
X76994922Y-104698996D01*
X77010094Y-104690886D01*
X77142758Y-104619976D01*
X77303177Y-104571313D01*
X77428196Y-104559000D01*
X77511804Y-104559000D01*
X77636823Y-104571313D01*
X77636823Y-104571313D01*
G37*
G36*
X62396823Y-104571313D02*
G01*
X62557242Y-104619976D01*
X62689906Y-104690886D01*
X62705078Y-104698996D01*
X62834659Y-104805341D01*
X62941004Y-104934922D01*
X62941005Y-104934924D01*
X63020024Y-105082758D01*
X63068687Y-105243177D01*
X63085117Y-105410000D01*
X63068687Y-105576823D01*
X63020024Y-105737242D01*
X62970978Y-105829000D01*
X62941004Y-105885078D01*
X62834659Y-106014659D01*
X62705078Y-106121004D01*
X62705076Y-106121005D01*
X62557242Y-106200024D01*
X62396823Y-106248687D01*
X62271804Y-106261000D01*
X62188196Y-106261000D01*
X62063177Y-106248687D01*
X61902758Y-106200024D01*
X61754924Y-106121005D01*
X61754922Y-106121004D01*
X61625341Y-106014659D01*
X61518996Y-105885078D01*
X61489022Y-105829000D01*
X61439976Y-105737242D01*
X61391313Y-105576823D01*
X61374883Y-105410000D01*
X61391313Y-105243177D01*
X61439976Y-105082758D01*
X61518995Y-104934924D01*
X61518996Y-104934922D01*
X61625341Y-104805341D01*
X61754922Y-104698996D01*
X61770094Y-104690886D01*
X61902758Y-104619976D01*
X62063177Y-104571313D01*
X62188196Y-104559000D01*
X62271804Y-104559000D01*
X62396823Y-104571313D01*
X62396823Y-104571313D01*
G37*
G36*
X77636823Y-102031313D02*
G01*
X77797242Y-102079976D01*
X77929906Y-102150886D01*
X77945078Y-102158996D01*
X78074659Y-102265341D01*
X78181004Y-102394922D01*
X78181005Y-102394924D01*
X78260024Y-102542758D01*
X78308687Y-102703177D01*
X78325117Y-102870000D01*
X78308687Y-103036823D01*
X78260024Y-103197242D01*
X78189114Y-103329906D01*
X78181004Y-103345078D01*
X78074659Y-103474659D01*
X77945078Y-103581004D01*
X77945076Y-103581005D01*
X77797242Y-103660024D01*
X77636823Y-103708687D01*
X77511804Y-103721000D01*
X77428196Y-103721000D01*
X77303177Y-103708687D01*
X77142758Y-103660024D01*
X76994924Y-103581005D01*
X76994922Y-103581004D01*
X76865341Y-103474659D01*
X76758996Y-103345078D01*
X76750886Y-103329906D01*
X76679976Y-103197242D01*
X76631313Y-103036823D01*
X76614883Y-102870000D01*
X76631313Y-102703177D01*
X76679976Y-102542758D01*
X76758995Y-102394924D01*
X76758996Y-102394922D01*
X76865341Y-102265341D01*
X76994922Y-102158996D01*
X77010094Y-102150886D01*
X77142758Y-102079976D01*
X77303177Y-102031313D01*
X77428196Y-102019000D01*
X77511804Y-102019000D01*
X77636823Y-102031313D01*
X77636823Y-102031313D01*
G37*
G36*
X62396823Y-102031313D02*
G01*
X62557242Y-102079976D01*
X62689906Y-102150886D01*
X62705078Y-102158996D01*
X62834659Y-102265341D01*
X62941004Y-102394922D01*
X62941005Y-102394924D01*
X63020024Y-102542758D01*
X63068687Y-102703177D01*
X63085117Y-102870000D01*
X63068687Y-103036823D01*
X63020024Y-103197242D01*
X62949114Y-103329906D01*
X62941004Y-103345078D01*
X62834659Y-103474659D01*
X62705078Y-103581004D01*
X62705076Y-103581005D01*
X62557242Y-103660024D01*
X62396823Y-103708687D01*
X62271804Y-103721000D01*
X62188196Y-103721000D01*
X62063177Y-103708687D01*
X61902758Y-103660024D01*
X61754924Y-103581005D01*
X61754922Y-103581004D01*
X61625341Y-103474659D01*
X61518996Y-103345078D01*
X61510886Y-103329906D01*
X61439976Y-103197242D01*
X61391313Y-103036823D01*
X61374883Y-102870000D01*
X61391313Y-102703177D01*
X61439976Y-102542758D01*
X61518995Y-102394924D01*
X61518996Y-102394922D01*
X61625341Y-102265341D01*
X61754922Y-102158996D01*
X61770094Y-102150886D01*
X61902758Y-102079976D01*
X62063177Y-102031313D01*
X62188196Y-102019000D01*
X62271804Y-102019000D01*
X62396823Y-102031313D01*
X62396823Y-102031313D01*
G37*
G36*
X62396823Y-99491313D02*
G01*
X62557242Y-99539976D01*
X62689906Y-99610886D01*
X62705078Y-99618996D01*
X62834659Y-99725341D01*
X62941004Y-99854922D01*
X62941005Y-99854924D01*
X63020024Y-100002758D01*
X63068687Y-100163177D01*
X63085117Y-100330000D01*
X63068687Y-100496823D01*
X63020024Y-100657242D01*
X62949114Y-100789906D01*
X62941004Y-100805078D01*
X62834659Y-100934659D01*
X62705078Y-101041004D01*
X62705076Y-101041005D01*
X62557242Y-101120024D01*
X62396823Y-101168687D01*
X62271804Y-101181000D01*
X62188196Y-101181000D01*
X62063177Y-101168687D01*
X61902758Y-101120024D01*
X61754924Y-101041005D01*
X61754922Y-101041004D01*
X61625341Y-100934659D01*
X61518996Y-100805078D01*
X61510886Y-100789906D01*
X61439976Y-100657242D01*
X61391313Y-100496823D01*
X61374883Y-100330000D01*
X61391313Y-100163177D01*
X61439976Y-100002758D01*
X61518995Y-99854924D01*
X61518996Y-99854922D01*
X61625341Y-99725341D01*
X61754922Y-99618996D01*
X61770094Y-99610886D01*
X61902758Y-99539976D01*
X62063177Y-99491313D01*
X62188196Y-99479000D01*
X62271804Y-99479000D01*
X62396823Y-99491313D01*
X62396823Y-99491313D01*
G37*
G36*
X77636823Y-99491313D02*
G01*
X77797242Y-99539976D01*
X77929906Y-99610886D01*
X77945078Y-99618996D01*
X78074659Y-99725341D01*
X78181004Y-99854922D01*
X78181005Y-99854924D01*
X78260024Y-100002758D01*
X78308687Y-100163177D01*
X78325117Y-100330000D01*
X78308687Y-100496823D01*
X78260024Y-100657242D01*
X78189114Y-100789906D01*
X78181004Y-100805078D01*
X78074659Y-100934659D01*
X77945078Y-101041004D01*
X77945076Y-101041005D01*
X77797242Y-101120024D01*
X77636823Y-101168687D01*
X77511804Y-101181000D01*
X77428196Y-101181000D01*
X77303177Y-101168687D01*
X77142758Y-101120024D01*
X76994924Y-101041005D01*
X76994922Y-101041004D01*
X76865341Y-100934659D01*
X76758996Y-100805078D01*
X76750886Y-100789906D01*
X76679976Y-100657242D01*
X76631313Y-100496823D01*
X76614883Y-100330000D01*
X76631313Y-100163177D01*
X76679976Y-100002758D01*
X76758995Y-99854924D01*
X76758996Y-99854922D01*
X76865341Y-99725341D01*
X76994922Y-99618996D01*
X77010094Y-99610886D01*
X77142758Y-99539976D01*
X77303177Y-99491313D01*
X77428196Y-99479000D01*
X77511804Y-99479000D01*
X77636823Y-99491313D01*
X77636823Y-99491313D01*
G37*
G36*
X62396823Y-96951313D02*
G01*
X62557242Y-96999976D01*
X62689906Y-97070886D01*
X62705078Y-97078996D01*
X62834659Y-97185341D01*
X62941004Y-97314922D01*
X62941005Y-97314924D01*
X63020024Y-97462758D01*
X63068687Y-97623177D01*
X63085117Y-97790000D01*
X63068687Y-97956823D01*
X63020024Y-98117242D01*
X62949114Y-98249906D01*
X62941004Y-98265078D01*
X62834659Y-98394659D01*
X62705078Y-98501004D01*
X62705076Y-98501005D01*
X62557242Y-98580024D01*
X62396823Y-98628687D01*
X62271804Y-98641000D01*
X62188196Y-98641000D01*
X62063177Y-98628687D01*
X61902758Y-98580024D01*
X61754924Y-98501005D01*
X61754922Y-98501004D01*
X61625341Y-98394659D01*
X61518996Y-98265078D01*
X61510886Y-98249906D01*
X61439976Y-98117242D01*
X61391313Y-97956823D01*
X61374883Y-97790000D01*
X61391313Y-97623177D01*
X61439976Y-97462758D01*
X61518995Y-97314924D01*
X61518996Y-97314922D01*
X61625341Y-97185341D01*
X61754922Y-97078996D01*
X61770094Y-97070886D01*
X61902758Y-96999976D01*
X62063177Y-96951313D01*
X62188196Y-96939000D01*
X62271804Y-96939000D01*
X62396823Y-96951313D01*
X62396823Y-96951313D01*
G37*
G36*
X77636823Y-96951313D02*
G01*
X77797242Y-96999976D01*
X77929906Y-97070886D01*
X77945078Y-97078996D01*
X78074659Y-97185341D01*
X78181004Y-97314922D01*
X78181005Y-97314924D01*
X78260024Y-97462758D01*
X78308687Y-97623177D01*
X78325117Y-97790000D01*
X78308687Y-97956823D01*
X78260024Y-98117242D01*
X78189114Y-98249906D01*
X78181004Y-98265078D01*
X78074659Y-98394659D01*
X77945078Y-98501004D01*
X77945076Y-98501005D01*
X77797242Y-98580024D01*
X77636823Y-98628687D01*
X77511804Y-98641000D01*
X77428196Y-98641000D01*
X77303177Y-98628687D01*
X77142758Y-98580024D01*
X76994924Y-98501005D01*
X76994922Y-98501004D01*
X76865341Y-98394659D01*
X76758996Y-98265078D01*
X76750886Y-98249906D01*
X76679976Y-98117242D01*
X76631313Y-97956823D01*
X76614883Y-97790000D01*
X76631313Y-97623177D01*
X76679976Y-97462758D01*
X76758995Y-97314924D01*
X76758996Y-97314922D01*
X76865341Y-97185341D01*
X76994922Y-97078996D01*
X77010094Y-97070886D01*
X77142758Y-96999976D01*
X77303177Y-96951313D01*
X77428196Y-96939000D01*
X77511804Y-96939000D01*
X77636823Y-96951313D01*
X77636823Y-96951313D01*
G37*
G36*
X62396823Y-94411313D02*
G01*
X62557242Y-94459976D01*
X62689906Y-94530886D01*
X62705078Y-94538996D01*
X62834659Y-94645341D01*
X62941004Y-94774922D01*
X62941005Y-94774924D01*
X63020024Y-94922758D01*
X63068687Y-95083177D01*
X63085117Y-95250000D01*
X63068687Y-95416823D01*
X63020024Y-95577242D01*
X62949114Y-95709906D01*
X62941004Y-95725078D01*
X62834659Y-95854659D01*
X62705078Y-95961004D01*
X62705076Y-95961005D01*
X62557242Y-96040024D01*
X62396823Y-96088687D01*
X62271804Y-96101000D01*
X62188196Y-96101000D01*
X62063177Y-96088687D01*
X61902758Y-96040024D01*
X61754924Y-95961005D01*
X61754922Y-95961004D01*
X61625341Y-95854659D01*
X61518996Y-95725078D01*
X61510886Y-95709906D01*
X61439976Y-95577242D01*
X61391313Y-95416823D01*
X61374883Y-95250000D01*
X61391313Y-95083177D01*
X61439976Y-94922758D01*
X61518995Y-94774924D01*
X61518996Y-94774922D01*
X61625341Y-94645341D01*
X61754922Y-94538996D01*
X61770094Y-94530886D01*
X61902758Y-94459976D01*
X62063177Y-94411313D01*
X62188196Y-94399000D01*
X62271804Y-94399000D01*
X62396823Y-94411313D01*
X62396823Y-94411313D01*
G37*
G36*
X77636823Y-94411313D02*
G01*
X77797242Y-94459976D01*
X77929906Y-94530886D01*
X77945078Y-94538996D01*
X78074659Y-94645341D01*
X78181004Y-94774922D01*
X78181005Y-94774924D01*
X78260024Y-94922758D01*
X78308687Y-95083177D01*
X78325117Y-95250000D01*
X78308687Y-95416823D01*
X78260024Y-95577242D01*
X78189114Y-95709906D01*
X78181004Y-95725078D01*
X78074659Y-95854659D01*
X77945078Y-95961004D01*
X77945076Y-95961005D01*
X77797242Y-96040024D01*
X77636823Y-96088687D01*
X77511804Y-96101000D01*
X77428196Y-96101000D01*
X77303177Y-96088687D01*
X77142758Y-96040024D01*
X76994924Y-95961005D01*
X76994922Y-95961004D01*
X76865341Y-95854659D01*
X76758996Y-95725078D01*
X76750886Y-95709906D01*
X76679976Y-95577242D01*
X76631313Y-95416823D01*
X76614883Y-95250000D01*
X76631313Y-95083177D01*
X76679976Y-94922758D01*
X76758995Y-94774924D01*
X76758996Y-94774922D01*
X76865341Y-94645341D01*
X76994922Y-94538996D01*
X77010094Y-94530886D01*
X77142758Y-94459976D01*
X77303177Y-94411313D01*
X77428196Y-94399000D01*
X77511804Y-94399000D01*
X77636823Y-94411313D01*
X77636823Y-94411313D01*
G37*
G36*
X77636823Y-91871313D02*
G01*
X77797242Y-91919976D01*
X77929906Y-91990886D01*
X77945078Y-91998996D01*
X78074659Y-92105341D01*
X78181004Y-92234922D01*
X78181005Y-92234924D01*
X78260024Y-92382758D01*
X78308687Y-92543177D01*
X78325117Y-92710000D01*
X78308687Y-92876823D01*
X78260024Y-93037242D01*
X78189114Y-93169906D01*
X78181004Y-93185078D01*
X78074659Y-93314659D01*
X77945078Y-93421004D01*
X77945076Y-93421005D01*
X77797242Y-93500024D01*
X77636823Y-93548687D01*
X77511804Y-93561000D01*
X77428196Y-93561000D01*
X77303177Y-93548687D01*
X77142758Y-93500024D01*
X76994924Y-93421005D01*
X76994922Y-93421004D01*
X76865341Y-93314659D01*
X76758996Y-93185078D01*
X76750886Y-93169906D01*
X76679976Y-93037242D01*
X76631313Y-92876823D01*
X76614883Y-92710000D01*
X76631313Y-92543177D01*
X76679976Y-92382758D01*
X76758995Y-92234924D01*
X76758996Y-92234922D01*
X76865341Y-92105341D01*
X76994922Y-91998996D01*
X77010094Y-91990886D01*
X77142758Y-91919976D01*
X77303177Y-91871313D01*
X77428196Y-91859000D01*
X77511804Y-91859000D01*
X77636823Y-91871313D01*
X77636823Y-91871313D01*
G37*
G36*
X62396823Y-91871313D02*
G01*
X62557242Y-91919976D01*
X62689906Y-91990886D01*
X62705078Y-91998996D01*
X62834659Y-92105341D01*
X62941004Y-92234922D01*
X62941005Y-92234924D01*
X63020024Y-92382758D01*
X63068687Y-92543177D01*
X63085117Y-92710000D01*
X63068687Y-92876823D01*
X63020024Y-93037242D01*
X62949114Y-93169906D01*
X62941004Y-93185078D01*
X62834659Y-93314659D01*
X62705078Y-93421004D01*
X62705076Y-93421005D01*
X62557242Y-93500024D01*
X62396823Y-93548687D01*
X62271804Y-93561000D01*
X62188196Y-93561000D01*
X62063177Y-93548687D01*
X61902758Y-93500024D01*
X61754924Y-93421005D01*
X61754922Y-93421004D01*
X61625341Y-93314659D01*
X61518996Y-93185078D01*
X61510886Y-93169906D01*
X61439976Y-93037242D01*
X61391313Y-92876823D01*
X61374883Y-92710000D01*
X61391313Y-92543177D01*
X61439976Y-92382758D01*
X61518995Y-92234924D01*
X61518996Y-92234922D01*
X61625341Y-92105341D01*
X61754922Y-91998996D01*
X61770094Y-91990886D01*
X61902758Y-91919976D01*
X62063177Y-91871313D01*
X62188196Y-91859000D01*
X62271804Y-91859000D01*
X62396823Y-91871313D01*
X62396823Y-91871313D01*
G37*
G36*
X77636823Y-89331313D02*
G01*
X77797242Y-89379976D01*
X77929906Y-89450886D01*
X77945078Y-89458996D01*
X78074659Y-89565341D01*
X78181004Y-89694922D01*
X78181005Y-89694924D01*
X78260024Y-89842758D01*
X78308687Y-90003177D01*
X78325117Y-90170000D01*
X78308687Y-90336823D01*
X78260024Y-90497242D01*
X78189114Y-90629906D01*
X78181004Y-90645078D01*
X78074659Y-90774659D01*
X77945078Y-90881004D01*
X77945076Y-90881005D01*
X77797242Y-90960024D01*
X77636823Y-91008687D01*
X77511804Y-91021000D01*
X77428196Y-91021000D01*
X77303177Y-91008687D01*
X77142758Y-90960024D01*
X76994924Y-90881005D01*
X76994922Y-90881004D01*
X76865341Y-90774659D01*
X76758996Y-90645078D01*
X76750886Y-90629906D01*
X76679976Y-90497242D01*
X76631313Y-90336823D01*
X76614883Y-90170000D01*
X76631313Y-90003177D01*
X76679976Y-89842758D01*
X76758995Y-89694924D01*
X76758996Y-89694922D01*
X76865341Y-89565341D01*
X76994922Y-89458996D01*
X77010094Y-89450886D01*
X77142758Y-89379976D01*
X77303177Y-89331313D01*
X77428196Y-89319000D01*
X77511804Y-89319000D01*
X77636823Y-89331313D01*
X77636823Y-89331313D01*
G37*
G36*
X62396823Y-89331313D02*
G01*
X62557242Y-89379976D01*
X62689906Y-89450886D01*
X62705078Y-89458996D01*
X62834659Y-89565341D01*
X62941004Y-89694922D01*
X62941005Y-89694924D01*
X63020024Y-89842758D01*
X63068687Y-90003177D01*
X63085117Y-90170000D01*
X63068687Y-90336823D01*
X63020024Y-90497242D01*
X62949114Y-90629906D01*
X62941004Y-90645078D01*
X62834659Y-90774659D01*
X62705078Y-90881004D01*
X62705076Y-90881005D01*
X62557242Y-90960024D01*
X62396823Y-91008687D01*
X62271804Y-91021000D01*
X62188196Y-91021000D01*
X62063177Y-91008687D01*
X61902758Y-90960024D01*
X61754924Y-90881005D01*
X61754922Y-90881004D01*
X61625341Y-90774659D01*
X61518996Y-90645078D01*
X61510886Y-90629906D01*
X61439976Y-90497242D01*
X61391313Y-90336823D01*
X61374883Y-90170000D01*
X61391313Y-90003177D01*
X61439976Y-89842758D01*
X61518995Y-89694924D01*
X61518996Y-89694922D01*
X61625341Y-89565341D01*
X61754922Y-89458996D01*
X61770094Y-89450886D01*
X61902758Y-89379976D01*
X62063177Y-89331313D01*
X62188196Y-89319000D01*
X62271804Y-89319000D01*
X62396823Y-89331313D01*
X62396823Y-89331313D01*
G37*
G36*
X77636823Y-86791313D02*
G01*
X77797242Y-86839976D01*
X77929906Y-86910886D01*
X77945078Y-86918996D01*
X78074659Y-87025341D01*
X78181004Y-87154922D01*
X78181005Y-87154924D01*
X78260024Y-87302758D01*
X78308687Y-87463177D01*
X78325117Y-87630000D01*
X78308687Y-87796823D01*
X78260024Y-87957242D01*
X78189114Y-88089906D01*
X78181004Y-88105078D01*
X78074659Y-88234659D01*
X77945078Y-88341004D01*
X77945076Y-88341005D01*
X77797242Y-88420024D01*
X77636823Y-88468687D01*
X77511804Y-88481000D01*
X77428196Y-88481000D01*
X77303177Y-88468687D01*
X77142758Y-88420024D01*
X76994924Y-88341005D01*
X76994922Y-88341004D01*
X76865341Y-88234659D01*
X76758996Y-88105078D01*
X76750886Y-88089906D01*
X76679976Y-87957242D01*
X76631313Y-87796823D01*
X76614883Y-87630000D01*
X76631313Y-87463177D01*
X76679976Y-87302758D01*
X76758995Y-87154924D01*
X76758996Y-87154922D01*
X76865341Y-87025341D01*
X76994922Y-86918996D01*
X77010094Y-86910886D01*
X77142758Y-86839976D01*
X77303177Y-86791313D01*
X77428196Y-86779000D01*
X77511804Y-86779000D01*
X77636823Y-86791313D01*
X77636823Y-86791313D01*
G37*
G36*
X63081000Y-88481000D02*
G01*
X61379000Y-88481000D01*
X61379000Y-86779000D01*
X63081000Y-86779000D01*
X63081000Y-88481000D01*
X63081000Y-88481000D01*
G37*
G36*
X151363642Y-83049781D02*
G01*
X151509414Y-83110162D01*
X151509416Y-83110163D01*
X151640608Y-83197822D01*
X151752178Y-83309392D01*
X151839837Y-83440584D01*
X151839838Y-83440586D01*
X151900219Y-83586358D01*
X151931000Y-83741107D01*
X151931000Y-83898893D01*
X151900219Y-84053642D01*
X151839838Y-84199414D01*
X151839837Y-84199416D01*
X151752178Y-84330608D01*
X151640608Y-84442178D01*
X151509416Y-84529837D01*
X151509415Y-84529838D01*
X151509414Y-84529838D01*
X151363642Y-84590219D01*
X151208893Y-84621000D01*
X151051107Y-84621000D01*
X150896358Y-84590219D01*
X150750586Y-84529838D01*
X150750585Y-84529838D01*
X150750584Y-84529837D01*
X150619392Y-84442178D01*
X150507822Y-84330608D01*
X150420163Y-84199416D01*
X150420162Y-84199414D01*
X150359781Y-84053642D01*
X150329000Y-83898893D01*
X150329000Y-83741107D01*
X150359781Y-83586358D01*
X150420162Y-83440586D01*
X150420163Y-83440584D01*
X150507822Y-83309392D01*
X150619392Y-83197822D01*
X150750584Y-83110163D01*
X150750586Y-83110162D01*
X150896358Y-83049781D01*
X151051107Y-83019000D01*
X151208893Y-83019000D01*
X151363642Y-83049781D01*
X151363642Y-83049781D01*
G37*
G36*
X128503642Y-83049781D02*
G01*
X128649414Y-83110162D01*
X128649416Y-83110163D01*
X128780608Y-83197822D01*
X128892178Y-83309392D01*
X128979837Y-83440584D01*
X128979838Y-83440586D01*
X129040219Y-83586358D01*
X129071000Y-83741107D01*
X129071000Y-83898893D01*
X129040219Y-84053642D01*
X128979838Y-84199414D01*
X128979837Y-84199416D01*
X128892178Y-84330608D01*
X128780608Y-84442178D01*
X128649416Y-84529837D01*
X128649415Y-84529838D01*
X128649414Y-84529838D01*
X128503642Y-84590219D01*
X128348893Y-84621000D01*
X128191107Y-84621000D01*
X128036358Y-84590219D01*
X127890586Y-84529838D01*
X127890585Y-84529838D01*
X127890584Y-84529837D01*
X127759392Y-84442178D01*
X127647822Y-84330608D01*
X127560163Y-84199416D01*
X127560162Y-84199414D01*
X127499781Y-84053642D01*
X127469000Y-83898893D01*
X127469000Y-83741107D01*
X127499781Y-83586358D01*
X127560162Y-83440586D01*
X127560163Y-83440584D01*
X127647822Y-83309392D01*
X127759392Y-83197822D01*
X127890584Y-83110163D01*
X127890586Y-83110162D01*
X128036358Y-83049781D01*
X128191107Y-83019000D01*
X128348893Y-83019000D01*
X128503642Y-83049781D01*
X128503642Y-83049781D01*
G37*
G36*
X176763642Y-83049781D02*
G01*
X176909414Y-83110162D01*
X176909416Y-83110163D01*
X177040608Y-83197822D01*
X177152178Y-83309392D01*
X177239837Y-83440584D01*
X177239838Y-83440586D01*
X177300219Y-83586358D01*
X177331000Y-83741107D01*
X177331000Y-83898893D01*
X177300219Y-84053642D01*
X177239838Y-84199414D01*
X177239837Y-84199416D01*
X177152178Y-84330608D01*
X177040608Y-84442178D01*
X176909416Y-84529837D01*
X176909415Y-84529838D01*
X176909414Y-84529838D01*
X176763642Y-84590219D01*
X176608893Y-84621000D01*
X176451107Y-84621000D01*
X176296358Y-84590219D01*
X176150586Y-84529838D01*
X176150585Y-84529838D01*
X176150584Y-84529837D01*
X176019392Y-84442178D01*
X175907822Y-84330608D01*
X175820163Y-84199416D01*
X175820162Y-84199414D01*
X175759781Y-84053642D01*
X175729000Y-83898893D01*
X175729000Y-83741107D01*
X175759781Y-83586358D01*
X175820162Y-83440586D01*
X175820163Y-83440584D01*
X175907822Y-83309392D01*
X176019392Y-83197822D01*
X176150584Y-83110163D01*
X176150586Y-83110162D01*
X176296358Y-83049781D01*
X176451107Y-83019000D01*
X176608893Y-83019000D01*
X176763642Y-83049781D01*
X176763642Y-83049781D01*
G37*
G36*
X103103642Y-83049781D02*
G01*
X103249414Y-83110162D01*
X103249416Y-83110163D01*
X103380608Y-83197822D01*
X103492178Y-83309392D01*
X103579837Y-83440584D01*
X103579838Y-83440586D01*
X103640219Y-83586358D01*
X103671000Y-83741107D01*
X103671000Y-83898893D01*
X103640219Y-84053642D01*
X103579838Y-84199414D01*
X103579837Y-84199416D01*
X103492178Y-84330608D01*
X103380608Y-84442178D01*
X103249416Y-84529837D01*
X103249415Y-84529838D01*
X103249414Y-84529838D01*
X103103642Y-84590219D01*
X102948893Y-84621000D01*
X102791107Y-84621000D01*
X102636358Y-84590219D01*
X102490586Y-84529838D01*
X102490585Y-84529838D01*
X102490584Y-84529837D01*
X102359392Y-84442178D01*
X102247822Y-84330608D01*
X102160163Y-84199416D01*
X102160162Y-84199414D01*
X102099781Y-84053642D01*
X102069000Y-83898893D01*
X102069000Y-83741107D01*
X102099781Y-83586358D01*
X102160162Y-83440586D01*
X102160163Y-83440584D01*
X102247822Y-83309392D01*
X102359392Y-83197822D01*
X102490584Y-83110163D01*
X102490586Y-83110162D01*
X102636358Y-83049781D01*
X102791107Y-83019000D01*
X102948893Y-83019000D01*
X103103642Y-83049781D01*
X103103642Y-83049781D01*
G37*
G36*
X151363642Y-80509781D02*
G01*
X151509414Y-80570162D01*
X151509416Y-80570163D01*
X151640608Y-80657822D01*
X151752178Y-80769392D01*
X151839837Y-80900584D01*
X151839838Y-80900586D01*
X151900219Y-81046358D01*
X151931000Y-81201107D01*
X151931000Y-81358893D01*
X151900219Y-81513642D01*
X151839838Y-81659414D01*
X151839837Y-81659416D01*
X151752178Y-81790608D01*
X151640608Y-81902178D01*
X151509416Y-81989837D01*
X151509415Y-81989838D01*
X151509414Y-81989838D01*
X151363642Y-82050219D01*
X151208893Y-82081000D01*
X151051107Y-82081000D01*
X150896358Y-82050219D01*
X150750586Y-81989838D01*
X150750585Y-81989838D01*
X150750584Y-81989837D01*
X150619392Y-81902178D01*
X150507822Y-81790608D01*
X150420163Y-81659416D01*
X150420162Y-81659414D01*
X150359781Y-81513642D01*
X150329000Y-81358893D01*
X150329000Y-81201107D01*
X150359781Y-81046358D01*
X150420162Y-80900586D01*
X150420163Y-80900584D01*
X150507822Y-80769392D01*
X150619392Y-80657822D01*
X150750584Y-80570163D01*
X150750586Y-80570162D01*
X150896358Y-80509781D01*
X151051107Y-80479000D01*
X151208893Y-80479000D01*
X151363642Y-80509781D01*
X151363642Y-80509781D01*
G37*
G36*
X103103642Y-80509781D02*
G01*
X103249414Y-80570162D01*
X103249416Y-80570163D01*
X103380608Y-80657822D01*
X103492178Y-80769392D01*
X103579837Y-80900584D01*
X103579838Y-80900586D01*
X103640219Y-81046358D01*
X103671000Y-81201107D01*
X103671000Y-81358893D01*
X103640219Y-81513642D01*
X103579838Y-81659414D01*
X103579837Y-81659416D01*
X103492178Y-81790608D01*
X103380608Y-81902178D01*
X103249416Y-81989837D01*
X103249415Y-81989838D01*
X103249414Y-81989838D01*
X103103642Y-82050219D01*
X102948893Y-82081000D01*
X102791107Y-82081000D01*
X102636358Y-82050219D01*
X102490586Y-81989838D01*
X102490585Y-81989838D01*
X102490584Y-81989837D01*
X102359392Y-81902178D01*
X102247822Y-81790608D01*
X102160163Y-81659416D01*
X102160162Y-81659414D01*
X102099781Y-81513642D01*
X102069000Y-81358893D01*
X102069000Y-81201107D01*
X102099781Y-81046358D01*
X102160162Y-80900586D01*
X102160163Y-80900584D01*
X102247822Y-80769392D01*
X102359392Y-80657822D01*
X102490584Y-80570163D01*
X102490586Y-80570162D01*
X102636358Y-80509781D01*
X102791107Y-80479000D01*
X102948893Y-80479000D01*
X103103642Y-80509781D01*
X103103642Y-80509781D01*
G37*
G36*
X128503642Y-80509781D02*
G01*
X128649414Y-80570162D01*
X128649416Y-80570163D01*
X128780608Y-80657822D01*
X128892178Y-80769392D01*
X128979837Y-80900584D01*
X128979838Y-80900586D01*
X129040219Y-81046358D01*
X129071000Y-81201107D01*
X129071000Y-81358893D01*
X129040219Y-81513642D01*
X128979838Y-81659414D01*
X128979837Y-81659416D01*
X128892178Y-81790608D01*
X128780608Y-81902178D01*
X128649416Y-81989837D01*
X128649415Y-81989838D01*
X128649414Y-81989838D01*
X128503642Y-82050219D01*
X128348893Y-82081000D01*
X128191107Y-82081000D01*
X128036358Y-82050219D01*
X127890586Y-81989838D01*
X127890585Y-81989838D01*
X127890584Y-81989837D01*
X127759392Y-81902178D01*
X127647822Y-81790608D01*
X127560163Y-81659416D01*
X127560162Y-81659414D01*
X127499781Y-81513642D01*
X127469000Y-81358893D01*
X127469000Y-81201107D01*
X127499781Y-81046358D01*
X127560162Y-80900586D01*
X127560163Y-80900584D01*
X127647822Y-80769392D01*
X127759392Y-80657822D01*
X127890584Y-80570163D01*
X127890586Y-80570162D01*
X128036358Y-80509781D01*
X128191107Y-80479000D01*
X128348893Y-80479000D01*
X128503642Y-80509781D01*
X128503642Y-80509781D01*
G37*
G36*
X176763642Y-80509781D02*
G01*
X176909414Y-80570162D01*
X176909416Y-80570163D01*
X177040608Y-80657822D01*
X177152178Y-80769392D01*
X177239837Y-80900584D01*
X177239838Y-80900586D01*
X177300219Y-81046358D01*
X177331000Y-81201107D01*
X177331000Y-81358893D01*
X177300219Y-81513642D01*
X177239838Y-81659414D01*
X177239837Y-81659416D01*
X177152178Y-81790608D01*
X177040608Y-81902178D01*
X176909416Y-81989837D01*
X176909415Y-81989838D01*
X176909414Y-81989838D01*
X176763642Y-82050219D01*
X176608893Y-82081000D01*
X176451107Y-82081000D01*
X176296358Y-82050219D01*
X176150586Y-81989838D01*
X176150585Y-81989838D01*
X176150584Y-81989837D01*
X176019392Y-81902178D01*
X175907822Y-81790608D01*
X175820163Y-81659416D01*
X175820162Y-81659414D01*
X175759781Y-81513642D01*
X175729000Y-81358893D01*
X175729000Y-81201107D01*
X175759781Y-81046358D01*
X175820162Y-80900586D01*
X175820163Y-80900584D01*
X175907822Y-80769392D01*
X176019392Y-80657822D01*
X176150584Y-80570163D01*
X176150586Y-80570162D01*
X176296358Y-80509781D01*
X176451107Y-80479000D01*
X176608893Y-80479000D01*
X176763642Y-80509781D01*
X176763642Y-80509781D01*
G37*
G36*
X103103642Y-77969781D02*
G01*
X103249414Y-78030162D01*
X103249416Y-78030163D01*
X103380608Y-78117822D01*
X103492178Y-78229392D01*
X103579837Y-78360584D01*
X103579838Y-78360586D01*
X103640219Y-78506358D01*
X103671000Y-78661107D01*
X103671000Y-78818893D01*
X103640219Y-78973642D01*
X103579838Y-79119414D01*
X103579837Y-79119416D01*
X103492178Y-79250608D01*
X103380608Y-79362178D01*
X103249416Y-79449837D01*
X103249415Y-79449838D01*
X103249414Y-79449838D01*
X103103642Y-79510219D01*
X102948893Y-79541000D01*
X102791107Y-79541000D01*
X102636358Y-79510219D01*
X102490586Y-79449838D01*
X102490585Y-79449838D01*
X102490584Y-79449837D01*
X102359392Y-79362178D01*
X102247822Y-79250608D01*
X102160163Y-79119416D01*
X102160162Y-79119414D01*
X102099781Y-78973642D01*
X102069000Y-78818893D01*
X102069000Y-78661107D01*
X102099781Y-78506358D01*
X102160162Y-78360586D01*
X102160163Y-78360584D01*
X102247822Y-78229392D01*
X102359392Y-78117822D01*
X102490584Y-78030163D01*
X102490586Y-78030162D01*
X102636358Y-77969781D01*
X102791107Y-77939000D01*
X102948893Y-77939000D01*
X103103642Y-77969781D01*
X103103642Y-77969781D01*
G37*
G36*
X176763642Y-77969781D02*
G01*
X176909414Y-78030162D01*
X176909416Y-78030163D01*
X177040608Y-78117822D01*
X177152178Y-78229392D01*
X177239837Y-78360584D01*
X177239838Y-78360586D01*
X177300219Y-78506358D01*
X177331000Y-78661107D01*
X177331000Y-78818893D01*
X177300219Y-78973642D01*
X177239838Y-79119414D01*
X177239837Y-79119416D01*
X177152178Y-79250608D01*
X177040608Y-79362178D01*
X176909416Y-79449837D01*
X176909415Y-79449838D01*
X176909414Y-79449838D01*
X176763642Y-79510219D01*
X176608893Y-79541000D01*
X176451107Y-79541000D01*
X176296358Y-79510219D01*
X176150586Y-79449838D01*
X176150585Y-79449838D01*
X176150584Y-79449837D01*
X176019392Y-79362178D01*
X175907822Y-79250608D01*
X175820163Y-79119416D01*
X175820162Y-79119414D01*
X175759781Y-78973642D01*
X175729000Y-78818893D01*
X175729000Y-78661107D01*
X175759781Y-78506358D01*
X175820162Y-78360586D01*
X175820163Y-78360584D01*
X175907822Y-78229392D01*
X176019392Y-78117822D01*
X176150584Y-78030163D01*
X176150586Y-78030162D01*
X176296358Y-77969781D01*
X176451107Y-77939000D01*
X176608893Y-77939000D01*
X176763642Y-77969781D01*
X176763642Y-77969781D01*
G37*
G36*
X151363642Y-77969781D02*
G01*
X151509414Y-78030162D01*
X151509416Y-78030163D01*
X151640608Y-78117822D01*
X151752178Y-78229392D01*
X151839837Y-78360584D01*
X151839838Y-78360586D01*
X151900219Y-78506358D01*
X151931000Y-78661107D01*
X151931000Y-78818893D01*
X151900219Y-78973642D01*
X151839838Y-79119414D01*
X151839837Y-79119416D01*
X151752178Y-79250608D01*
X151640608Y-79362178D01*
X151509416Y-79449837D01*
X151509415Y-79449838D01*
X151509414Y-79449838D01*
X151363642Y-79510219D01*
X151208893Y-79541000D01*
X151051107Y-79541000D01*
X150896358Y-79510219D01*
X150750586Y-79449838D01*
X150750585Y-79449838D01*
X150750584Y-79449837D01*
X150619392Y-79362178D01*
X150507822Y-79250608D01*
X150420163Y-79119416D01*
X150420162Y-79119414D01*
X150359781Y-78973642D01*
X150329000Y-78818893D01*
X150329000Y-78661107D01*
X150359781Y-78506358D01*
X150420162Y-78360586D01*
X150420163Y-78360584D01*
X150507822Y-78229392D01*
X150619392Y-78117822D01*
X150750584Y-78030163D01*
X150750586Y-78030162D01*
X150896358Y-77969781D01*
X151051107Y-77939000D01*
X151208893Y-77939000D01*
X151363642Y-77969781D01*
X151363642Y-77969781D01*
G37*
G36*
X128503642Y-77969781D02*
G01*
X128649414Y-78030162D01*
X128649416Y-78030163D01*
X128780608Y-78117822D01*
X128892178Y-78229392D01*
X128979837Y-78360584D01*
X128979838Y-78360586D01*
X129040219Y-78506358D01*
X129071000Y-78661107D01*
X129071000Y-78818893D01*
X129040219Y-78973642D01*
X128979838Y-79119414D01*
X128979837Y-79119416D01*
X128892178Y-79250608D01*
X128780608Y-79362178D01*
X128649416Y-79449837D01*
X128649415Y-79449838D01*
X128649414Y-79449838D01*
X128503642Y-79510219D01*
X128348893Y-79541000D01*
X128191107Y-79541000D01*
X128036358Y-79510219D01*
X127890586Y-79449838D01*
X127890585Y-79449838D01*
X127890584Y-79449837D01*
X127759392Y-79362178D01*
X127647822Y-79250608D01*
X127560163Y-79119416D01*
X127560162Y-79119414D01*
X127499781Y-78973642D01*
X127469000Y-78818893D01*
X127469000Y-78661107D01*
X127499781Y-78506358D01*
X127560162Y-78360586D01*
X127560163Y-78360584D01*
X127647822Y-78229392D01*
X127759392Y-78117822D01*
X127890584Y-78030163D01*
X127890586Y-78030162D01*
X128036358Y-77969781D01*
X128191107Y-77939000D01*
X128348893Y-77939000D01*
X128503642Y-77969781D01*
X128503642Y-77969781D01*
G37*
G36*
X177331000Y-77001000D02*
G01*
X175729000Y-77001000D01*
X175729000Y-75399000D01*
X177331000Y-75399000D01*
X177331000Y-77001000D01*
X177331000Y-77001000D01*
G37*
G36*
X151931000Y-77001000D02*
G01*
X150329000Y-77001000D01*
X150329000Y-75399000D01*
X151931000Y-75399000D01*
X151931000Y-77001000D01*
X151931000Y-77001000D01*
G37*
G36*
X129071000Y-77001000D02*
G01*
X127469000Y-77001000D01*
X127469000Y-75399000D01*
X129071000Y-75399000D01*
X129071000Y-77001000D01*
X129071000Y-77001000D01*
G37*
G36*
X103671000Y-77001000D02*
G01*
X102069000Y-77001000D01*
X102069000Y-75399000D01*
X103671000Y-75399000D01*
X103671000Y-77001000D01*
X103671000Y-77001000D01*
G37*
M02*
