G04 #@! TF.GenerationSoftware,KiCad,Pcbnew,(5.1.0)-1*
G04 #@! TF.CreationDate,2019-10-27T15:01:23-04:00*
G04 #@! TF.ProjectId,Reciever,52656369-6576-4657-922e-6b696361645f,rev?*
G04 #@! TF.SameCoordinates,Original*
G04 #@! TF.FileFunction,Copper,L2,Bot*
G04 #@! TF.FilePolarity,Positive*
%FSLAX46Y46*%
G04 Gerber Fmt 4.6, Leading zero omitted, Abs format (unit mm)*
G04 Created by KiCad (PCBNEW (5.1.0)-1) date 2019-10-27 15:01:23*
%MOMM*%
%LPD*%
G04 APERTURE LIST*
%ADD10C,1.500000*%
%ADD11R,1.500000X1.500000*%
%ADD12O,1.600000X1.600000*%
%ADD13R,1.600000X1.600000*%
%ADD14C,0.254000*%
G04 APERTURE END LIST*
D10*
X66040000Y-62230000D03*
X66040000Y-59690000D03*
X66040000Y-57150000D03*
D11*
X66040000Y-54610000D03*
D12*
X46990000Y-91440000D03*
X31750000Y-91440000D03*
X46990000Y-55880000D03*
X31750000Y-88900000D03*
X46990000Y-58420000D03*
X31750000Y-86360000D03*
X46990000Y-60960000D03*
X31750000Y-83820000D03*
X46990000Y-63500000D03*
X31750000Y-81280000D03*
X46990000Y-66040000D03*
X31750000Y-78740000D03*
X46990000Y-68580000D03*
X31750000Y-76200000D03*
X46990000Y-71120000D03*
X31750000Y-73660000D03*
X46990000Y-73660000D03*
X31750000Y-71120000D03*
X46990000Y-76200000D03*
X31750000Y-68580000D03*
X46990000Y-78740000D03*
X31750000Y-66040000D03*
X46990000Y-81280000D03*
X31750000Y-63500000D03*
X46990000Y-83820000D03*
X31750000Y-60960000D03*
X46990000Y-86360000D03*
X31750000Y-58420000D03*
X46990000Y-88900000D03*
D13*
X31750000Y-55880000D03*
D14*
G36*
X74803000Y-104013000D02*
G01*
X24257000Y-104013000D01*
X24257000Y-58420000D01*
X30308057Y-58420000D01*
X30335764Y-58701309D01*
X30417818Y-58971808D01*
X30551068Y-59221101D01*
X30730392Y-59439608D01*
X30948899Y-59618932D01*
X31081858Y-59690000D01*
X30948899Y-59761068D01*
X30730392Y-59940392D01*
X30551068Y-60158899D01*
X30417818Y-60408192D01*
X30335764Y-60678691D01*
X30308057Y-60960000D01*
X30335764Y-61241309D01*
X30417818Y-61511808D01*
X30551068Y-61761101D01*
X30730392Y-61979608D01*
X30948899Y-62158932D01*
X31081858Y-62230000D01*
X30948899Y-62301068D01*
X30730392Y-62480392D01*
X30551068Y-62698899D01*
X30417818Y-62948192D01*
X30335764Y-63218691D01*
X30308057Y-63500000D01*
X30335764Y-63781309D01*
X30417818Y-64051808D01*
X30551068Y-64301101D01*
X30730392Y-64519608D01*
X30948899Y-64698932D01*
X31081858Y-64770000D01*
X30948899Y-64841068D01*
X30730392Y-65020392D01*
X30551068Y-65238899D01*
X30417818Y-65488192D01*
X30335764Y-65758691D01*
X30308057Y-66040000D01*
X30335764Y-66321309D01*
X30417818Y-66591808D01*
X30551068Y-66841101D01*
X30730392Y-67059608D01*
X30948899Y-67238932D01*
X31081858Y-67310000D01*
X30948899Y-67381068D01*
X30730392Y-67560392D01*
X30551068Y-67778899D01*
X30417818Y-68028192D01*
X30335764Y-68298691D01*
X30308057Y-68580000D01*
X30335764Y-68861309D01*
X30417818Y-69131808D01*
X30551068Y-69381101D01*
X30730392Y-69599608D01*
X30948899Y-69778932D01*
X31081858Y-69850000D01*
X30948899Y-69921068D01*
X30730392Y-70100392D01*
X30551068Y-70318899D01*
X30417818Y-70568192D01*
X30335764Y-70838691D01*
X30308057Y-71120000D01*
X30335764Y-71401309D01*
X30417818Y-71671808D01*
X30551068Y-71921101D01*
X30730392Y-72139608D01*
X30948899Y-72318932D01*
X31081858Y-72390000D01*
X30948899Y-72461068D01*
X30730392Y-72640392D01*
X30551068Y-72858899D01*
X30417818Y-73108192D01*
X30335764Y-73378691D01*
X30308057Y-73660000D01*
X30335764Y-73941309D01*
X30417818Y-74211808D01*
X30551068Y-74461101D01*
X30730392Y-74679608D01*
X30948899Y-74858932D01*
X31081858Y-74930000D01*
X30948899Y-75001068D01*
X30730392Y-75180392D01*
X30551068Y-75398899D01*
X30417818Y-75648192D01*
X30335764Y-75918691D01*
X30308057Y-76200000D01*
X30335764Y-76481309D01*
X30417818Y-76751808D01*
X30551068Y-77001101D01*
X30730392Y-77219608D01*
X30948899Y-77398932D01*
X31081858Y-77470000D01*
X30948899Y-77541068D01*
X30730392Y-77720392D01*
X30551068Y-77938899D01*
X30417818Y-78188192D01*
X30335764Y-78458691D01*
X30308057Y-78740000D01*
X30335764Y-79021309D01*
X30417818Y-79291808D01*
X30551068Y-79541101D01*
X30730392Y-79759608D01*
X30948899Y-79938932D01*
X31081858Y-80010000D01*
X30948899Y-80081068D01*
X30730392Y-80260392D01*
X30551068Y-80478899D01*
X30417818Y-80728192D01*
X30335764Y-80998691D01*
X30308057Y-81280000D01*
X30335764Y-81561309D01*
X30417818Y-81831808D01*
X30551068Y-82081101D01*
X30730392Y-82299608D01*
X30948899Y-82478932D01*
X31081858Y-82550000D01*
X30948899Y-82621068D01*
X30730392Y-82800392D01*
X30551068Y-83018899D01*
X30417818Y-83268192D01*
X30335764Y-83538691D01*
X30308057Y-83820000D01*
X30335764Y-84101309D01*
X30417818Y-84371808D01*
X30551068Y-84621101D01*
X30730392Y-84839608D01*
X30948899Y-85018932D01*
X31081858Y-85090000D01*
X30948899Y-85161068D01*
X30730392Y-85340392D01*
X30551068Y-85558899D01*
X30417818Y-85808192D01*
X30335764Y-86078691D01*
X30308057Y-86360000D01*
X30335764Y-86641309D01*
X30417818Y-86911808D01*
X30551068Y-87161101D01*
X30730392Y-87379608D01*
X30948899Y-87558932D01*
X31081858Y-87630000D01*
X30948899Y-87701068D01*
X30730392Y-87880392D01*
X30551068Y-88098899D01*
X30417818Y-88348192D01*
X30335764Y-88618691D01*
X30308057Y-88900000D01*
X30335764Y-89181309D01*
X30417818Y-89451808D01*
X30551068Y-89701101D01*
X30730392Y-89919608D01*
X30948899Y-90098932D01*
X31081858Y-90170000D01*
X30948899Y-90241068D01*
X30730392Y-90420392D01*
X30551068Y-90638899D01*
X30417818Y-90888192D01*
X30335764Y-91158691D01*
X30308057Y-91440000D01*
X30335764Y-91721309D01*
X30417818Y-91991808D01*
X30551068Y-92241101D01*
X30730392Y-92459608D01*
X30948899Y-92638932D01*
X31198192Y-92772182D01*
X31468691Y-92854236D01*
X31679508Y-92875000D01*
X31820492Y-92875000D01*
X32031309Y-92854236D01*
X32301808Y-92772182D01*
X32551101Y-92638932D01*
X32769608Y-92459608D01*
X32948932Y-92241101D01*
X33082182Y-91991808D01*
X33164236Y-91721309D01*
X33191943Y-91440000D01*
X33164236Y-91158691D01*
X33082182Y-90888192D01*
X32948932Y-90638899D01*
X32769608Y-90420392D01*
X32551101Y-90241068D01*
X32418142Y-90170000D01*
X32551101Y-90098932D01*
X32769608Y-89919608D01*
X32948932Y-89701101D01*
X33082182Y-89451808D01*
X33164236Y-89181309D01*
X33191943Y-88900000D01*
X33164236Y-88618691D01*
X33082182Y-88348192D01*
X32948932Y-88098899D01*
X32769608Y-87880392D01*
X32551101Y-87701068D01*
X32418142Y-87630000D01*
X32551101Y-87558932D01*
X32769608Y-87379608D01*
X32948932Y-87161101D01*
X33082182Y-86911808D01*
X33164236Y-86641309D01*
X33191943Y-86360000D01*
X33164236Y-86078691D01*
X33082182Y-85808192D01*
X32948932Y-85558899D01*
X32769608Y-85340392D01*
X32551101Y-85161068D01*
X32418142Y-85090000D01*
X32551101Y-85018932D01*
X32769608Y-84839608D01*
X32948932Y-84621101D01*
X33082182Y-84371808D01*
X33164236Y-84101309D01*
X33191943Y-83820000D01*
X33164236Y-83538691D01*
X33082182Y-83268192D01*
X32948932Y-83018899D01*
X32769608Y-82800392D01*
X32551101Y-82621068D01*
X32418142Y-82550000D01*
X32551101Y-82478932D01*
X32769608Y-82299608D01*
X32948932Y-82081101D01*
X33082182Y-81831808D01*
X33164236Y-81561309D01*
X33191943Y-81280000D01*
X33164236Y-80998691D01*
X33082182Y-80728192D01*
X32948932Y-80478899D01*
X32769608Y-80260392D01*
X32551101Y-80081068D01*
X32418142Y-80010000D01*
X32551101Y-79938932D01*
X32769608Y-79759608D01*
X32948932Y-79541101D01*
X33082182Y-79291808D01*
X33164236Y-79021309D01*
X33191943Y-78740000D01*
X33164236Y-78458691D01*
X33082182Y-78188192D01*
X32948932Y-77938899D01*
X32769608Y-77720392D01*
X32551101Y-77541068D01*
X32418142Y-77470000D01*
X32551101Y-77398932D01*
X32769608Y-77219608D01*
X32948932Y-77001101D01*
X33082182Y-76751808D01*
X33164236Y-76481309D01*
X33191943Y-76200000D01*
X33164236Y-75918691D01*
X33082182Y-75648192D01*
X32948932Y-75398899D01*
X32769608Y-75180392D01*
X32551101Y-75001068D01*
X32418142Y-74930000D01*
X32551101Y-74858932D01*
X32769608Y-74679608D01*
X32948932Y-74461101D01*
X33082182Y-74211808D01*
X33164236Y-73941309D01*
X33191943Y-73660000D01*
X33164236Y-73378691D01*
X33082182Y-73108192D01*
X32948932Y-72858899D01*
X32769608Y-72640392D01*
X32551101Y-72461068D01*
X32418142Y-72390000D01*
X32551101Y-72318932D01*
X32769608Y-72139608D01*
X32948932Y-71921101D01*
X33082182Y-71671808D01*
X33164236Y-71401309D01*
X33191943Y-71120000D01*
X33164236Y-70838691D01*
X33082182Y-70568192D01*
X32948932Y-70318899D01*
X32769608Y-70100392D01*
X32551101Y-69921068D01*
X32418142Y-69850000D01*
X32551101Y-69778932D01*
X32769608Y-69599608D01*
X32948932Y-69381101D01*
X33082182Y-69131808D01*
X33164236Y-68861309D01*
X33191943Y-68580000D01*
X33164236Y-68298691D01*
X33082182Y-68028192D01*
X32948932Y-67778899D01*
X32769608Y-67560392D01*
X32551101Y-67381068D01*
X32418142Y-67310000D01*
X32551101Y-67238932D01*
X32769608Y-67059608D01*
X32948932Y-66841101D01*
X33082182Y-66591808D01*
X33164236Y-66321309D01*
X33191943Y-66040000D01*
X33164236Y-65758691D01*
X33082182Y-65488192D01*
X32948932Y-65238899D01*
X32769608Y-65020392D01*
X32551101Y-64841068D01*
X32418142Y-64770000D01*
X32551101Y-64698932D01*
X32769608Y-64519608D01*
X32948932Y-64301101D01*
X33082182Y-64051808D01*
X33164236Y-63781309D01*
X33191943Y-63500000D01*
X33164236Y-63218691D01*
X33082182Y-62948192D01*
X32948932Y-62698899D01*
X32769608Y-62480392D01*
X32551101Y-62301068D01*
X32418142Y-62230000D01*
X32551101Y-62158932D01*
X32769608Y-61979608D01*
X32948932Y-61761101D01*
X33082182Y-61511808D01*
X33164236Y-61241309D01*
X33191943Y-60960000D01*
X45548057Y-60960000D01*
X45575764Y-61241309D01*
X45657818Y-61511808D01*
X45791068Y-61761101D01*
X45970392Y-61979608D01*
X46188899Y-62158932D01*
X46321858Y-62230000D01*
X46188899Y-62301068D01*
X45970392Y-62480392D01*
X45791068Y-62698899D01*
X45657818Y-62948192D01*
X45575764Y-63218691D01*
X45548057Y-63500000D01*
X45575764Y-63781309D01*
X45657818Y-64051808D01*
X45791068Y-64301101D01*
X45970392Y-64519608D01*
X46188899Y-64698932D01*
X46321858Y-64770000D01*
X46188899Y-64841068D01*
X45970392Y-65020392D01*
X45791068Y-65238899D01*
X45657818Y-65488192D01*
X45575764Y-65758691D01*
X45548057Y-66040000D01*
X45575764Y-66321309D01*
X45657818Y-66591808D01*
X45791068Y-66841101D01*
X45970392Y-67059608D01*
X46188899Y-67238932D01*
X46321858Y-67310000D01*
X46188899Y-67381068D01*
X45970392Y-67560392D01*
X45791068Y-67778899D01*
X45657818Y-68028192D01*
X45575764Y-68298691D01*
X45548057Y-68580000D01*
X45575764Y-68861309D01*
X45657818Y-69131808D01*
X45791068Y-69381101D01*
X45970392Y-69599608D01*
X46188899Y-69778932D01*
X46321858Y-69850000D01*
X46188899Y-69921068D01*
X45970392Y-70100392D01*
X45791068Y-70318899D01*
X45657818Y-70568192D01*
X45575764Y-70838691D01*
X45548057Y-71120000D01*
X45575764Y-71401309D01*
X45657818Y-71671808D01*
X45791068Y-71921101D01*
X45970392Y-72139608D01*
X46188899Y-72318932D01*
X46321858Y-72390000D01*
X46188899Y-72461068D01*
X45970392Y-72640392D01*
X45791068Y-72858899D01*
X45657818Y-73108192D01*
X45575764Y-73378691D01*
X45548057Y-73660000D01*
X45575764Y-73941309D01*
X45657818Y-74211808D01*
X45791068Y-74461101D01*
X45970392Y-74679608D01*
X46188899Y-74858932D01*
X46321858Y-74930000D01*
X46188899Y-75001068D01*
X45970392Y-75180392D01*
X45791068Y-75398899D01*
X45657818Y-75648192D01*
X45575764Y-75918691D01*
X45548057Y-76200000D01*
X45575764Y-76481309D01*
X45657818Y-76751808D01*
X45791068Y-77001101D01*
X45970392Y-77219608D01*
X46188899Y-77398932D01*
X46321858Y-77470000D01*
X46188899Y-77541068D01*
X45970392Y-77720392D01*
X45791068Y-77938899D01*
X45657818Y-78188192D01*
X45575764Y-78458691D01*
X45548057Y-78740000D01*
X45575764Y-79021309D01*
X45657818Y-79291808D01*
X45791068Y-79541101D01*
X45970392Y-79759608D01*
X46188899Y-79938932D01*
X46321858Y-80010000D01*
X46188899Y-80081068D01*
X45970392Y-80260392D01*
X45791068Y-80478899D01*
X45657818Y-80728192D01*
X45575764Y-80998691D01*
X45548057Y-81280000D01*
X45575764Y-81561309D01*
X45657818Y-81831808D01*
X45791068Y-82081101D01*
X45970392Y-82299608D01*
X46188899Y-82478932D01*
X46321858Y-82550000D01*
X46188899Y-82621068D01*
X45970392Y-82800392D01*
X45791068Y-83018899D01*
X45657818Y-83268192D01*
X45575764Y-83538691D01*
X45548057Y-83820000D01*
X45575764Y-84101309D01*
X45657818Y-84371808D01*
X45791068Y-84621101D01*
X45970392Y-84839608D01*
X46188899Y-85018932D01*
X46321858Y-85090000D01*
X46188899Y-85161068D01*
X45970392Y-85340392D01*
X45791068Y-85558899D01*
X45657818Y-85808192D01*
X45575764Y-86078691D01*
X45548057Y-86360000D01*
X45575764Y-86641309D01*
X45657818Y-86911808D01*
X45791068Y-87161101D01*
X45970392Y-87379608D01*
X46188899Y-87558932D01*
X46321858Y-87630000D01*
X46188899Y-87701068D01*
X45970392Y-87880392D01*
X45791068Y-88098899D01*
X45657818Y-88348192D01*
X45575764Y-88618691D01*
X45548057Y-88900000D01*
X45575764Y-89181309D01*
X45657818Y-89451808D01*
X45791068Y-89701101D01*
X45970392Y-89919608D01*
X46188899Y-90098932D01*
X46321858Y-90170000D01*
X46188899Y-90241068D01*
X45970392Y-90420392D01*
X45791068Y-90638899D01*
X45657818Y-90888192D01*
X45575764Y-91158691D01*
X45548057Y-91440000D01*
X45575764Y-91721309D01*
X45657818Y-91991808D01*
X45791068Y-92241101D01*
X45970392Y-92459608D01*
X46188899Y-92638932D01*
X46438192Y-92772182D01*
X46708691Y-92854236D01*
X46919508Y-92875000D01*
X47060492Y-92875000D01*
X47271309Y-92854236D01*
X47541808Y-92772182D01*
X47791101Y-92638932D01*
X48009608Y-92459608D01*
X48188932Y-92241101D01*
X48322182Y-91991808D01*
X48404236Y-91721309D01*
X48431943Y-91440000D01*
X48404236Y-91158691D01*
X48322182Y-90888192D01*
X48188932Y-90638899D01*
X48009608Y-90420392D01*
X47791101Y-90241068D01*
X47658142Y-90170000D01*
X47791101Y-90098932D01*
X48009608Y-89919608D01*
X48188932Y-89701101D01*
X48322182Y-89451808D01*
X48404236Y-89181309D01*
X48431943Y-88900000D01*
X48404236Y-88618691D01*
X48322182Y-88348192D01*
X48188932Y-88098899D01*
X48009608Y-87880392D01*
X47791101Y-87701068D01*
X47658142Y-87630000D01*
X47791101Y-87558932D01*
X48009608Y-87379608D01*
X48188932Y-87161101D01*
X48322182Y-86911808D01*
X48404236Y-86641309D01*
X48431943Y-86360000D01*
X48404236Y-86078691D01*
X48322182Y-85808192D01*
X48188932Y-85558899D01*
X48009608Y-85340392D01*
X47791101Y-85161068D01*
X47658142Y-85090000D01*
X47791101Y-85018932D01*
X48009608Y-84839608D01*
X48188932Y-84621101D01*
X48322182Y-84371808D01*
X48404236Y-84101309D01*
X48431943Y-83820000D01*
X48404236Y-83538691D01*
X48322182Y-83268192D01*
X48188932Y-83018899D01*
X48009608Y-82800392D01*
X47791101Y-82621068D01*
X47658142Y-82550000D01*
X47791101Y-82478932D01*
X48009608Y-82299608D01*
X48188932Y-82081101D01*
X48322182Y-81831808D01*
X48404236Y-81561309D01*
X48431943Y-81280000D01*
X48404236Y-80998691D01*
X48322182Y-80728192D01*
X48188932Y-80478899D01*
X48009608Y-80260392D01*
X47791101Y-80081068D01*
X47658142Y-80010000D01*
X47791101Y-79938932D01*
X48009608Y-79759608D01*
X48188932Y-79541101D01*
X48322182Y-79291808D01*
X48404236Y-79021309D01*
X48431943Y-78740000D01*
X48404236Y-78458691D01*
X48322182Y-78188192D01*
X48188932Y-77938899D01*
X48009608Y-77720392D01*
X47791101Y-77541068D01*
X47658142Y-77470000D01*
X47791101Y-77398932D01*
X48009608Y-77219608D01*
X48188932Y-77001101D01*
X48322182Y-76751808D01*
X48404236Y-76481309D01*
X48431943Y-76200000D01*
X48404236Y-75918691D01*
X48322182Y-75648192D01*
X48188932Y-75398899D01*
X48009608Y-75180392D01*
X47791101Y-75001068D01*
X47658142Y-74930000D01*
X47791101Y-74858932D01*
X48009608Y-74679608D01*
X48188932Y-74461101D01*
X48322182Y-74211808D01*
X48404236Y-73941309D01*
X48431943Y-73660000D01*
X48404236Y-73378691D01*
X48322182Y-73108192D01*
X48188932Y-72858899D01*
X48009608Y-72640392D01*
X47791101Y-72461068D01*
X47658142Y-72390000D01*
X47791101Y-72318932D01*
X48009608Y-72139608D01*
X48188932Y-71921101D01*
X48322182Y-71671808D01*
X48404236Y-71401309D01*
X48431943Y-71120000D01*
X48404236Y-70838691D01*
X48322182Y-70568192D01*
X48188932Y-70318899D01*
X48009608Y-70100392D01*
X47791101Y-69921068D01*
X47658142Y-69850000D01*
X47791101Y-69778932D01*
X48009608Y-69599608D01*
X48188932Y-69381101D01*
X48322182Y-69131808D01*
X48404236Y-68861309D01*
X48431943Y-68580000D01*
X48404236Y-68298691D01*
X48322182Y-68028192D01*
X48188932Y-67778899D01*
X48009608Y-67560392D01*
X47791101Y-67381068D01*
X47658142Y-67310000D01*
X47791101Y-67238932D01*
X48009608Y-67059608D01*
X48188932Y-66841101D01*
X48322182Y-66591808D01*
X48404236Y-66321309D01*
X48431943Y-66040000D01*
X48404236Y-65758691D01*
X48322182Y-65488192D01*
X48188932Y-65238899D01*
X48009608Y-65020392D01*
X47791101Y-64841068D01*
X47658142Y-64770000D01*
X47791101Y-64698932D01*
X48009608Y-64519608D01*
X48188932Y-64301101D01*
X48322182Y-64051808D01*
X48404236Y-63781309D01*
X48431943Y-63500000D01*
X48404236Y-63218691D01*
X48394621Y-63186993D01*
X65262612Y-63186993D01*
X65328137Y-63425860D01*
X65575116Y-63541760D01*
X65839960Y-63607250D01*
X66112492Y-63619812D01*
X66382238Y-63578965D01*
X66638832Y-63486277D01*
X66751863Y-63425860D01*
X66817388Y-63186993D01*
X66040000Y-62409605D01*
X65262612Y-63186993D01*
X48394621Y-63186993D01*
X48322182Y-62948192D01*
X48188932Y-62698899D01*
X48009608Y-62480392D01*
X47792837Y-62302492D01*
X64650188Y-62302492D01*
X64691035Y-62572238D01*
X64783723Y-62828832D01*
X64844140Y-62941863D01*
X65083007Y-63007388D01*
X65860395Y-62230000D01*
X66219605Y-62230000D01*
X66996993Y-63007388D01*
X67235860Y-62941863D01*
X67351760Y-62694884D01*
X67417250Y-62430040D01*
X67429812Y-62157508D01*
X67388965Y-61887762D01*
X67296277Y-61631168D01*
X67235860Y-61518137D01*
X66996993Y-61452612D01*
X66219605Y-62230000D01*
X65860395Y-62230000D01*
X65083007Y-61452612D01*
X64844140Y-61518137D01*
X64728240Y-61765116D01*
X64662750Y-62029960D01*
X64650188Y-62302492D01*
X47792837Y-62302492D01*
X47791101Y-62301068D01*
X47658142Y-62230000D01*
X47791101Y-62158932D01*
X48009608Y-61979608D01*
X48188932Y-61761101D01*
X48322182Y-61511808D01*
X48404236Y-61241309D01*
X48431943Y-60960000D01*
X48404236Y-60678691D01*
X48322182Y-60408192D01*
X48188932Y-60158899D01*
X48009608Y-59940392D01*
X47791101Y-59761068D01*
X47653318Y-59687421D01*
X47845131Y-59572385D01*
X48053519Y-59383414D01*
X48221037Y-59157420D01*
X48341246Y-58903087D01*
X48381904Y-58769039D01*
X48259915Y-58547000D01*
X47117000Y-58547000D01*
X47117000Y-58567000D01*
X46863000Y-58567000D01*
X46863000Y-58547000D01*
X45720085Y-58547000D01*
X45598096Y-58769039D01*
X45638754Y-58903087D01*
X45758963Y-59157420D01*
X45926481Y-59383414D01*
X46134869Y-59572385D01*
X46326682Y-59687421D01*
X46188899Y-59761068D01*
X45970392Y-59940392D01*
X45791068Y-60158899D01*
X45657818Y-60408192D01*
X45575764Y-60678691D01*
X45548057Y-60960000D01*
X33191943Y-60960000D01*
X33164236Y-60678691D01*
X33082182Y-60408192D01*
X32948932Y-60158899D01*
X32769608Y-59940392D01*
X32551101Y-59761068D01*
X32418142Y-59690000D01*
X32551101Y-59618932D01*
X32769608Y-59439608D01*
X32948932Y-59221101D01*
X33082182Y-58971808D01*
X33164236Y-58701309D01*
X33191943Y-58420000D01*
X33164236Y-58138691D01*
X33082182Y-57868192D01*
X32948932Y-57618899D01*
X32769608Y-57400392D01*
X32656518Y-57307581D01*
X32674482Y-57305812D01*
X32794180Y-57269502D01*
X32904494Y-57210537D01*
X33001185Y-57131185D01*
X33080537Y-57034494D01*
X33139502Y-56924180D01*
X33175812Y-56804482D01*
X33188072Y-56680000D01*
X33188072Y-55880000D01*
X45548057Y-55880000D01*
X45575764Y-56161309D01*
X45657818Y-56431808D01*
X45791068Y-56681101D01*
X45970392Y-56899608D01*
X46188899Y-57078932D01*
X46326682Y-57152579D01*
X46134869Y-57267615D01*
X45926481Y-57456586D01*
X45758963Y-57682580D01*
X45638754Y-57936913D01*
X45598096Y-58070961D01*
X45720085Y-58293000D01*
X46863000Y-58293000D01*
X46863000Y-58273000D01*
X47117000Y-58273000D01*
X47117000Y-58293000D01*
X48259915Y-58293000D01*
X48381904Y-58070961D01*
X48341246Y-57936913D01*
X48221037Y-57682580D01*
X48053519Y-57456586D01*
X47845131Y-57267615D01*
X47653318Y-57152579D01*
X47791101Y-57078932D01*
X48009608Y-56899608D01*
X48188932Y-56681101D01*
X48322182Y-56431808D01*
X48404236Y-56161309D01*
X48431943Y-55880000D01*
X48404236Y-55598691D01*
X48322182Y-55328192D01*
X48188932Y-55078899D01*
X48009608Y-54860392D01*
X47791101Y-54681068D01*
X47541808Y-54547818D01*
X47271309Y-54465764D01*
X47060492Y-54445000D01*
X46919508Y-54445000D01*
X46708691Y-54465764D01*
X46438192Y-54547818D01*
X46188899Y-54681068D01*
X45970392Y-54860392D01*
X45791068Y-55078899D01*
X45657818Y-55328192D01*
X45575764Y-55598691D01*
X45548057Y-55880000D01*
X33188072Y-55880000D01*
X33188072Y-55080000D01*
X33175812Y-54955518D01*
X33139502Y-54835820D01*
X33080537Y-54725506D01*
X33001185Y-54628815D01*
X32904494Y-54549463D01*
X32794180Y-54490498D01*
X32674482Y-54454188D01*
X32550000Y-54441928D01*
X30950000Y-54441928D01*
X30825518Y-54454188D01*
X30705820Y-54490498D01*
X30595506Y-54549463D01*
X30498815Y-54628815D01*
X30419463Y-54725506D01*
X30360498Y-54835820D01*
X30324188Y-54955518D01*
X30311928Y-55080000D01*
X30311928Y-56680000D01*
X30324188Y-56804482D01*
X30360498Y-56924180D01*
X30419463Y-57034494D01*
X30498815Y-57131185D01*
X30595506Y-57210537D01*
X30705820Y-57269502D01*
X30825518Y-57305812D01*
X30843482Y-57307581D01*
X30730392Y-57400392D01*
X30551068Y-57618899D01*
X30417818Y-57868192D01*
X30335764Y-58138691D01*
X30308057Y-58420000D01*
X24257000Y-58420000D01*
X24257000Y-53860000D01*
X64651928Y-53860000D01*
X64651928Y-55360000D01*
X64664188Y-55484482D01*
X64700498Y-55604180D01*
X64759463Y-55714494D01*
X64838815Y-55811185D01*
X64935506Y-55890537D01*
X65045820Y-55949502D01*
X65165518Y-55985812D01*
X65273483Y-55996445D01*
X65157114Y-56074201D01*
X64964201Y-56267114D01*
X64812629Y-56493957D01*
X64708225Y-56746011D01*
X64655000Y-57013589D01*
X64655000Y-57286411D01*
X64708225Y-57553989D01*
X64812629Y-57806043D01*
X64964201Y-58032886D01*
X65157114Y-58225799D01*
X65383957Y-58377371D01*
X65486873Y-58420000D01*
X65383957Y-58462629D01*
X65157114Y-58614201D01*
X64964201Y-58807114D01*
X64812629Y-59033957D01*
X64708225Y-59286011D01*
X64655000Y-59553589D01*
X64655000Y-59826411D01*
X64708225Y-60093989D01*
X64812629Y-60346043D01*
X64964201Y-60572886D01*
X65157114Y-60765799D01*
X65383957Y-60917371D01*
X65483279Y-60958511D01*
X65441168Y-60973723D01*
X65328137Y-61034140D01*
X65262612Y-61273007D01*
X66040000Y-62050395D01*
X66817388Y-61273007D01*
X66751863Y-61034140D01*
X66593523Y-60959836D01*
X66696043Y-60917371D01*
X66922886Y-60765799D01*
X67115799Y-60572886D01*
X67267371Y-60346043D01*
X67371775Y-60093989D01*
X67425000Y-59826411D01*
X67425000Y-59553589D01*
X67371775Y-59286011D01*
X67267371Y-59033957D01*
X67115799Y-58807114D01*
X66922886Y-58614201D01*
X66696043Y-58462629D01*
X66593127Y-58420000D01*
X66696043Y-58377371D01*
X66922886Y-58225799D01*
X67115799Y-58032886D01*
X67267371Y-57806043D01*
X67371775Y-57553989D01*
X67425000Y-57286411D01*
X67425000Y-57013589D01*
X67371775Y-56746011D01*
X67267371Y-56493957D01*
X67115799Y-56267114D01*
X66922886Y-56074201D01*
X66806517Y-55996445D01*
X66914482Y-55985812D01*
X67034180Y-55949502D01*
X67144494Y-55890537D01*
X67241185Y-55811185D01*
X67320537Y-55714494D01*
X67379502Y-55604180D01*
X67415812Y-55484482D01*
X67428072Y-55360000D01*
X67428072Y-53860000D01*
X67415812Y-53735518D01*
X67379502Y-53615820D01*
X67320537Y-53505506D01*
X67241185Y-53408815D01*
X67144494Y-53329463D01*
X67034180Y-53270498D01*
X66914482Y-53234188D01*
X66790000Y-53221928D01*
X65290000Y-53221928D01*
X65165518Y-53234188D01*
X65045820Y-53270498D01*
X64935506Y-53329463D01*
X64838815Y-53408815D01*
X64759463Y-53505506D01*
X64700498Y-53615820D01*
X64664188Y-53735518D01*
X64651928Y-53860000D01*
X24257000Y-53860000D01*
X24257000Y-47117000D01*
X74803000Y-47117000D01*
X74803000Y-104013000D01*
X74803000Y-104013000D01*
G37*
X74803000Y-104013000D02*
X24257000Y-104013000D01*
X24257000Y-58420000D01*
X30308057Y-58420000D01*
X30335764Y-58701309D01*
X30417818Y-58971808D01*
X30551068Y-59221101D01*
X30730392Y-59439608D01*
X30948899Y-59618932D01*
X31081858Y-59690000D01*
X30948899Y-59761068D01*
X30730392Y-59940392D01*
X30551068Y-60158899D01*
X30417818Y-60408192D01*
X30335764Y-60678691D01*
X30308057Y-60960000D01*
X30335764Y-61241309D01*
X30417818Y-61511808D01*
X30551068Y-61761101D01*
X30730392Y-61979608D01*
X30948899Y-62158932D01*
X31081858Y-62230000D01*
X30948899Y-62301068D01*
X30730392Y-62480392D01*
X30551068Y-62698899D01*
X30417818Y-62948192D01*
X30335764Y-63218691D01*
X30308057Y-63500000D01*
X30335764Y-63781309D01*
X30417818Y-64051808D01*
X30551068Y-64301101D01*
X30730392Y-64519608D01*
X30948899Y-64698932D01*
X31081858Y-64770000D01*
X30948899Y-64841068D01*
X30730392Y-65020392D01*
X30551068Y-65238899D01*
X30417818Y-65488192D01*
X30335764Y-65758691D01*
X30308057Y-66040000D01*
X30335764Y-66321309D01*
X30417818Y-66591808D01*
X30551068Y-66841101D01*
X30730392Y-67059608D01*
X30948899Y-67238932D01*
X31081858Y-67310000D01*
X30948899Y-67381068D01*
X30730392Y-67560392D01*
X30551068Y-67778899D01*
X30417818Y-68028192D01*
X30335764Y-68298691D01*
X30308057Y-68580000D01*
X30335764Y-68861309D01*
X30417818Y-69131808D01*
X30551068Y-69381101D01*
X30730392Y-69599608D01*
X30948899Y-69778932D01*
X31081858Y-69850000D01*
X30948899Y-69921068D01*
X30730392Y-70100392D01*
X30551068Y-70318899D01*
X30417818Y-70568192D01*
X30335764Y-70838691D01*
X30308057Y-71120000D01*
X30335764Y-71401309D01*
X30417818Y-71671808D01*
X30551068Y-71921101D01*
X30730392Y-72139608D01*
X30948899Y-72318932D01*
X31081858Y-72390000D01*
X30948899Y-72461068D01*
X30730392Y-72640392D01*
X30551068Y-72858899D01*
X30417818Y-73108192D01*
X30335764Y-73378691D01*
X30308057Y-73660000D01*
X30335764Y-73941309D01*
X30417818Y-74211808D01*
X30551068Y-74461101D01*
X30730392Y-74679608D01*
X30948899Y-74858932D01*
X31081858Y-74930000D01*
X30948899Y-75001068D01*
X30730392Y-75180392D01*
X30551068Y-75398899D01*
X30417818Y-75648192D01*
X30335764Y-75918691D01*
X30308057Y-76200000D01*
X30335764Y-76481309D01*
X30417818Y-76751808D01*
X30551068Y-77001101D01*
X30730392Y-77219608D01*
X30948899Y-77398932D01*
X31081858Y-77470000D01*
X30948899Y-77541068D01*
X30730392Y-77720392D01*
X30551068Y-77938899D01*
X30417818Y-78188192D01*
X30335764Y-78458691D01*
X30308057Y-78740000D01*
X30335764Y-79021309D01*
X30417818Y-79291808D01*
X30551068Y-79541101D01*
X30730392Y-79759608D01*
X30948899Y-79938932D01*
X31081858Y-80010000D01*
X30948899Y-80081068D01*
X30730392Y-80260392D01*
X30551068Y-80478899D01*
X30417818Y-80728192D01*
X30335764Y-80998691D01*
X30308057Y-81280000D01*
X30335764Y-81561309D01*
X30417818Y-81831808D01*
X30551068Y-82081101D01*
X30730392Y-82299608D01*
X30948899Y-82478932D01*
X31081858Y-82550000D01*
X30948899Y-82621068D01*
X30730392Y-82800392D01*
X30551068Y-83018899D01*
X30417818Y-83268192D01*
X30335764Y-83538691D01*
X30308057Y-83820000D01*
X30335764Y-84101309D01*
X30417818Y-84371808D01*
X30551068Y-84621101D01*
X30730392Y-84839608D01*
X30948899Y-85018932D01*
X31081858Y-85090000D01*
X30948899Y-85161068D01*
X30730392Y-85340392D01*
X30551068Y-85558899D01*
X30417818Y-85808192D01*
X30335764Y-86078691D01*
X30308057Y-86360000D01*
X30335764Y-86641309D01*
X30417818Y-86911808D01*
X30551068Y-87161101D01*
X30730392Y-87379608D01*
X30948899Y-87558932D01*
X31081858Y-87630000D01*
X30948899Y-87701068D01*
X30730392Y-87880392D01*
X30551068Y-88098899D01*
X30417818Y-88348192D01*
X30335764Y-88618691D01*
X30308057Y-88900000D01*
X30335764Y-89181309D01*
X30417818Y-89451808D01*
X30551068Y-89701101D01*
X30730392Y-89919608D01*
X30948899Y-90098932D01*
X31081858Y-90170000D01*
X30948899Y-90241068D01*
X30730392Y-90420392D01*
X30551068Y-90638899D01*
X30417818Y-90888192D01*
X30335764Y-91158691D01*
X30308057Y-91440000D01*
X30335764Y-91721309D01*
X30417818Y-91991808D01*
X30551068Y-92241101D01*
X30730392Y-92459608D01*
X30948899Y-92638932D01*
X31198192Y-92772182D01*
X31468691Y-92854236D01*
X31679508Y-92875000D01*
X31820492Y-92875000D01*
X32031309Y-92854236D01*
X32301808Y-92772182D01*
X32551101Y-92638932D01*
X32769608Y-92459608D01*
X32948932Y-92241101D01*
X33082182Y-91991808D01*
X33164236Y-91721309D01*
X33191943Y-91440000D01*
X33164236Y-91158691D01*
X33082182Y-90888192D01*
X32948932Y-90638899D01*
X32769608Y-90420392D01*
X32551101Y-90241068D01*
X32418142Y-90170000D01*
X32551101Y-90098932D01*
X32769608Y-89919608D01*
X32948932Y-89701101D01*
X33082182Y-89451808D01*
X33164236Y-89181309D01*
X33191943Y-88900000D01*
X33164236Y-88618691D01*
X33082182Y-88348192D01*
X32948932Y-88098899D01*
X32769608Y-87880392D01*
X32551101Y-87701068D01*
X32418142Y-87630000D01*
X32551101Y-87558932D01*
X32769608Y-87379608D01*
X32948932Y-87161101D01*
X33082182Y-86911808D01*
X33164236Y-86641309D01*
X33191943Y-86360000D01*
X33164236Y-86078691D01*
X33082182Y-85808192D01*
X32948932Y-85558899D01*
X32769608Y-85340392D01*
X32551101Y-85161068D01*
X32418142Y-85090000D01*
X32551101Y-85018932D01*
X32769608Y-84839608D01*
X32948932Y-84621101D01*
X33082182Y-84371808D01*
X33164236Y-84101309D01*
X33191943Y-83820000D01*
X33164236Y-83538691D01*
X33082182Y-83268192D01*
X32948932Y-83018899D01*
X32769608Y-82800392D01*
X32551101Y-82621068D01*
X32418142Y-82550000D01*
X32551101Y-82478932D01*
X32769608Y-82299608D01*
X32948932Y-82081101D01*
X33082182Y-81831808D01*
X33164236Y-81561309D01*
X33191943Y-81280000D01*
X33164236Y-80998691D01*
X33082182Y-80728192D01*
X32948932Y-80478899D01*
X32769608Y-80260392D01*
X32551101Y-80081068D01*
X32418142Y-80010000D01*
X32551101Y-79938932D01*
X32769608Y-79759608D01*
X32948932Y-79541101D01*
X33082182Y-79291808D01*
X33164236Y-79021309D01*
X33191943Y-78740000D01*
X33164236Y-78458691D01*
X33082182Y-78188192D01*
X32948932Y-77938899D01*
X32769608Y-77720392D01*
X32551101Y-77541068D01*
X32418142Y-77470000D01*
X32551101Y-77398932D01*
X32769608Y-77219608D01*
X32948932Y-77001101D01*
X33082182Y-76751808D01*
X33164236Y-76481309D01*
X33191943Y-76200000D01*
X33164236Y-75918691D01*
X33082182Y-75648192D01*
X32948932Y-75398899D01*
X32769608Y-75180392D01*
X32551101Y-75001068D01*
X32418142Y-74930000D01*
X32551101Y-74858932D01*
X32769608Y-74679608D01*
X32948932Y-74461101D01*
X33082182Y-74211808D01*
X33164236Y-73941309D01*
X33191943Y-73660000D01*
X33164236Y-73378691D01*
X33082182Y-73108192D01*
X32948932Y-72858899D01*
X32769608Y-72640392D01*
X32551101Y-72461068D01*
X32418142Y-72390000D01*
X32551101Y-72318932D01*
X32769608Y-72139608D01*
X32948932Y-71921101D01*
X33082182Y-71671808D01*
X33164236Y-71401309D01*
X33191943Y-71120000D01*
X33164236Y-70838691D01*
X33082182Y-70568192D01*
X32948932Y-70318899D01*
X32769608Y-70100392D01*
X32551101Y-69921068D01*
X32418142Y-69850000D01*
X32551101Y-69778932D01*
X32769608Y-69599608D01*
X32948932Y-69381101D01*
X33082182Y-69131808D01*
X33164236Y-68861309D01*
X33191943Y-68580000D01*
X33164236Y-68298691D01*
X33082182Y-68028192D01*
X32948932Y-67778899D01*
X32769608Y-67560392D01*
X32551101Y-67381068D01*
X32418142Y-67310000D01*
X32551101Y-67238932D01*
X32769608Y-67059608D01*
X32948932Y-66841101D01*
X33082182Y-66591808D01*
X33164236Y-66321309D01*
X33191943Y-66040000D01*
X33164236Y-65758691D01*
X33082182Y-65488192D01*
X32948932Y-65238899D01*
X32769608Y-65020392D01*
X32551101Y-64841068D01*
X32418142Y-64770000D01*
X32551101Y-64698932D01*
X32769608Y-64519608D01*
X32948932Y-64301101D01*
X33082182Y-64051808D01*
X33164236Y-63781309D01*
X33191943Y-63500000D01*
X33164236Y-63218691D01*
X33082182Y-62948192D01*
X32948932Y-62698899D01*
X32769608Y-62480392D01*
X32551101Y-62301068D01*
X32418142Y-62230000D01*
X32551101Y-62158932D01*
X32769608Y-61979608D01*
X32948932Y-61761101D01*
X33082182Y-61511808D01*
X33164236Y-61241309D01*
X33191943Y-60960000D01*
X45548057Y-60960000D01*
X45575764Y-61241309D01*
X45657818Y-61511808D01*
X45791068Y-61761101D01*
X45970392Y-61979608D01*
X46188899Y-62158932D01*
X46321858Y-62230000D01*
X46188899Y-62301068D01*
X45970392Y-62480392D01*
X45791068Y-62698899D01*
X45657818Y-62948192D01*
X45575764Y-63218691D01*
X45548057Y-63500000D01*
X45575764Y-63781309D01*
X45657818Y-64051808D01*
X45791068Y-64301101D01*
X45970392Y-64519608D01*
X46188899Y-64698932D01*
X46321858Y-64770000D01*
X46188899Y-64841068D01*
X45970392Y-65020392D01*
X45791068Y-65238899D01*
X45657818Y-65488192D01*
X45575764Y-65758691D01*
X45548057Y-66040000D01*
X45575764Y-66321309D01*
X45657818Y-66591808D01*
X45791068Y-66841101D01*
X45970392Y-67059608D01*
X46188899Y-67238932D01*
X46321858Y-67310000D01*
X46188899Y-67381068D01*
X45970392Y-67560392D01*
X45791068Y-67778899D01*
X45657818Y-68028192D01*
X45575764Y-68298691D01*
X45548057Y-68580000D01*
X45575764Y-68861309D01*
X45657818Y-69131808D01*
X45791068Y-69381101D01*
X45970392Y-69599608D01*
X46188899Y-69778932D01*
X46321858Y-69850000D01*
X46188899Y-69921068D01*
X45970392Y-70100392D01*
X45791068Y-70318899D01*
X45657818Y-70568192D01*
X45575764Y-70838691D01*
X45548057Y-71120000D01*
X45575764Y-71401309D01*
X45657818Y-71671808D01*
X45791068Y-71921101D01*
X45970392Y-72139608D01*
X46188899Y-72318932D01*
X46321858Y-72390000D01*
X46188899Y-72461068D01*
X45970392Y-72640392D01*
X45791068Y-72858899D01*
X45657818Y-73108192D01*
X45575764Y-73378691D01*
X45548057Y-73660000D01*
X45575764Y-73941309D01*
X45657818Y-74211808D01*
X45791068Y-74461101D01*
X45970392Y-74679608D01*
X46188899Y-74858932D01*
X46321858Y-74930000D01*
X46188899Y-75001068D01*
X45970392Y-75180392D01*
X45791068Y-75398899D01*
X45657818Y-75648192D01*
X45575764Y-75918691D01*
X45548057Y-76200000D01*
X45575764Y-76481309D01*
X45657818Y-76751808D01*
X45791068Y-77001101D01*
X45970392Y-77219608D01*
X46188899Y-77398932D01*
X46321858Y-77470000D01*
X46188899Y-77541068D01*
X45970392Y-77720392D01*
X45791068Y-77938899D01*
X45657818Y-78188192D01*
X45575764Y-78458691D01*
X45548057Y-78740000D01*
X45575764Y-79021309D01*
X45657818Y-79291808D01*
X45791068Y-79541101D01*
X45970392Y-79759608D01*
X46188899Y-79938932D01*
X46321858Y-80010000D01*
X46188899Y-80081068D01*
X45970392Y-80260392D01*
X45791068Y-80478899D01*
X45657818Y-80728192D01*
X45575764Y-80998691D01*
X45548057Y-81280000D01*
X45575764Y-81561309D01*
X45657818Y-81831808D01*
X45791068Y-82081101D01*
X45970392Y-82299608D01*
X46188899Y-82478932D01*
X46321858Y-82550000D01*
X46188899Y-82621068D01*
X45970392Y-82800392D01*
X45791068Y-83018899D01*
X45657818Y-83268192D01*
X45575764Y-83538691D01*
X45548057Y-83820000D01*
X45575764Y-84101309D01*
X45657818Y-84371808D01*
X45791068Y-84621101D01*
X45970392Y-84839608D01*
X46188899Y-85018932D01*
X46321858Y-85090000D01*
X46188899Y-85161068D01*
X45970392Y-85340392D01*
X45791068Y-85558899D01*
X45657818Y-85808192D01*
X45575764Y-86078691D01*
X45548057Y-86360000D01*
X45575764Y-86641309D01*
X45657818Y-86911808D01*
X45791068Y-87161101D01*
X45970392Y-87379608D01*
X46188899Y-87558932D01*
X46321858Y-87630000D01*
X46188899Y-87701068D01*
X45970392Y-87880392D01*
X45791068Y-88098899D01*
X45657818Y-88348192D01*
X45575764Y-88618691D01*
X45548057Y-88900000D01*
X45575764Y-89181309D01*
X45657818Y-89451808D01*
X45791068Y-89701101D01*
X45970392Y-89919608D01*
X46188899Y-90098932D01*
X46321858Y-90170000D01*
X46188899Y-90241068D01*
X45970392Y-90420392D01*
X45791068Y-90638899D01*
X45657818Y-90888192D01*
X45575764Y-91158691D01*
X45548057Y-91440000D01*
X45575764Y-91721309D01*
X45657818Y-91991808D01*
X45791068Y-92241101D01*
X45970392Y-92459608D01*
X46188899Y-92638932D01*
X46438192Y-92772182D01*
X46708691Y-92854236D01*
X46919508Y-92875000D01*
X47060492Y-92875000D01*
X47271309Y-92854236D01*
X47541808Y-92772182D01*
X47791101Y-92638932D01*
X48009608Y-92459608D01*
X48188932Y-92241101D01*
X48322182Y-91991808D01*
X48404236Y-91721309D01*
X48431943Y-91440000D01*
X48404236Y-91158691D01*
X48322182Y-90888192D01*
X48188932Y-90638899D01*
X48009608Y-90420392D01*
X47791101Y-90241068D01*
X47658142Y-90170000D01*
X47791101Y-90098932D01*
X48009608Y-89919608D01*
X48188932Y-89701101D01*
X48322182Y-89451808D01*
X48404236Y-89181309D01*
X48431943Y-88900000D01*
X48404236Y-88618691D01*
X48322182Y-88348192D01*
X48188932Y-88098899D01*
X48009608Y-87880392D01*
X47791101Y-87701068D01*
X47658142Y-87630000D01*
X47791101Y-87558932D01*
X48009608Y-87379608D01*
X48188932Y-87161101D01*
X48322182Y-86911808D01*
X48404236Y-86641309D01*
X48431943Y-86360000D01*
X48404236Y-86078691D01*
X48322182Y-85808192D01*
X48188932Y-85558899D01*
X48009608Y-85340392D01*
X47791101Y-85161068D01*
X47658142Y-85090000D01*
X47791101Y-85018932D01*
X48009608Y-84839608D01*
X48188932Y-84621101D01*
X48322182Y-84371808D01*
X48404236Y-84101309D01*
X48431943Y-83820000D01*
X48404236Y-83538691D01*
X48322182Y-83268192D01*
X48188932Y-83018899D01*
X48009608Y-82800392D01*
X47791101Y-82621068D01*
X47658142Y-82550000D01*
X47791101Y-82478932D01*
X48009608Y-82299608D01*
X48188932Y-82081101D01*
X48322182Y-81831808D01*
X48404236Y-81561309D01*
X48431943Y-81280000D01*
X48404236Y-80998691D01*
X48322182Y-80728192D01*
X48188932Y-80478899D01*
X48009608Y-80260392D01*
X47791101Y-80081068D01*
X47658142Y-80010000D01*
X47791101Y-79938932D01*
X48009608Y-79759608D01*
X48188932Y-79541101D01*
X48322182Y-79291808D01*
X48404236Y-79021309D01*
X48431943Y-78740000D01*
X48404236Y-78458691D01*
X48322182Y-78188192D01*
X48188932Y-77938899D01*
X48009608Y-77720392D01*
X47791101Y-77541068D01*
X47658142Y-77470000D01*
X47791101Y-77398932D01*
X48009608Y-77219608D01*
X48188932Y-77001101D01*
X48322182Y-76751808D01*
X48404236Y-76481309D01*
X48431943Y-76200000D01*
X48404236Y-75918691D01*
X48322182Y-75648192D01*
X48188932Y-75398899D01*
X48009608Y-75180392D01*
X47791101Y-75001068D01*
X47658142Y-74930000D01*
X47791101Y-74858932D01*
X48009608Y-74679608D01*
X48188932Y-74461101D01*
X48322182Y-74211808D01*
X48404236Y-73941309D01*
X48431943Y-73660000D01*
X48404236Y-73378691D01*
X48322182Y-73108192D01*
X48188932Y-72858899D01*
X48009608Y-72640392D01*
X47791101Y-72461068D01*
X47658142Y-72390000D01*
X47791101Y-72318932D01*
X48009608Y-72139608D01*
X48188932Y-71921101D01*
X48322182Y-71671808D01*
X48404236Y-71401309D01*
X48431943Y-71120000D01*
X48404236Y-70838691D01*
X48322182Y-70568192D01*
X48188932Y-70318899D01*
X48009608Y-70100392D01*
X47791101Y-69921068D01*
X47658142Y-69850000D01*
X47791101Y-69778932D01*
X48009608Y-69599608D01*
X48188932Y-69381101D01*
X48322182Y-69131808D01*
X48404236Y-68861309D01*
X48431943Y-68580000D01*
X48404236Y-68298691D01*
X48322182Y-68028192D01*
X48188932Y-67778899D01*
X48009608Y-67560392D01*
X47791101Y-67381068D01*
X47658142Y-67310000D01*
X47791101Y-67238932D01*
X48009608Y-67059608D01*
X48188932Y-66841101D01*
X48322182Y-66591808D01*
X48404236Y-66321309D01*
X48431943Y-66040000D01*
X48404236Y-65758691D01*
X48322182Y-65488192D01*
X48188932Y-65238899D01*
X48009608Y-65020392D01*
X47791101Y-64841068D01*
X47658142Y-64770000D01*
X47791101Y-64698932D01*
X48009608Y-64519608D01*
X48188932Y-64301101D01*
X48322182Y-64051808D01*
X48404236Y-63781309D01*
X48431943Y-63500000D01*
X48404236Y-63218691D01*
X48394621Y-63186993D01*
X65262612Y-63186993D01*
X65328137Y-63425860D01*
X65575116Y-63541760D01*
X65839960Y-63607250D01*
X66112492Y-63619812D01*
X66382238Y-63578965D01*
X66638832Y-63486277D01*
X66751863Y-63425860D01*
X66817388Y-63186993D01*
X66040000Y-62409605D01*
X65262612Y-63186993D01*
X48394621Y-63186993D01*
X48322182Y-62948192D01*
X48188932Y-62698899D01*
X48009608Y-62480392D01*
X47792837Y-62302492D01*
X64650188Y-62302492D01*
X64691035Y-62572238D01*
X64783723Y-62828832D01*
X64844140Y-62941863D01*
X65083007Y-63007388D01*
X65860395Y-62230000D01*
X66219605Y-62230000D01*
X66996993Y-63007388D01*
X67235860Y-62941863D01*
X67351760Y-62694884D01*
X67417250Y-62430040D01*
X67429812Y-62157508D01*
X67388965Y-61887762D01*
X67296277Y-61631168D01*
X67235860Y-61518137D01*
X66996993Y-61452612D01*
X66219605Y-62230000D01*
X65860395Y-62230000D01*
X65083007Y-61452612D01*
X64844140Y-61518137D01*
X64728240Y-61765116D01*
X64662750Y-62029960D01*
X64650188Y-62302492D01*
X47792837Y-62302492D01*
X47791101Y-62301068D01*
X47658142Y-62230000D01*
X47791101Y-62158932D01*
X48009608Y-61979608D01*
X48188932Y-61761101D01*
X48322182Y-61511808D01*
X48404236Y-61241309D01*
X48431943Y-60960000D01*
X48404236Y-60678691D01*
X48322182Y-60408192D01*
X48188932Y-60158899D01*
X48009608Y-59940392D01*
X47791101Y-59761068D01*
X47653318Y-59687421D01*
X47845131Y-59572385D01*
X48053519Y-59383414D01*
X48221037Y-59157420D01*
X48341246Y-58903087D01*
X48381904Y-58769039D01*
X48259915Y-58547000D01*
X47117000Y-58547000D01*
X47117000Y-58567000D01*
X46863000Y-58567000D01*
X46863000Y-58547000D01*
X45720085Y-58547000D01*
X45598096Y-58769039D01*
X45638754Y-58903087D01*
X45758963Y-59157420D01*
X45926481Y-59383414D01*
X46134869Y-59572385D01*
X46326682Y-59687421D01*
X46188899Y-59761068D01*
X45970392Y-59940392D01*
X45791068Y-60158899D01*
X45657818Y-60408192D01*
X45575764Y-60678691D01*
X45548057Y-60960000D01*
X33191943Y-60960000D01*
X33164236Y-60678691D01*
X33082182Y-60408192D01*
X32948932Y-60158899D01*
X32769608Y-59940392D01*
X32551101Y-59761068D01*
X32418142Y-59690000D01*
X32551101Y-59618932D01*
X32769608Y-59439608D01*
X32948932Y-59221101D01*
X33082182Y-58971808D01*
X33164236Y-58701309D01*
X33191943Y-58420000D01*
X33164236Y-58138691D01*
X33082182Y-57868192D01*
X32948932Y-57618899D01*
X32769608Y-57400392D01*
X32656518Y-57307581D01*
X32674482Y-57305812D01*
X32794180Y-57269502D01*
X32904494Y-57210537D01*
X33001185Y-57131185D01*
X33080537Y-57034494D01*
X33139502Y-56924180D01*
X33175812Y-56804482D01*
X33188072Y-56680000D01*
X33188072Y-55880000D01*
X45548057Y-55880000D01*
X45575764Y-56161309D01*
X45657818Y-56431808D01*
X45791068Y-56681101D01*
X45970392Y-56899608D01*
X46188899Y-57078932D01*
X46326682Y-57152579D01*
X46134869Y-57267615D01*
X45926481Y-57456586D01*
X45758963Y-57682580D01*
X45638754Y-57936913D01*
X45598096Y-58070961D01*
X45720085Y-58293000D01*
X46863000Y-58293000D01*
X46863000Y-58273000D01*
X47117000Y-58273000D01*
X47117000Y-58293000D01*
X48259915Y-58293000D01*
X48381904Y-58070961D01*
X48341246Y-57936913D01*
X48221037Y-57682580D01*
X48053519Y-57456586D01*
X47845131Y-57267615D01*
X47653318Y-57152579D01*
X47791101Y-57078932D01*
X48009608Y-56899608D01*
X48188932Y-56681101D01*
X48322182Y-56431808D01*
X48404236Y-56161309D01*
X48431943Y-55880000D01*
X48404236Y-55598691D01*
X48322182Y-55328192D01*
X48188932Y-55078899D01*
X48009608Y-54860392D01*
X47791101Y-54681068D01*
X47541808Y-54547818D01*
X47271309Y-54465764D01*
X47060492Y-54445000D01*
X46919508Y-54445000D01*
X46708691Y-54465764D01*
X46438192Y-54547818D01*
X46188899Y-54681068D01*
X45970392Y-54860392D01*
X45791068Y-55078899D01*
X45657818Y-55328192D01*
X45575764Y-55598691D01*
X45548057Y-55880000D01*
X33188072Y-55880000D01*
X33188072Y-55080000D01*
X33175812Y-54955518D01*
X33139502Y-54835820D01*
X33080537Y-54725506D01*
X33001185Y-54628815D01*
X32904494Y-54549463D01*
X32794180Y-54490498D01*
X32674482Y-54454188D01*
X32550000Y-54441928D01*
X30950000Y-54441928D01*
X30825518Y-54454188D01*
X30705820Y-54490498D01*
X30595506Y-54549463D01*
X30498815Y-54628815D01*
X30419463Y-54725506D01*
X30360498Y-54835820D01*
X30324188Y-54955518D01*
X30311928Y-55080000D01*
X30311928Y-56680000D01*
X30324188Y-56804482D01*
X30360498Y-56924180D01*
X30419463Y-57034494D01*
X30498815Y-57131185D01*
X30595506Y-57210537D01*
X30705820Y-57269502D01*
X30825518Y-57305812D01*
X30843482Y-57307581D01*
X30730392Y-57400392D01*
X30551068Y-57618899D01*
X30417818Y-57868192D01*
X30335764Y-58138691D01*
X30308057Y-58420000D01*
X24257000Y-58420000D01*
X24257000Y-53860000D01*
X64651928Y-53860000D01*
X64651928Y-55360000D01*
X64664188Y-55484482D01*
X64700498Y-55604180D01*
X64759463Y-55714494D01*
X64838815Y-55811185D01*
X64935506Y-55890537D01*
X65045820Y-55949502D01*
X65165518Y-55985812D01*
X65273483Y-55996445D01*
X65157114Y-56074201D01*
X64964201Y-56267114D01*
X64812629Y-56493957D01*
X64708225Y-56746011D01*
X64655000Y-57013589D01*
X64655000Y-57286411D01*
X64708225Y-57553989D01*
X64812629Y-57806043D01*
X64964201Y-58032886D01*
X65157114Y-58225799D01*
X65383957Y-58377371D01*
X65486873Y-58420000D01*
X65383957Y-58462629D01*
X65157114Y-58614201D01*
X64964201Y-58807114D01*
X64812629Y-59033957D01*
X64708225Y-59286011D01*
X64655000Y-59553589D01*
X64655000Y-59826411D01*
X64708225Y-60093989D01*
X64812629Y-60346043D01*
X64964201Y-60572886D01*
X65157114Y-60765799D01*
X65383957Y-60917371D01*
X65483279Y-60958511D01*
X65441168Y-60973723D01*
X65328137Y-61034140D01*
X65262612Y-61273007D01*
X66040000Y-62050395D01*
X66817388Y-61273007D01*
X66751863Y-61034140D01*
X66593523Y-60959836D01*
X66696043Y-60917371D01*
X66922886Y-60765799D01*
X67115799Y-60572886D01*
X67267371Y-60346043D01*
X67371775Y-60093989D01*
X67425000Y-59826411D01*
X67425000Y-59553589D01*
X67371775Y-59286011D01*
X67267371Y-59033957D01*
X67115799Y-58807114D01*
X66922886Y-58614201D01*
X66696043Y-58462629D01*
X66593127Y-58420000D01*
X66696043Y-58377371D01*
X66922886Y-58225799D01*
X67115799Y-58032886D01*
X67267371Y-57806043D01*
X67371775Y-57553989D01*
X67425000Y-57286411D01*
X67425000Y-57013589D01*
X67371775Y-56746011D01*
X67267371Y-56493957D01*
X67115799Y-56267114D01*
X66922886Y-56074201D01*
X66806517Y-55996445D01*
X66914482Y-55985812D01*
X67034180Y-55949502D01*
X67144494Y-55890537D01*
X67241185Y-55811185D01*
X67320537Y-55714494D01*
X67379502Y-55604180D01*
X67415812Y-55484482D01*
X67428072Y-55360000D01*
X67428072Y-53860000D01*
X67415812Y-53735518D01*
X67379502Y-53615820D01*
X67320537Y-53505506D01*
X67241185Y-53408815D01*
X67144494Y-53329463D01*
X67034180Y-53270498D01*
X66914482Y-53234188D01*
X66790000Y-53221928D01*
X65290000Y-53221928D01*
X65165518Y-53234188D01*
X65045820Y-53270498D01*
X64935506Y-53329463D01*
X64838815Y-53408815D01*
X64759463Y-53505506D01*
X64700498Y-53615820D01*
X64664188Y-53735518D01*
X64651928Y-53860000D01*
X24257000Y-53860000D01*
X24257000Y-47117000D01*
X74803000Y-47117000D01*
X74803000Y-104013000D01*
M02*
