M48
; DRILL file {KiCad (5.1.0)-1} date 10/27/2019 2:56:25 PM
; FORMAT={3:3/ absolute / metric / suppress leading zeros}
; #@! TF.CreationDate,2019-10-27T14:56:25-04:00
; #@! TF.GenerationSoftware,Kicad,Pcbnew,(5.1.0)-1
FMAT,2
METRIC,TZ
T1C0.800
%
G90
G05
T1
X66040Y-54610
X66040Y-57150
X66040Y-59690
X66040Y-62230
X31750Y-55880
X31750Y-58420
X31750Y-60960
X31750Y-63500
X31750Y-66040
X31750Y-68580
X31750Y-71120
X31750Y-73660
X31750Y-76200
X31750Y-78740
X31750Y-81280
X31750Y-83820
X31750Y-86360
X31750Y-88900
X31750Y-91440
X46990Y-55880
X46990Y-58420
X46990Y-60960
X46990Y-63500
X46990Y-66040
X46990Y-68580
X46990Y-71120
X46990Y-73660
X46990Y-76200
X46990Y-78740
X46990Y-81280
X46990Y-83820
X46990Y-86360
X46990Y-88900
X46990Y-91440
T0
M30
