G04 #@! TF.GenerationSoftware,KiCad,Pcbnew,(5.1.0)-1*
G04 #@! TF.CreationDate,2019-10-27T15:01:23-04:00*
G04 #@! TF.ProjectId,Reciever,52656369-6576-4657-922e-6b696361645f,rev?*
G04 #@! TF.SameCoordinates,Original*
G04 #@! TF.FileFunction,Soldermask,Bot*
G04 #@! TF.FilePolarity,Negative*
%FSLAX46Y46*%
G04 Gerber Fmt 4.6, Leading zero omitted, Abs format (unit mm)*
G04 Created by KiCad (PCBNEW (5.1.0)-1) date 2019-10-27 15:01:23*
%MOMM*%
%LPD*%
G04 APERTURE LIST*
%ADD10C,0.100000*%
G04 APERTURE END LIST*
D10*
G36*
X47156823Y-90601313D02*
G01*
X47317242Y-90649976D01*
X47449906Y-90720886D01*
X47465078Y-90728996D01*
X47594659Y-90835341D01*
X47701004Y-90964922D01*
X47701005Y-90964924D01*
X47780024Y-91112758D01*
X47828687Y-91273177D01*
X47845117Y-91440000D01*
X47828687Y-91606823D01*
X47780024Y-91767242D01*
X47709114Y-91899906D01*
X47701004Y-91915078D01*
X47594659Y-92044659D01*
X47465078Y-92151004D01*
X47465076Y-92151005D01*
X47317242Y-92230024D01*
X47156823Y-92278687D01*
X47031804Y-92291000D01*
X46948196Y-92291000D01*
X46823177Y-92278687D01*
X46662758Y-92230024D01*
X46514924Y-92151005D01*
X46514922Y-92151004D01*
X46385341Y-92044659D01*
X46278996Y-91915078D01*
X46270886Y-91899906D01*
X46199976Y-91767242D01*
X46151313Y-91606823D01*
X46134883Y-91440000D01*
X46151313Y-91273177D01*
X46199976Y-91112758D01*
X46278995Y-90964924D01*
X46278996Y-90964922D01*
X46385341Y-90835341D01*
X46514922Y-90728996D01*
X46530094Y-90720886D01*
X46662758Y-90649976D01*
X46823177Y-90601313D01*
X46948196Y-90589000D01*
X47031804Y-90589000D01*
X47156823Y-90601313D01*
X47156823Y-90601313D01*
G37*
G36*
X31916823Y-90601313D02*
G01*
X32077242Y-90649976D01*
X32209906Y-90720886D01*
X32225078Y-90728996D01*
X32354659Y-90835341D01*
X32461004Y-90964922D01*
X32461005Y-90964924D01*
X32540024Y-91112758D01*
X32588687Y-91273177D01*
X32605117Y-91440000D01*
X32588687Y-91606823D01*
X32540024Y-91767242D01*
X32469114Y-91899906D01*
X32461004Y-91915078D01*
X32354659Y-92044659D01*
X32225078Y-92151004D01*
X32225076Y-92151005D01*
X32077242Y-92230024D01*
X31916823Y-92278687D01*
X31791804Y-92291000D01*
X31708196Y-92291000D01*
X31583177Y-92278687D01*
X31422758Y-92230024D01*
X31274924Y-92151005D01*
X31274922Y-92151004D01*
X31145341Y-92044659D01*
X31038996Y-91915078D01*
X31030886Y-91899906D01*
X30959976Y-91767242D01*
X30911313Y-91606823D01*
X30894883Y-91440000D01*
X30911313Y-91273177D01*
X30959976Y-91112758D01*
X31038995Y-90964924D01*
X31038996Y-90964922D01*
X31145341Y-90835341D01*
X31274922Y-90728996D01*
X31290094Y-90720886D01*
X31422758Y-90649976D01*
X31583177Y-90601313D01*
X31708196Y-90589000D01*
X31791804Y-90589000D01*
X31916823Y-90601313D01*
X31916823Y-90601313D01*
G37*
G36*
X47156823Y-88061313D02*
G01*
X47317242Y-88109976D01*
X47449906Y-88180886D01*
X47465078Y-88188996D01*
X47594659Y-88295341D01*
X47701004Y-88424922D01*
X47701005Y-88424924D01*
X47780024Y-88572758D01*
X47828687Y-88733177D01*
X47845117Y-88900000D01*
X47828687Y-89066823D01*
X47780024Y-89227242D01*
X47709114Y-89359906D01*
X47701004Y-89375078D01*
X47594659Y-89504659D01*
X47465078Y-89611004D01*
X47465076Y-89611005D01*
X47317242Y-89690024D01*
X47156823Y-89738687D01*
X47031804Y-89751000D01*
X46948196Y-89751000D01*
X46823177Y-89738687D01*
X46662758Y-89690024D01*
X46514924Y-89611005D01*
X46514922Y-89611004D01*
X46385341Y-89504659D01*
X46278996Y-89375078D01*
X46270886Y-89359906D01*
X46199976Y-89227242D01*
X46151313Y-89066823D01*
X46134883Y-88900000D01*
X46151313Y-88733177D01*
X46199976Y-88572758D01*
X46278995Y-88424924D01*
X46278996Y-88424922D01*
X46385341Y-88295341D01*
X46514922Y-88188996D01*
X46530094Y-88180886D01*
X46662758Y-88109976D01*
X46823177Y-88061313D01*
X46948196Y-88049000D01*
X47031804Y-88049000D01*
X47156823Y-88061313D01*
X47156823Y-88061313D01*
G37*
G36*
X31916823Y-88061313D02*
G01*
X32077242Y-88109976D01*
X32209906Y-88180886D01*
X32225078Y-88188996D01*
X32354659Y-88295341D01*
X32461004Y-88424922D01*
X32461005Y-88424924D01*
X32540024Y-88572758D01*
X32588687Y-88733177D01*
X32605117Y-88900000D01*
X32588687Y-89066823D01*
X32540024Y-89227242D01*
X32469114Y-89359906D01*
X32461004Y-89375078D01*
X32354659Y-89504659D01*
X32225078Y-89611004D01*
X32225076Y-89611005D01*
X32077242Y-89690024D01*
X31916823Y-89738687D01*
X31791804Y-89751000D01*
X31708196Y-89751000D01*
X31583177Y-89738687D01*
X31422758Y-89690024D01*
X31274924Y-89611005D01*
X31274922Y-89611004D01*
X31145341Y-89504659D01*
X31038996Y-89375078D01*
X31030886Y-89359906D01*
X30959976Y-89227242D01*
X30911313Y-89066823D01*
X30894883Y-88900000D01*
X30911313Y-88733177D01*
X30959976Y-88572758D01*
X31038995Y-88424924D01*
X31038996Y-88424922D01*
X31145341Y-88295341D01*
X31274922Y-88188996D01*
X31290094Y-88180886D01*
X31422758Y-88109976D01*
X31583177Y-88061313D01*
X31708196Y-88049000D01*
X31791804Y-88049000D01*
X31916823Y-88061313D01*
X31916823Y-88061313D01*
G37*
G36*
X47156823Y-85521313D02*
G01*
X47317242Y-85569976D01*
X47449906Y-85640886D01*
X47465078Y-85648996D01*
X47594659Y-85755341D01*
X47701004Y-85884922D01*
X47701005Y-85884924D01*
X47780024Y-86032758D01*
X47828687Y-86193177D01*
X47845117Y-86360000D01*
X47828687Y-86526823D01*
X47780024Y-86687242D01*
X47709114Y-86819906D01*
X47701004Y-86835078D01*
X47594659Y-86964659D01*
X47465078Y-87071004D01*
X47465076Y-87071005D01*
X47317242Y-87150024D01*
X47156823Y-87198687D01*
X47031804Y-87211000D01*
X46948196Y-87211000D01*
X46823177Y-87198687D01*
X46662758Y-87150024D01*
X46514924Y-87071005D01*
X46514922Y-87071004D01*
X46385341Y-86964659D01*
X46278996Y-86835078D01*
X46270886Y-86819906D01*
X46199976Y-86687242D01*
X46151313Y-86526823D01*
X46134883Y-86360000D01*
X46151313Y-86193177D01*
X46199976Y-86032758D01*
X46278995Y-85884924D01*
X46278996Y-85884922D01*
X46385341Y-85755341D01*
X46514922Y-85648996D01*
X46530094Y-85640886D01*
X46662758Y-85569976D01*
X46823177Y-85521313D01*
X46948196Y-85509000D01*
X47031804Y-85509000D01*
X47156823Y-85521313D01*
X47156823Y-85521313D01*
G37*
G36*
X31916823Y-85521313D02*
G01*
X32077242Y-85569976D01*
X32209906Y-85640886D01*
X32225078Y-85648996D01*
X32354659Y-85755341D01*
X32461004Y-85884922D01*
X32461005Y-85884924D01*
X32540024Y-86032758D01*
X32588687Y-86193177D01*
X32605117Y-86360000D01*
X32588687Y-86526823D01*
X32540024Y-86687242D01*
X32469114Y-86819906D01*
X32461004Y-86835078D01*
X32354659Y-86964659D01*
X32225078Y-87071004D01*
X32225076Y-87071005D01*
X32077242Y-87150024D01*
X31916823Y-87198687D01*
X31791804Y-87211000D01*
X31708196Y-87211000D01*
X31583177Y-87198687D01*
X31422758Y-87150024D01*
X31274924Y-87071005D01*
X31274922Y-87071004D01*
X31145341Y-86964659D01*
X31038996Y-86835078D01*
X31030886Y-86819906D01*
X30959976Y-86687242D01*
X30911313Y-86526823D01*
X30894883Y-86360000D01*
X30911313Y-86193177D01*
X30959976Y-86032758D01*
X31038995Y-85884924D01*
X31038996Y-85884922D01*
X31145341Y-85755341D01*
X31274922Y-85648996D01*
X31290094Y-85640886D01*
X31422758Y-85569976D01*
X31583177Y-85521313D01*
X31708196Y-85509000D01*
X31791804Y-85509000D01*
X31916823Y-85521313D01*
X31916823Y-85521313D01*
G37*
G36*
X31916823Y-82981313D02*
G01*
X32077242Y-83029976D01*
X32209906Y-83100886D01*
X32225078Y-83108996D01*
X32354659Y-83215341D01*
X32461004Y-83344922D01*
X32461005Y-83344924D01*
X32540024Y-83492758D01*
X32588687Y-83653177D01*
X32605117Y-83820000D01*
X32588687Y-83986823D01*
X32540024Y-84147242D01*
X32469114Y-84279906D01*
X32461004Y-84295078D01*
X32354659Y-84424659D01*
X32225078Y-84531004D01*
X32225076Y-84531005D01*
X32077242Y-84610024D01*
X31916823Y-84658687D01*
X31791804Y-84671000D01*
X31708196Y-84671000D01*
X31583177Y-84658687D01*
X31422758Y-84610024D01*
X31274924Y-84531005D01*
X31274922Y-84531004D01*
X31145341Y-84424659D01*
X31038996Y-84295078D01*
X31030886Y-84279906D01*
X30959976Y-84147242D01*
X30911313Y-83986823D01*
X30894883Y-83820000D01*
X30911313Y-83653177D01*
X30959976Y-83492758D01*
X31038995Y-83344924D01*
X31038996Y-83344922D01*
X31145341Y-83215341D01*
X31274922Y-83108996D01*
X31290094Y-83100886D01*
X31422758Y-83029976D01*
X31583177Y-82981313D01*
X31708196Y-82969000D01*
X31791804Y-82969000D01*
X31916823Y-82981313D01*
X31916823Y-82981313D01*
G37*
G36*
X47156823Y-82981313D02*
G01*
X47317242Y-83029976D01*
X47449906Y-83100886D01*
X47465078Y-83108996D01*
X47594659Y-83215341D01*
X47701004Y-83344922D01*
X47701005Y-83344924D01*
X47780024Y-83492758D01*
X47828687Y-83653177D01*
X47845117Y-83820000D01*
X47828687Y-83986823D01*
X47780024Y-84147242D01*
X47709114Y-84279906D01*
X47701004Y-84295078D01*
X47594659Y-84424659D01*
X47465078Y-84531004D01*
X47465076Y-84531005D01*
X47317242Y-84610024D01*
X47156823Y-84658687D01*
X47031804Y-84671000D01*
X46948196Y-84671000D01*
X46823177Y-84658687D01*
X46662758Y-84610024D01*
X46514924Y-84531005D01*
X46514922Y-84531004D01*
X46385341Y-84424659D01*
X46278996Y-84295078D01*
X46270886Y-84279906D01*
X46199976Y-84147242D01*
X46151313Y-83986823D01*
X46134883Y-83820000D01*
X46151313Y-83653177D01*
X46199976Y-83492758D01*
X46278995Y-83344924D01*
X46278996Y-83344922D01*
X46385341Y-83215341D01*
X46514922Y-83108996D01*
X46530094Y-83100886D01*
X46662758Y-83029976D01*
X46823177Y-82981313D01*
X46948196Y-82969000D01*
X47031804Y-82969000D01*
X47156823Y-82981313D01*
X47156823Y-82981313D01*
G37*
G36*
X47156823Y-80441313D02*
G01*
X47317242Y-80489976D01*
X47449906Y-80560886D01*
X47465078Y-80568996D01*
X47594659Y-80675341D01*
X47701004Y-80804922D01*
X47701005Y-80804924D01*
X47780024Y-80952758D01*
X47828687Y-81113177D01*
X47845117Y-81280000D01*
X47828687Y-81446823D01*
X47780024Y-81607242D01*
X47709114Y-81739906D01*
X47701004Y-81755078D01*
X47594659Y-81884659D01*
X47465078Y-81991004D01*
X47465076Y-81991005D01*
X47317242Y-82070024D01*
X47156823Y-82118687D01*
X47031804Y-82131000D01*
X46948196Y-82131000D01*
X46823177Y-82118687D01*
X46662758Y-82070024D01*
X46514924Y-81991005D01*
X46514922Y-81991004D01*
X46385341Y-81884659D01*
X46278996Y-81755078D01*
X46270886Y-81739906D01*
X46199976Y-81607242D01*
X46151313Y-81446823D01*
X46134883Y-81280000D01*
X46151313Y-81113177D01*
X46199976Y-80952758D01*
X46278995Y-80804924D01*
X46278996Y-80804922D01*
X46385341Y-80675341D01*
X46514922Y-80568996D01*
X46530094Y-80560886D01*
X46662758Y-80489976D01*
X46823177Y-80441313D01*
X46948196Y-80429000D01*
X47031804Y-80429000D01*
X47156823Y-80441313D01*
X47156823Y-80441313D01*
G37*
G36*
X31916823Y-80441313D02*
G01*
X32077242Y-80489976D01*
X32209906Y-80560886D01*
X32225078Y-80568996D01*
X32354659Y-80675341D01*
X32461004Y-80804922D01*
X32461005Y-80804924D01*
X32540024Y-80952758D01*
X32588687Y-81113177D01*
X32605117Y-81280000D01*
X32588687Y-81446823D01*
X32540024Y-81607242D01*
X32469114Y-81739906D01*
X32461004Y-81755078D01*
X32354659Y-81884659D01*
X32225078Y-81991004D01*
X32225076Y-81991005D01*
X32077242Y-82070024D01*
X31916823Y-82118687D01*
X31791804Y-82131000D01*
X31708196Y-82131000D01*
X31583177Y-82118687D01*
X31422758Y-82070024D01*
X31274924Y-81991005D01*
X31274922Y-81991004D01*
X31145341Y-81884659D01*
X31038996Y-81755078D01*
X31030886Y-81739906D01*
X30959976Y-81607242D01*
X30911313Y-81446823D01*
X30894883Y-81280000D01*
X30911313Y-81113177D01*
X30959976Y-80952758D01*
X31038995Y-80804924D01*
X31038996Y-80804922D01*
X31145341Y-80675341D01*
X31274922Y-80568996D01*
X31290094Y-80560886D01*
X31422758Y-80489976D01*
X31583177Y-80441313D01*
X31708196Y-80429000D01*
X31791804Y-80429000D01*
X31916823Y-80441313D01*
X31916823Y-80441313D01*
G37*
G36*
X31916823Y-77901313D02*
G01*
X32077242Y-77949976D01*
X32209906Y-78020886D01*
X32225078Y-78028996D01*
X32354659Y-78135341D01*
X32461004Y-78264922D01*
X32461005Y-78264924D01*
X32540024Y-78412758D01*
X32588687Y-78573177D01*
X32605117Y-78740000D01*
X32588687Y-78906823D01*
X32540024Y-79067242D01*
X32469114Y-79199906D01*
X32461004Y-79215078D01*
X32354659Y-79344659D01*
X32225078Y-79451004D01*
X32225076Y-79451005D01*
X32077242Y-79530024D01*
X31916823Y-79578687D01*
X31791804Y-79591000D01*
X31708196Y-79591000D01*
X31583177Y-79578687D01*
X31422758Y-79530024D01*
X31274924Y-79451005D01*
X31274922Y-79451004D01*
X31145341Y-79344659D01*
X31038996Y-79215078D01*
X31030886Y-79199906D01*
X30959976Y-79067242D01*
X30911313Y-78906823D01*
X30894883Y-78740000D01*
X30911313Y-78573177D01*
X30959976Y-78412758D01*
X31038995Y-78264924D01*
X31038996Y-78264922D01*
X31145341Y-78135341D01*
X31274922Y-78028996D01*
X31290094Y-78020886D01*
X31422758Y-77949976D01*
X31583177Y-77901313D01*
X31708196Y-77889000D01*
X31791804Y-77889000D01*
X31916823Y-77901313D01*
X31916823Y-77901313D01*
G37*
G36*
X47156823Y-77901313D02*
G01*
X47317242Y-77949976D01*
X47449906Y-78020886D01*
X47465078Y-78028996D01*
X47594659Y-78135341D01*
X47701004Y-78264922D01*
X47701005Y-78264924D01*
X47780024Y-78412758D01*
X47828687Y-78573177D01*
X47845117Y-78740000D01*
X47828687Y-78906823D01*
X47780024Y-79067242D01*
X47709114Y-79199906D01*
X47701004Y-79215078D01*
X47594659Y-79344659D01*
X47465078Y-79451004D01*
X47465076Y-79451005D01*
X47317242Y-79530024D01*
X47156823Y-79578687D01*
X47031804Y-79591000D01*
X46948196Y-79591000D01*
X46823177Y-79578687D01*
X46662758Y-79530024D01*
X46514924Y-79451005D01*
X46514922Y-79451004D01*
X46385341Y-79344659D01*
X46278996Y-79215078D01*
X46270886Y-79199906D01*
X46199976Y-79067242D01*
X46151313Y-78906823D01*
X46134883Y-78740000D01*
X46151313Y-78573177D01*
X46199976Y-78412758D01*
X46278995Y-78264924D01*
X46278996Y-78264922D01*
X46385341Y-78135341D01*
X46514922Y-78028996D01*
X46530094Y-78020886D01*
X46662758Y-77949976D01*
X46823177Y-77901313D01*
X46948196Y-77889000D01*
X47031804Y-77889000D01*
X47156823Y-77901313D01*
X47156823Y-77901313D01*
G37*
G36*
X31916823Y-75361313D02*
G01*
X32077242Y-75409976D01*
X32209906Y-75480886D01*
X32225078Y-75488996D01*
X32354659Y-75595341D01*
X32461004Y-75724922D01*
X32461005Y-75724924D01*
X32540024Y-75872758D01*
X32588687Y-76033177D01*
X32605117Y-76200000D01*
X32588687Y-76366823D01*
X32540024Y-76527242D01*
X32469114Y-76659906D01*
X32461004Y-76675078D01*
X32354659Y-76804659D01*
X32225078Y-76911004D01*
X32225076Y-76911005D01*
X32077242Y-76990024D01*
X31916823Y-77038687D01*
X31791804Y-77051000D01*
X31708196Y-77051000D01*
X31583177Y-77038687D01*
X31422758Y-76990024D01*
X31274924Y-76911005D01*
X31274922Y-76911004D01*
X31145341Y-76804659D01*
X31038996Y-76675078D01*
X31030886Y-76659906D01*
X30959976Y-76527242D01*
X30911313Y-76366823D01*
X30894883Y-76200000D01*
X30911313Y-76033177D01*
X30959976Y-75872758D01*
X31038995Y-75724924D01*
X31038996Y-75724922D01*
X31145341Y-75595341D01*
X31274922Y-75488996D01*
X31290094Y-75480886D01*
X31422758Y-75409976D01*
X31583177Y-75361313D01*
X31708196Y-75349000D01*
X31791804Y-75349000D01*
X31916823Y-75361313D01*
X31916823Y-75361313D01*
G37*
G36*
X47156823Y-75361313D02*
G01*
X47317242Y-75409976D01*
X47449906Y-75480886D01*
X47465078Y-75488996D01*
X47594659Y-75595341D01*
X47701004Y-75724922D01*
X47701005Y-75724924D01*
X47780024Y-75872758D01*
X47828687Y-76033177D01*
X47845117Y-76200000D01*
X47828687Y-76366823D01*
X47780024Y-76527242D01*
X47709114Y-76659906D01*
X47701004Y-76675078D01*
X47594659Y-76804659D01*
X47465078Y-76911004D01*
X47465076Y-76911005D01*
X47317242Y-76990024D01*
X47156823Y-77038687D01*
X47031804Y-77051000D01*
X46948196Y-77051000D01*
X46823177Y-77038687D01*
X46662758Y-76990024D01*
X46514924Y-76911005D01*
X46514922Y-76911004D01*
X46385341Y-76804659D01*
X46278996Y-76675078D01*
X46270886Y-76659906D01*
X46199976Y-76527242D01*
X46151313Y-76366823D01*
X46134883Y-76200000D01*
X46151313Y-76033177D01*
X46199976Y-75872758D01*
X46278995Y-75724924D01*
X46278996Y-75724922D01*
X46385341Y-75595341D01*
X46514922Y-75488996D01*
X46530094Y-75480886D01*
X46662758Y-75409976D01*
X46823177Y-75361313D01*
X46948196Y-75349000D01*
X47031804Y-75349000D01*
X47156823Y-75361313D01*
X47156823Y-75361313D01*
G37*
G36*
X31916823Y-72821313D02*
G01*
X32077242Y-72869976D01*
X32209906Y-72940886D01*
X32225078Y-72948996D01*
X32354659Y-73055341D01*
X32461004Y-73184922D01*
X32461005Y-73184924D01*
X32540024Y-73332758D01*
X32588687Y-73493177D01*
X32605117Y-73660000D01*
X32588687Y-73826823D01*
X32540024Y-73987242D01*
X32469114Y-74119906D01*
X32461004Y-74135078D01*
X32354659Y-74264659D01*
X32225078Y-74371004D01*
X32225076Y-74371005D01*
X32077242Y-74450024D01*
X31916823Y-74498687D01*
X31791804Y-74511000D01*
X31708196Y-74511000D01*
X31583177Y-74498687D01*
X31422758Y-74450024D01*
X31274924Y-74371005D01*
X31274922Y-74371004D01*
X31145341Y-74264659D01*
X31038996Y-74135078D01*
X31030886Y-74119906D01*
X30959976Y-73987242D01*
X30911313Y-73826823D01*
X30894883Y-73660000D01*
X30911313Y-73493177D01*
X30959976Y-73332758D01*
X31038995Y-73184924D01*
X31038996Y-73184922D01*
X31145341Y-73055341D01*
X31274922Y-72948996D01*
X31290094Y-72940886D01*
X31422758Y-72869976D01*
X31583177Y-72821313D01*
X31708196Y-72809000D01*
X31791804Y-72809000D01*
X31916823Y-72821313D01*
X31916823Y-72821313D01*
G37*
G36*
X47156823Y-72821313D02*
G01*
X47317242Y-72869976D01*
X47449906Y-72940886D01*
X47465078Y-72948996D01*
X47594659Y-73055341D01*
X47701004Y-73184922D01*
X47701005Y-73184924D01*
X47780024Y-73332758D01*
X47828687Y-73493177D01*
X47845117Y-73660000D01*
X47828687Y-73826823D01*
X47780024Y-73987242D01*
X47709114Y-74119906D01*
X47701004Y-74135078D01*
X47594659Y-74264659D01*
X47465078Y-74371004D01*
X47465076Y-74371005D01*
X47317242Y-74450024D01*
X47156823Y-74498687D01*
X47031804Y-74511000D01*
X46948196Y-74511000D01*
X46823177Y-74498687D01*
X46662758Y-74450024D01*
X46514924Y-74371005D01*
X46514922Y-74371004D01*
X46385341Y-74264659D01*
X46278996Y-74135078D01*
X46270886Y-74119906D01*
X46199976Y-73987242D01*
X46151313Y-73826823D01*
X46134883Y-73660000D01*
X46151313Y-73493177D01*
X46199976Y-73332758D01*
X46278995Y-73184924D01*
X46278996Y-73184922D01*
X46385341Y-73055341D01*
X46514922Y-72948996D01*
X46530094Y-72940886D01*
X46662758Y-72869976D01*
X46823177Y-72821313D01*
X46948196Y-72809000D01*
X47031804Y-72809000D01*
X47156823Y-72821313D01*
X47156823Y-72821313D01*
G37*
G36*
X47156823Y-70281313D02*
G01*
X47317242Y-70329976D01*
X47449906Y-70400886D01*
X47465078Y-70408996D01*
X47594659Y-70515341D01*
X47701004Y-70644922D01*
X47701005Y-70644924D01*
X47780024Y-70792758D01*
X47828687Y-70953177D01*
X47845117Y-71120000D01*
X47828687Y-71286823D01*
X47780024Y-71447242D01*
X47709114Y-71579906D01*
X47701004Y-71595078D01*
X47594659Y-71724659D01*
X47465078Y-71831004D01*
X47465076Y-71831005D01*
X47317242Y-71910024D01*
X47156823Y-71958687D01*
X47031804Y-71971000D01*
X46948196Y-71971000D01*
X46823177Y-71958687D01*
X46662758Y-71910024D01*
X46514924Y-71831005D01*
X46514922Y-71831004D01*
X46385341Y-71724659D01*
X46278996Y-71595078D01*
X46270886Y-71579906D01*
X46199976Y-71447242D01*
X46151313Y-71286823D01*
X46134883Y-71120000D01*
X46151313Y-70953177D01*
X46199976Y-70792758D01*
X46278995Y-70644924D01*
X46278996Y-70644922D01*
X46385341Y-70515341D01*
X46514922Y-70408996D01*
X46530094Y-70400886D01*
X46662758Y-70329976D01*
X46823177Y-70281313D01*
X46948196Y-70269000D01*
X47031804Y-70269000D01*
X47156823Y-70281313D01*
X47156823Y-70281313D01*
G37*
G36*
X31916823Y-70281313D02*
G01*
X32077242Y-70329976D01*
X32209906Y-70400886D01*
X32225078Y-70408996D01*
X32354659Y-70515341D01*
X32461004Y-70644922D01*
X32461005Y-70644924D01*
X32540024Y-70792758D01*
X32588687Y-70953177D01*
X32605117Y-71120000D01*
X32588687Y-71286823D01*
X32540024Y-71447242D01*
X32469114Y-71579906D01*
X32461004Y-71595078D01*
X32354659Y-71724659D01*
X32225078Y-71831004D01*
X32225076Y-71831005D01*
X32077242Y-71910024D01*
X31916823Y-71958687D01*
X31791804Y-71971000D01*
X31708196Y-71971000D01*
X31583177Y-71958687D01*
X31422758Y-71910024D01*
X31274924Y-71831005D01*
X31274922Y-71831004D01*
X31145341Y-71724659D01*
X31038996Y-71595078D01*
X31030886Y-71579906D01*
X30959976Y-71447242D01*
X30911313Y-71286823D01*
X30894883Y-71120000D01*
X30911313Y-70953177D01*
X30959976Y-70792758D01*
X31038995Y-70644924D01*
X31038996Y-70644922D01*
X31145341Y-70515341D01*
X31274922Y-70408996D01*
X31290094Y-70400886D01*
X31422758Y-70329976D01*
X31583177Y-70281313D01*
X31708196Y-70269000D01*
X31791804Y-70269000D01*
X31916823Y-70281313D01*
X31916823Y-70281313D01*
G37*
G36*
X31916823Y-67741313D02*
G01*
X32077242Y-67789976D01*
X32209906Y-67860886D01*
X32225078Y-67868996D01*
X32354659Y-67975341D01*
X32461004Y-68104922D01*
X32461005Y-68104924D01*
X32540024Y-68252758D01*
X32588687Y-68413177D01*
X32605117Y-68580000D01*
X32588687Y-68746823D01*
X32540024Y-68907242D01*
X32469114Y-69039906D01*
X32461004Y-69055078D01*
X32354659Y-69184659D01*
X32225078Y-69291004D01*
X32225076Y-69291005D01*
X32077242Y-69370024D01*
X31916823Y-69418687D01*
X31791804Y-69431000D01*
X31708196Y-69431000D01*
X31583177Y-69418687D01*
X31422758Y-69370024D01*
X31274924Y-69291005D01*
X31274922Y-69291004D01*
X31145341Y-69184659D01*
X31038996Y-69055078D01*
X31030886Y-69039906D01*
X30959976Y-68907242D01*
X30911313Y-68746823D01*
X30894883Y-68580000D01*
X30911313Y-68413177D01*
X30959976Y-68252758D01*
X31038995Y-68104924D01*
X31038996Y-68104922D01*
X31145341Y-67975341D01*
X31274922Y-67868996D01*
X31290094Y-67860886D01*
X31422758Y-67789976D01*
X31583177Y-67741313D01*
X31708196Y-67729000D01*
X31791804Y-67729000D01*
X31916823Y-67741313D01*
X31916823Y-67741313D01*
G37*
G36*
X47156823Y-67741313D02*
G01*
X47317242Y-67789976D01*
X47449906Y-67860886D01*
X47465078Y-67868996D01*
X47594659Y-67975341D01*
X47701004Y-68104922D01*
X47701005Y-68104924D01*
X47780024Y-68252758D01*
X47828687Y-68413177D01*
X47845117Y-68580000D01*
X47828687Y-68746823D01*
X47780024Y-68907242D01*
X47709114Y-69039906D01*
X47701004Y-69055078D01*
X47594659Y-69184659D01*
X47465078Y-69291004D01*
X47465076Y-69291005D01*
X47317242Y-69370024D01*
X47156823Y-69418687D01*
X47031804Y-69431000D01*
X46948196Y-69431000D01*
X46823177Y-69418687D01*
X46662758Y-69370024D01*
X46514924Y-69291005D01*
X46514922Y-69291004D01*
X46385341Y-69184659D01*
X46278996Y-69055078D01*
X46270886Y-69039906D01*
X46199976Y-68907242D01*
X46151313Y-68746823D01*
X46134883Y-68580000D01*
X46151313Y-68413177D01*
X46199976Y-68252758D01*
X46278995Y-68104924D01*
X46278996Y-68104922D01*
X46385341Y-67975341D01*
X46514922Y-67868996D01*
X46530094Y-67860886D01*
X46662758Y-67789976D01*
X46823177Y-67741313D01*
X46948196Y-67729000D01*
X47031804Y-67729000D01*
X47156823Y-67741313D01*
X47156823Y-67741313D01*
G37*
G36*
X47156823Y-65201313D02*
G01*
X47317242Y-65249976D01*
X47449906Y-65320886D01*
X47465078Y-65328996D01*
X47594659Y-65435341D01*
X47701004Y-65564922D01*
X47701005Y-65564924D01*
X47780024Y-65712758D01*
X47828687Y-65873177D01*
X47845117Y-66040000D01*
X47828687Y-66206823D01*
X47780024Y-66367242D01*
X47709114Y-66499906D01*
X47701004Y-66515078D01*
X47594659Y-66644659D01*
X47465078Y-66751004D01*
X47465076Y-66751005D01*
X47317242Y-66830024D01*
X47156823Y-66878687D01*
X47031804Y-66891000D01*
X46948196Y-66891000D01*
X46823177Y-66878687D01*
X46662758Y-66830024D01*
X46514924Y-66751005D01*
X46514922Y-66751004D01*
X46385341Y-66644659D01*
X46278996Y-66515078D01*
X46270886Y-66499906D01*
X46199976Y-66367242D01*
X46151313Y-66206823D01*
X46134883Y-66040000D01*
X46151313Y-65873177D01*
X46199976Y-65712758D01*
X46278995Y-65564924D01*
X46278996Y-65564922D01*
X46385341Y-65435341D01*
X46514922Y-65328996D01*
X46530094Y-65320886D01*
X46662758Y-65249976D01*
X46823177Y-65201313D01*
X46948196Y-65189000D01*
X47031804Y-65189000D01*
X47156823Y-65201313D01*
X47156823Y-65201313D01*
G37*
G36*
X31916823Y-65201313D02*
G01*
X32077242Y-65249976D01*
X32209906Y-65320886D01*
X32225078Y-65328996D01*
X32354659Y-65435341D01*
X32461004Y-65564922D01*
X32461005Y-65564924D01*
X32540024Y-65712758D01*
X32588687Y-65873177D01*
X32605117Y-66040000D01*
X32588687Y-66206823D01*
X32540024Y-66367242D01*
X32469114Y-66499906D01*
X32461004Y-66515078D01*
X32354659Y-66644659D01*
X32225078Y-66751004D01*
X32225076Y-66751005D01*
X32077242Y-66830024D01*
X31916823Y-66878687D01*
X31791804Y-66891000D01*
X31708196Y-66891000D01*
X31583177Y-66878687D01*
X31422758Y-66830024D01*
X31274924Y-66751005D01*
X31274922Y-66751004D01*
X31145341Y-66644659D01*
X31038996Y-66515078D01*
X31030886Y-66499906D01*
X30959976Y-66367242D01*
X30911313Y-66206823D01*
X30894883Y-66040000D01*
X30911313Y-65873177D01*
X30959976Y-65712758D01*
X31038995Y-65564924D01*
X31038996Y-65564922D01*
X31145341Y-65435341D01*
X31274922Y-65328996D01*
X31290094Y-65320886D01*
X31422758Y-65249976D01*
X31583177Y-65201313D01*
X31708196Y-65189000D01*
X31791804Y-65189000D01*
X31916823Y-65201313D01*
X31916823Y-65201313D01*
G37*
G36*
X31916823Y-62661313D02*
G01*
X32077242Y-62709976D01*
X32134550Y-62740608D01*
X32225078Y-62788996D01*
X32354659Y-62895341D01*
X32461004Y-63024922D01*
X32461005Y-63024924D01*
X32540024Y-63172758D01*
X32588687Y-63333177D01*
X32605117Y-63500000D01*
X32588687Y-63666823D01*
X32540024Y-63827242D01*
X32469114Y-63959906D01*
X32461004Y-63975078D01*
X32354659Y-64104659D01*
X32225078Y-64211004D01*
X32225076Y-64211005D01*
X32077242Y-64290024D01*
X31916823Y-64338687D01*
X31791804Y-64351000D01*
X31708196Y-64351000D01*
X31583177Y-64338687D01*
X31422758Y-64290024D01*
X31274924Y-64211005D01*
X31274922Y-64211004D01*
X31145341Y-64104659D01*
X31038996Y-63975078D01*
X31030886Y-63959906D01*
X30959976Y-63827242D01*
X30911313Y-63666823D01*
X30894883Y-63500000D01*
X30911313Y-63333177D01*
X30959976Y-63172758D01*
X31038995Y-63024924D01*
X31038996Y-63024922D01*
X31145341Y-62895341D01*
X31274922Y-62788996D01*
X31365450Y-62740608D01*
X31422758Y-62709976D01*
X31583177Y-62661313D01*
X31708196Y-62649000D01*
X31791804Y-62649000D01*
X31916823Y-62661313D01*
X31916823Y-62661313D01*
G37*
G36*
X47156823Y-62661313D02*
G01*
X47317242Y-62709976D01*
X47374550Y-62740608D01*
X47465078Y-62788996D01*
X47594659Y-62895341D01*
X47701004Y-63024922D01*
X47701005Y-63024924D01*
X47780024Y-63172758D01*
X47828687Y-63333177D01*
X47845117Y-63500000D01*
X47828687Y-63666823D01*
X47780024Y-63827242D01*
X47709114Y-63959906D01*
X47701004Y-63975078D01*
X47594659Y-64104659D01*
X47465078Y-64211004D01*
X47465076Y-64211005D01*
X47317242Y-64290024D01*
X47156823Y-64338687D01*
X47031804Y-64351000D01*
X46948196Y-64351000D01*
X46823177Y-64338687D01*
X46662758Y-64290024D01*
X46514924Y-64211005D01*
X46514922Y-64211004D01*
X46385341Y-64104659D01*
X46278996Y-63975078D01*
X46270886Y-63959906D01*
X46199976Y-63827242D01*
X46151313Y-63666823D01*
X46134883Y-63500000D01*
X46151313Y-63333177D01*
X46199976Y-63172758D01*
X46278995Y-63024924D01*
X46278996Y-63024922D01*
X46385341Y-62895341D01*
X46514922Y-62788996D01*
X46605450Y-62740608D01*
X46662758Y-62709976D01*
X46823177Y-62661313D01*
X46948196Y-62649000D01*
X47031804Y-62649000D01*
X47156823Y-62661313D01*
X47156823Y-62661313D01*
G37*
G36*
X66273642Y-61459781D02*
G01*
X66419414Y-61520162D01*
X66419416Y-61520163D01*
X66550608Y-61607822D01*
X66662178Y-61719392D01*
X66723388Y-61811000D01*
X66749838Y-61850586D01*
X66810219Y-61996358D01*
X66841000Y-62151107D01*
X66841000Y-62308893D01*
X66810219Y-62463642D01*
X66749838Y-62609414D01*
X66749837Y-62609416D01*
X66662178Y-62740608D01*
X66550608Y-62852178D01*
X66419416Y-62939837D01*
X66419415Y-62939838D01*
X66419414Y-62939838D01*
X66273642Y-63000219D01*
X66118893Y-63031000D01*
X65961107Y-63031000D01*
X65806358Y-63000219D01*
X65660586Y-62939838D01*
X65660585Y-62939838D01*
X65660584Y-62939837D01*
X65529392Y-62852178D01*
X65417822Y-62740608D01*
X65330163Y-62609416D01*
X65330162Y-62609414D01*
X65269781Y-62463642D01*
X65239000Y-62308893D01*
X65239000Y-62151107D01*
X65269781Y-61996358D01*
X65330162Y-61850586D01*
X65356612Y-61811000D01*
X65417822Y-61719392D01*
X65529392Y-61607822D01*
X65660584Y-61520163D01*
X65660586Y-61520162D01*
X65806358Y-61459781D01*
X65961107Y-61429000D01*
X66118893Y-61429000D01*
X66273642Y-61459781D01*
X66273642Y-61459781D01*
G37*
G36*
X47156823Y-60121313D02*
G01*
X47317242Y-60169976D01*
X47374550Y-60200608D01*
X47465078Y-60248996D01*
X47594659Y-60355341D01*
X47701004Y-60484922D01*
X47701005Y-60484924D01*
X47780024Y-60632758D01*
X47828687Y-60793177D01*
X47845117Y-60960000D01*
X47828687Y-61126823D01*
X47780024Y-61287242D01*
X47709114Y-61419906D01*
X47701004Y-61435078D01*
X47594659Y-61564659D01*
X47465078Y-61671004D01*
X47465076Y-61671005D01*
X47317242Y-61750024D01*
X47156823Y-61798687D01*
X47031804Y-61811000D01*
X46948196Y-61811000D01*
X46823177Y-61798687D01*
X46662758Y-61750024D01*
X46514924Y-61671005D01*
X46514922Y-61671004D01*
X46385341Y-61564659D01*
X46278996Y-61435078D01*
X46270886Y-61419906D01*
X46199976Y-61287242D01*
X46151313Y-61126823D01*
X46134883Y-60960000D01*
X46151313Y-60793177D01*
X46199976Y-60632758D01*
X46278995Y-60484924D01*
X46278996Y-60484922D01*
X46385341Y-60355341D01*
X46514922Y-60248996D01*
X46605450Y-60200608D01*
X46662758Y-60169976D01*
X46823177Y-60121313D01*
X46948196Y-60109000D01*
X47031804Y-60109000D01*
X47156823Y-60121313D01*
X47156823Y-60121313D01*
G37*
G36*
X31916823Y-60121313D02*
G01*
X32077242Y-60169976D01*
X32134550Y-60200608D01*
X32225078Y-60248996D01*
X32354659Y-60355341D01*
X32461004Y-60484922D01*
X32461005Y-60484924D01*
X32540024Y-60632758D01*
X32588687Y-60793177D01*
X32605117Y-60960000D01*
X32588687Y-61126823D01*
X32540024Y-61287242D01*
X32469114Y-61419906D01*
X32461004Y-61435078D01*
X32354659Y-61564659D01*
X32225078Y-61671004D01*
X32225076Y-61671005D01*
X32077242Y-61750024D01*
X31916823Y-61798687D01*
X31791804Y-61811000D01*
X31708196Y-61811000D01*
X31583177Y-61798687D01*
X31422758Y-61750024D01*
X31274924Y-61671005D01*
X31274922Y-61671004D01*
X31145341Y-61564659D01*
X31038996Y-61435078D01*
X31030886Y-61419906D01*
X30959976Y-61287242D01*
X30911313Y-61126823D01*
X30894883Y-60960000D01*
X30911313Y-60793177D01*
X30959976Y-60632758D01*
X31038995Y-60484924D01*
X31038996Y-60484922D01*
X31145341Y-60355341D01*
X31274922Y-60248996D01*
X31365450Y-60200608D01*
X31422758Y-60169976D01*
X31583177Y-60121313D01*
X31708196Y-60109000D01*
X31791804Y-60109000D01*
X31916823Y-60121313D01*
X31916823Y-60121313D01*
G37*
G36*
X66273642Y-58919781D02*
G01*
X66419414Y-58980162D01*
X66419416Y-58980163D01*
X66550608Y-59067822D01*
X66662178Y-59179392D01*
X66723388Y-59271000D01*
X66749838Y-59310586D01*
X66810219Y-59456358D01*
X66841000Y-59611107D01*
X66841000Y-59768893D01*
X66810219Y-59923642D01*
X66749838Y-60069414D01*
X66749837Y-60069416D01*
X66662178Y-60200608D01*
X66550608Y-60312178D01*
X66419416Y-60399837D01*
X66419415Y-60399838D01*
X66419414Y-60399838D01*
X66273642Y-60460219D01*
X66118893Y-60491000D01*
X65961107Y-60491000D01*
X65806358Y-60460219D01*
X65660586Y-60399838D01*
X65660585Y-60399838D01*
X65660584Y-60399837D01*
X65529392Y-60312178D01*
X65417822Y-60200608D01*
X65330163Y-60069416D01*
X65330162Y-60069414D01*
X65269781Y-59923642D01*
X65239000Y-59768893D01*
X65239000Y-59611107D01*
X65269781Y-59456358D01*
X65330162Y-59310586D01*
X65356612Y-59271000D01*
X65417822Y-59179392D01*
X65529392Y-59067822D01*
X65660584Y-58980163D01*
X65660586Y-58980162D01*
X65806358Y-58919781D01*
X65961107Y-58889000D01*
X66118893Y-58889000D01*
X66273642Y-58919781D01*
X66273642Y-58919781D01*
G37*
G36*
X47156823Y-57581313D02*
G01*
X47317242Y-57629976D01*
X47374550Y-57660608D01*
X47465078Y-57708996D01*
X47594659Y-57815341D01*
X47701004Y-57944922D01*
X47701005Y-57944924D01*
X47780024Y-58092758D01*
X47828687Y-58253177D01*
X47845117Y-58420000D01*
X47828687Y-58586823D01*
X47780024Y-58747242D01*
X47709114Y-58879906D01*
X47701004Y-58895078D01*
X47594659Y-59024659D01*
X47465078Y-59131004D01*
X47465076Y-59131005D01*
X47317242Y-59210024D01*
X47156823Y-59258687D01*
X47031804Y-59271000D01*
X46948196Y-59271000D01*
X46823177Y-59258687D01*
X46662758Y-59210024D01*
X46514924Y-59131005D01*
X46514922Y-59131004D01*
X46385341Y-59024659D01*
X46278996Y-58895078D01*
X46270886Y-58879906D01*
X46199976Y-58747242D01*
X46151313Y-58586823D01*
X46134883Y-58420000D01*
X46151313Y-58253177D01*
X46199976Y-58092758D01*
X46278995Y-57944924D01*
X46278996Y-57944922D01*
X46385341Y-57815341D01*
X46514922Y-57708996D01*
X46605450Y-57660608D01*
X46662758Y-57629976D01*
X46823177Y-57581313D01*
X46948196Y-57569000D01*
X47031804Y-57569000D01*
X47156823Y-57581313D01*
X47156823Y-57581313D01*
G37*
G36*
X31916823Y-57581313D02*
G01*
X32077242Y-57629976D01*
X32134550Y-57660608D01*
X32225078Y-57708996D01*
X32354659Y-57815341D01*
X32461004Y-57944922D01*
X32461005Y-57944924D01*
X32540024Y-58092758D01*
X32588687Y-58253177D01*
X32605117Y-58420000D01*
X32588687Y-58586823D01*
X32540024Y-58747242D01*
X32469114Y-58879906D01*
X32461004Y-58895078D01*
X32354659Y-59024659D01*
X32225078Y-59131004D01*
X32225076Y-59131005D01*
X32077242Y-59210024D01*
X31916823Y-59258687D01*
X31791804Y-59271000D01*
X31708196Y-59271000D01*
X31583177Y-59258687D01*
X31422758Y-59210024D01*
X31274924Y-59131005D01*
X31274922Y-59131004D01*
X31145341Y-59024659D01*
X31038996Y-58895078D01*
X31030886Y-58879906D01*
X30959976Y-58747242D01*
X30911313Y-58586823D01*
X30894883Y-58420000D01*
X30911313Y-58253177D01*
X30959976Y-58092758D01*
X31038995Y-57944924D01*
X31038996Y-57944922D01*
X31145341Y-57815341D01*
X31274922Y-57708996D01*
X31365450Y-57660608D01*
X31422758Y-57629976D01*
X31583177Y-57581313D01*
X31708196Y-57569000D01*
X31791804Y-57569000D01*
X31916823Y-57581313D01*
X31916823Y-57581313D01*
G37*
G36*
X66273642Y-56379781D02*
G01*
X66419414Y-56440162D01*
X66419416Y-56440163D01*
X66550608Y-56527822D01*
X66662178Y-56639392D01*
X66723388Y-56731000D01*
X66749838Y-56770586D01*
X66810219Y-56916358D01*
X66841000Y-57071107D01*
X66841000Y-57228893D01*
X66810219Y-57383642D01*
X66749838Y-57529414D01*
X66749837Y-57529416D01*
X66662178Y-57660608D01*
X66550608Y-57772178D01*
X66419416Y-57859837D01*
X66419415Y-57859838D01*
X66419414Y-57859838D01*
X66273642Y-57920219D01*
X66118893Y-57951000D01*
X65961107Y-57951000D01*
X65806358Y-57920219D01*
X65660586Y-57859838D01*
X65660585Y-57859838D01*
X65660584Y-57859837D01*
X65529392Y-57772178D01*
X65417822Y-57660608D01*
X65330163Y-57529416D01*
X65330162Y-57529414D01*
X65269781Y-57383642D01*
X65239000Y-57228893D01*
X65239000Y-57071107D01*
X65269781Y-56916358D01*
X65330162Y-56770586D01*
X65356612Y-56731000D01*
X65417822Y-56639392D01*
X65529392Y-56527822D01*
X65660584Y-56440163D01*
X65660586Y-56440162D01*
X65806358Y-56379781D01*
X65961107Y-56349000D01*
X66118893Y-56349000D01*
X66273642Y-56379781D01*
X66273642Y-56379781D01*
G37*
G36*
X47156823Y-55041313D02*
G01*
X47317242Y-55089976D01*
X47449906Y-55160886D01*
X47465078Y-55168996D01*
X47594659Y-55275341D01*
X47701004Y-55404922D01*
X47701005Y-55404924D01*
X47780024Y-55552758D01*
X47828687Y-55713177D01*
X47845117Y-55880000D01*
X47828687Y-56046823D01*
X47780024Y-56207242D01*
X47709114Y-56339906D01*
X47701004Y-56355078D01*
X47594659Y-56484659D01*
X47465078Y-56591004D01*
X47465076Y-56591005D01*
X47317242Y-56670024D01*
X47156823Y-56718687D01*
X47031804Y-56731000D01*
X46948196Y-56731000D01*
X46823177Y-56718687D01*
X46662758Y-56670024D01*
X46514924Y-56591005D01*
X46514922Y-56591004D01*
X46385341Y-56484659D01*
X46278996Y-56355078D01*
X46270886Y-56339906D01*
X46199976Y-56207242D01*
X46151313Y-56046823D01*
X46134883Y-55880000D01*
X46151313Y-55713177D01*
X46199976Y-55552758D01*
X46278995Y-55404924D01*
X46278996Y-55404922D01*
X46385341Y-55275341D01*
X46514922Y-55168996D01*
X46530094Y-55160886D01*
X46662758Y-55089976D01*
X46823177Y-55041313D01*
X46948196Y-55029000D01*
X47031804Y-55029000D01*
X47156823Y-55041313D01*
X47156823Y-55041313D01*
G37*
G36*
X32601000Y-56731000D02*
G01*
X30899000Y-56731000D01*
X30899000Y-55029000D01*
X32601000Y-55029000D01*
X32601000Y-56731000D01*
X32601000Y-56731000D01*
G37*
G36*
X66841000Y-55411000D02*
G01*
X65239000Y-55411000D01*
X65239000Y-53809000D01*
X66841000Y-53809000D01*
X66841000Y-55411000D01*
X66841000Y-55411000D01*
G37*
M02*
