G04 #@! TF.GenerationSoftware,KiCad,Pcbnew,(5.1.0)-1*
G04 #@! TF.CreationDate,2019-10-27T15:01:23-04:00*
G04 #@! TF.ProjectId,Reciever,52656369-6576-4657-922e-6b696361645f,rev?*
G04 #@! TF.SameCoordinates,Original*
G04 #@! TF.FileFunction,Legend,Top*
G04 #@! TF.FilePolarity,Positive*
%FSLAX46Y46*%
G04 Gerber Fmt 4.6, Leading zero omitted, Abs format (unit mm)*
G04 Created by KiCad (PCBNEW (5.1.0)-1) date 2019-10-27 15:01:23*
%MOMM*%
%LPD*%
G04 APERTURE LIST*
%ADD10C,0.120000*%
%ADD11C,0.150000*%
G04 APERTURE END LIST*
D10*
X62880000Y-52010000D02*
X64490000Y-52010000D01*
X62880000Y-52010000D02*
X62880000Y-54010000D01*
X63160000Y-64550000D02*
X63160000Y-52300000D01*
X68920000Y-64550000D02*
X63160000Y-64550000D01*
X68920000Y-52290000D02*
X68920000Y-64550000D01*
X63170000Y-52290000D02*
X68910000Y-52290000D01*
X65270000Y-74850000D02*
X63420000Y-74850000D01*
X63420000Y-74850000D02*
X63420000Y-75600000D01*
X65270000Y-77550000D02*
X63420000Y-77550000D01*
X63420000Y-77550000D02*
X63420000Y-76800000D01*
X65270000Y-87550000D02*
X63420000Y-87550000D01*
X63420000Y-87550000D02*
X63420000Y-88300000D01*
X65270000Y-90250000D02*
X63420000Y-90250000D01*
X63420000Y-90250000D02*
X63420000Y-89500000D01*
X48390000Y-51940000D02*
X30350000Y-51940000D01*
X48390000Y-95380000D02*
X48390000Y-51940000D01*
X30350000Y-95380000D02*
X48390000Y-95380000D01*
X33020000Y-92710000D02*
X30350000Y-92710000D01*
X33020000Y-57150000D02*
X33020000Y-92710000D01*
X33020000Y-57150000D02*
X30350000Y-57150000D01*
X45720000Y-92710000D02*
X48390000Y-92710000D01*
X45720000Y-54610000D02*
X45720000Y-92710000D01*
X45720000Y-54610000D02*
X48390000Y-54610000D01*
X30350000Y-51940000D02*
X30350000Y-54610000D01*
X30350000Y-57150000D02*
X30350000Y-95380000D01*
X33020000Y-54610000D02*
X30350000Y-54610000D01*
X33020000Y-57150000D02*
X33020000Y-54610000D01*
D11*
X64278095Y-50562380D02*
X64278095Y-51371904D01*
X64325714Y-51467142D01*
X64373333Y-51514761D01*
X64468571Y-51562380D01*
X64659047Y-51562380D01*
X64754285Y-51514761D01*
X64801904Y-51467142D01*
X64849523Y-51371904D01*
X64849523Y-50562380D01*
X65849523Y-51562380D02*
X65278095Y-51562380D01*
X65563809Y-51562380D02*
X65563809Y-50562380D01*
X65468571Y-50705238D01*
X65373333Y-50800476D01*
X65278095Y-50848095D01*
X64261904Y-74232380D02*
X64261904Y-73232380D01*
X64500000Y-73232380D01*
X64642857Y-73280000D01*
X64738095Y-73375238D01*
X64785714Y-73470476D01*
X64833333Y-73660952D01*
X64833333Y-73803809D01*
X64785714Y-73994285D01*
X64738095Y-74089523D01*
X64642857Y-74184761D01*
X64500000Y-74232380D01*
X64261904Y-74232380D01*
X65214285Y-73327619D02*
X65261904Y-73280000D01*
X65357142Y-73232380D01*
X65595238Y-73232380D01*
X65690476Y-73280000D01*
X65738095Y-73327619D01*
X65785714Y-73422857D01*
X65785714Y-73518095D01*
X65738095Y-73660952D01*
X65166666Y-74232380D01*
X65785714Y-74232380D01*
X64031904Y-87102380D02*
X64031904Y-86102380D01*
X64270000Y-86102380D01*
X64412857Y-86150000D01*
X64508095Y-86245238D01*
X64555714Y-86340476D01*
X64603333Y-86530952D01*
X64603333Y-86673809D01*
X64555714Y-86864285D01*
X64508095Y-86959523D01*
X64412857Y-87054761D01*
X64270000Y-87102380D01*
X64031904Y-87102380D01*
X65555714Y-87102380D02*
X64984285Y-87102380D01*
X65270000Y-87102380D02*
X65270000Y-86102380D01*
X65174761Y-86245238D01*
X65079523Y-86340476D01*
X64984285Y-86388095D01*
X38655714Y-50966666D02*
X39131904Y-50966666D01*
X38560476Y-51252380D02*
X38893809Y-50252380D01*
X39227142Y-51252380D01*
X40084285Y-51252380D02*
X39512857Y-51252380D01*
X39798571Y-51252380D02*
X39798571Y-50252380D01*
X39703333Y-50395238D01*
X39608095Y-50490476D01*
X39512857Y-50538095D01*
M02*
