G04 #@! TF.GenerationSoftware,KiCad,Pcbnew,(5.1.0)-1*
G04 #@! TF.CreationDate,2019-10-27T15:01:23-04:00*
G04 #@! TF.ProjectId,Reciever,52656369-6576-4657-922e-6b696361645f,rev?*
G04 #@! TF.SameCoordinates,Original*
G04 #@! TF.FileFunction,Copper,L1,Top*
G04 #@! TF.FilePolarity,Positive*
%FSLAX46Y46*%
G04 Gerber Fmt 4.6, Leading zero omitted, Abs format (unit mm)*
G04 Created by KiCad (PCBNEW (5.1.0)-1) date 2019-10-27 15:01:23*
%MOMM*%
%LPD*%
G04 APERTURE LIST*
%ADD10C,1.500000*%
%ADD11R,1.500000X1.500000*%
%ADD12R,0.920000X2.290000*%
%ADD13R,0.330000X2.290000*%
%ADD14O,1.600000X1.600000*%
%ADD15R,1.600000X1.600000*%
%ADD16C,0.250000*%
%ADD17C,0.254000*%
G04 APERTURE END LIST*
D10*
X66040000Y-62230000D03*
X66040000Y-59690000D03*
X66040000Y-57150000D03*
D11*
X66040000Y-54610000D03*
D12*
X64770000Y-76200000D03*
D13*
X63790000Y-76200000D03*
X65750000Y-76200000D03*
D12*
X64770000Y-88900000D03*
D13*
X63790000Y-88900000D03*
X65750000Y-88900000D03*
D14*
X46990000Y-91440000D03*
X31750000Y-91440000D03*
X46990000Y-55880000D03*
X31750000Y-88900000D03*
X46990000Y-58420000D03*
X31750000Y-86360000D03*
X46990000Y-60960000D03*
X31750000Y-83820000D03*
X46990000Y-63500000D03*
X31750000Y-81280000D03*
X46990000Y-66040000D03*
X31750000Y-78740000D03*
X46990000Y-68580000D03*
X31750000Y-76200000D03*
X46990000Y-71120000D03*
X31750000Y-73660000D03*
X46990000Y-73660000D03*
X31750000Y-71120000D03*
X46990000Y-76200000D03*
X31750000Y-68580000D03*
X46990000Y-78740000D03*
X31750000Y-66040000D03*
X46990000Y-81280000D03*
X31750000Y-63500000D03*
X46990000Y-83820000D03*
X31750000Y-60960000D03*
X46990000Y-86360000D03*
X31750000Y-58420000D03*
X46990000Y-88900000D03*
D15*
X31750000Y-55880000D03*
D16*
X32549999Y-90640001D02*
X31750000Y-91440000D01*
X53530003Y-90314999D02*
X32875001Y-90314999D01*
X66240001Y-77605001D02*
X53530003Y-90314999D01*
X32875001Y-90314999D02*
X32549999Y-90640001D01*
X66240001Y-74794999D02*
X66240001Y-77605001D01*
X64964999Y-73519997D02*
X66240001Y-74794999D01*
X64964999Y-58225001D02*
X64964999Y-73519997D01*
X66040000Y-57150000D02*
X64964999Y-58225001D01*
X66040000Y-63290660D02*
X66040000Y-62230000D01*
X66690010Y-63940670D02*
X66040000Y-63290660D01*
X66690010Y-86564990D02*
X66690010Y-63940670D01*
X65750000Y-87505000D02*
X66690010Y-86564990D01*
X65750000Y-88900000D02*
X65750000Y-87505000D01*
X67115001Y-56633999D02*
X67115001Y-86139999D01*
X67115001Y-86139999D02*
X66690010Y-86564990D01*
X66556001Y-56074999D02*
X67115001Y-56633999D01*
X65523999Y-56074999D02*
X66556001Y-56074999D01*
X64514989Y-57084009D02*
X65523999Y-56074999D01*
X64514989Y-73706397D02*
X64514989Y-57084009D01*
X65750000Y-74941408D02*
X64514989Y-73706397D01*
X65750000Y-76200000D02*
X65750000Y-74941408D01*
X65523999Y-56074999D02*
X64770000Y-56828998D01*
X51875001Y-53534999D02*
X67050001Y-53534999D01*
X46990000Y-58420000D02*
X51875001Y-53534999D01*
X67050001Y-53534999D02*
X67115001Y-53599999D01*
X67115001Y-53599999D02*
X67115001Y-55620001D01*
X67115001Y-55620001D02*
X66660003Y-56074999D01*
X66660003Y-56074999D02*
X65523999Y-56074999D01*
X55880000Y-54610000D02*
X46990000Y-63500000D01*
X66040000Y-54610000D02*
X55880000Y-54610000D01*
X32549999Y-69379999D02*
X31750000Y-68580000D01*
X47240003Y-77325001D02*
X40495001Y-77325001D01*
X48115001Y-79280001D02*
X48115001Y-78199999D01*
X47530001Y-79865001D02*
X48115001Y-79280001D01*
X32238591Y-90314999D02*
X42688589Y-79865001D01*
X40495001Y-77325001D02*
X32549999Y-69379999D01*
X31209999Y-90314999D02*
X32238591Y-90314999D01*
X48115001Y-78199999D02*
X47240003Y-77325001D01*
X30624999Y-90899999D02*
X31209999Y-90314999D01*
X42688589Y-79865001D02*
X47530001Y-79865001D01*
X30624999Y-91980001D02*
X30624999Y-90899999D01*
X31209999Y-92565001D02*
X30624999Y-91980001D01*
X59709999Y-92565001D02*
X31209999Y-92565001D01*
X63375000Y-88900000D02*
X59709999Y-92565001D01*
X63790000Y-88900000D02*
X63375000Y-88900000D01*
X32549999Y-65240001D02*
X31750000Y-66040000D01*
X32875001Y-64914999D02*
X32549999Y-65240001D01*
X53484999Y-64914999D02*
X32875001Y-64914999D01*
X63790000Y-75220000D02*
X53484999Y-64914999D01*
X63790000Y-76200000D02*
X63790000Y-75220000D01*
D17*
G36*
X74803000Y-104013000D02*
G01*
X24257000Y-104013000D01*
X24257000Y-90899999D01*
X29861323Y-90899999D01*
X29865000Y-90937331D01*
X29864999Y-91942678D01*
X29861323Y-91980001D01*
X29864999Y-92017323D01*
X29864999Y-92017333D01*
X29875996Y-92128986D01*
X29898653Y-92203676D01*
X29919453Y-92272247D01*
X29990025Y-92404277D01*
X30029870Y-92452827D01*
X30084998Y-92520002D01*
X30114001Y-92543804D01*
X30646199Y-93076003D01*
X30669998Y-93105002D01*
X30698996Y-93128800D01*
X30785722Y-93199975D01*
X30917752Y-93270547D01*
X31061013Y-93314004D01*
X31172666Y-93325001D01*
X31172676Y-93325001D01*
X31209999Y-93328677D01*
X31247322Y-93325001D01*
X59672677Y-93325001D01*
X59709999Y-93328677D01*
X59747321Y-93325001D01*
X59747332Y-93325001D01*
X59858985Y-93314004D01*
X60002246Y-93270547D01*
X60134275Y-93199975D01*
X60250000Y-93105002D01*
X60273803Y-93075998D01*
X63044249Y-90305552D01*
X63094463Y-90399494D01*
X63173815Y-90496185D01*
X63270506Y-90575537D01*
X63380820Y-90634502D01*
X63500518Y-90670812D01*
X63625000Y-90683072D01*
X63955000Y-90683072D01*
X64079482Y-90670812D01*
X64132500Y-90654729D01*
X64185518Y-90670812D01*
X64310000Y-90683072D01*
X65230000Y-90683072D01*
X65354482Y-90670812D01*
X65407305Y-90654788D01*
X65453733Y-90669424D01*
X65553250Y-90680000D01*
X65712000Y-90521250D01*
X65712000Y-90458637D01*
X65760537Y-90399494D01*
X65788000Y-90348115D01*
X65788000Y-90521250D01*
X65946750Y-90680000D01*
X66046267Y-90669424D01*
X66165564Y-90631817D01*
X66275231Y-90571659D01*
X66371056Y-90491261D01*
X66449354Y-90393714D01*
X66507117Y-90282767D01*
X66542126Y-90162682D01*
X66553034Y-90038074D01*
X66550000Y-89185750D01*
X66391250Y-89027000D01*
X65868072Y-89027000D01*
X65868072Y-88773000D01*
X66391250Y-88773000D01*
X66550000Y-88614250D01*
X66553034Y-87761926D01*
X66542126Y-87637318D01*
X66507117Y-87517233D01*
X66449354Y-87406286D01*
X66371056Y-87308739D01*
X66275231Y-87228341D01*
X66165564Y-87168183D01*
X66046267Y-87130576D01*
X65946750Y-87120000D01*
X65788000Y-87278750D01*
X65788000Y-87451885D01*
X65760537Y-87400506D01*
X65712000Y-87341363D01*
X65712000Y-87278750D01*
X65553250Y-87120000D01*
X65453733Y-87130576D01*
X65407305Y-87145212D01*
X65354482Y-87129188D01*
X65230000Y-87116928D01*
X64310000Y-87116928D01*
X64185518Y-87129188D01*
X64132500Y-87145271D01*
X64079482Y-87129188D01*
X63955000Y-87116928D01*
X63625000Y-87116928D01*
X63500518Y-87129188D01*
X63380820Y-87165498D01*
X63270506Y-87224463D01*
X63173815Y-87303815D01*
X63094463Y-87400506D01*
X63035498Y-87510820D01*
X62999188Y-87630518D01*
X62986928Y-87755000D01*
X62986928Y-88245674D01*
X62950723Y-88265026D01*
X62867083Y-88333668D01*
X62834999Y-88359999D01*
X62811201Y-88388997D01*
X59395198Y-91805001D01*
X48378849Y-91805001D01*
X48404236Y-91721309D01*
X48431943Y-91440000D01*
X48404236Y-91158691D01*
X48378849Y-91074999D01*
X53492681Y-91074999D01*
X53530003Y-91078675D01*
X53567325Y-91074999D01*
X53567336Y-91074999D01*
X53678989Y-91064002D01*
X53822250Y-91020545D01*
X53954279Y-90949973D01*
X54070004Y-90855000D01*
X54093807Y-90825996D01*
X66751004Y-78168800D01*
X66780002Y-78145002D01*
X66874975Y-78029277D01*
X66945547Y-77897248D01*
X66989004Y-77753987D01*
X67000001Y-77642334D01*
X67003678Y-77605001D01*
X67000001Y-77567668D01*
X67000001Y-74832321D01*
X67003677Y-74794998D01*
X67000001Y-74757675D01*
X67000001Y-74757666D01*
X66989004Y-74646013D01*
X66945547Y-74502752D01*
X66906226Y-74429188D01*
X66874975Y-74370722D01*
X66803800Y-74283996D01*
X66780002Y-74254998D01*
X66751005Y-74231201D01*
X65724999Y-73205196D01*
X65724999Y-63578823D01*
X65839960Y-63607250D01*
X66112492Y-63619812D01*
X66382238Y-63578965D01*
X66638832Y-63486277D01*
X66751863Y-63425860D01*
X66817388Y-63186993D01*
X66040000Y-62409605D01*
X66025858Y-62423748D01*
X65846253Y-62244143D01*
X65860395Y-62230000D01*
X66219605Y-62230000D01*
X66996993Y-63007388D01*
X67235860Y-62941863D01*
X67351760Y-62694884D01*
X67417250Y-62430040D01*
X67429812Y-62157508D01*
X67388965Y-61887762D01*
X67296277Y-61631168D01*
X67235860Y-61518137D01*
X66996993Y-61452612D01*
X66219605Y-62230000D01*
X65860395Y-62230000D01*
X65846253Y-62215858D01*
X66025858Y-62036253D01*
X66040000Y-62050395D01*
X66817388Y-61273007D01*
X66751863Y-61034140D01*
X66593523Y-60959836D01*
X66696043Y-60917371D01*
X66922886Y-60765799D01*
X67115799Y-60572886D01*
X67267371Y-60346043D01*
X67371775Y-60093989D01*
X67425000Y-59826411D01*
X67425000Y-59553589D01*
X67371775Y-59286011D01*
X67267371Y-59033957D01*
X67115799Y-58807114D01*
X66922886Y-58614201D01*
X66696043Y-58462629D01*
X66593127Y-58420000D01*
X66696043Y-58377371D01*
X66922886Y-58225799D01*
X67115799Y-58032886D01*
X67267371Y-57806043D01*
X67371775Y-57553989D01*
X67425000Y-57286411D01*
X67425000Y-57013589D01*
X67371775Y-56746011D01*
X67267371Y-56493957D01*
X67115799Y-56267114D01*
X66922886Y-56074201D01*
X66806517Y-55996445D01*
X66914482Y-55985812D01*
X67034180Y-55949502D01*
X67144494Y-55890537D01*
X67241185Y-55811185D01*
X67320537Y-55714494D01*
X67379502Y-55604180D01*
X67415812Y-55484482D01*
X67428072Y-55360000D01*
X67428072Y-53860000D01*
X67415812Y-53735518D01*
X67379502Y-53615820D01*
X67320537Y-53505506D01*
X67241185Y-53408815D01*
X67144494Y-53329463D01*
X67034180Y-53270498D01*
X66914482Y-53234188D01*
X66790000Y-53221928D01*
X65290000Y-53221928D01*
X65165518Y-53234188D01*
X65045820Y-53270498D01*
X64935506Y-53329463D01*
X64838815Y-53408815D01*
X64759463Y-53505506D01*
X64700498Y-53615820D01*
X64664188Y-53735518D01*
X64652913Y-53850000D01*
X55917333Y-53850000D01*
X55880000Y-53846323D01*
X55842667Y-53850000D01*
X55731014Y-53860997D01*
X55587753Y-53904454D01*
X55455724Y-53975026D01*
X55339999Y-54069999D01*
X55316201Y-54098997D01*
X48429402Y-60985797D01*
X48431943Y-60960000D01*
X48404236Y-60678691D01*
X48322182Y-60408192D01*
X48188932Y-60158899D01*
X48009608Y-59940392D01*
X47791101Y-59761068D01*
X47653318Y-59687421D01*
X47845131Y-59572385D01*
X48053519Y-59383414D01*
X48221037Y-59157420D01*
X48341246Y-58903087D01*
X48381904Y-58769039D01*
X48259915Y-58547000D01*
X47117000Y-58547000D01*
X47117000Y-58567000D01*
X46863000Y-58567000D01*
X46863000Y-58547000D01*
X45720085Y-58547000D01*
X45598096Y-58769039D01*
X45638754Y-58903087D01*
X45758963Y-59157420D01*
X45926481Y-59383414D01*
X46134869Y-59572385D01*
X46326682Y-59687421D01*
X46188899Y-59761068D01*
X45970392Y-59940392D01*
X45791068Y-60158899D01*
X45657818Y-60408192D01*
X45575764Y-60678691D01*
X45548057Y-60960000D01*
X45575764Y-61241309D01*
X45657818Y-61511808D01*
X45791068Y-61761101D01*
X45970392Y-61979608D01*
X46188899Y-62158932D01*
X46321858Y-62230000D01*
X46188899Y-62301068D01*
X45970392Y-62480392D01*
X45791068Y-62698899D01*
X45657818Y-62948192D01*
X45575764Y-63218691D01*
X45548057Y-63500000D01*
X45575764Y-63781309D01*
X45657818Y-64051808D01*
X45712975Y-64154999D01*
X33027025Y-64154999D01*
X33082182Y-64051808D01*
X33164236Y-63781309D01*
X33191943Y-63500000D01*
X33164236Y-63218691D01*
X33082182Y-62948192D01*
X32948932Y-62698899D01*
X32769608Y-62480392D01*
X32551101Y-62301068D01*
X32418142Y-62230000D01*
X32551101Y-62158932D01*
X32769608Y-61979608D01*
X32948932Y-61761101D01*
X33082182Y-61511808D01*
X33164236Y-61241309D01*
X33191943Y-60960000D01*
X33164236Y-60678691D01*
X33082182Y-60408192D01*
X32948932Y-60158899D01*
X32769608Y-59940392D01*
X32551101Y-59761068D01*
X32418142Y-59690000D01*
X32551101Y-59618932D01*
X32769608Y-59439608D01*
X32948932Y-59221101D01*
X33082182Y-58971808D01*
X33164236Y-58701309D01*
X33191943Y-58420000D01*
X33164236Y-58138691D01*
X33082182Y-57868192D01*
X32948932Y-57618899D01*
X32769608Y-57400392D01*
X32656518Y-57307581D01*
X32674482Y-57305812D01*
X32794180Y-57269502D01*
X32904494Y-57210537D01*
X33001185Y-57131185D01*
X33080537Y-57034494D01*
X33139502Y-56924180D01*
X33175812Y-56804482D01*
X33188072Y-56680000D01*
X33188072Y-55880000D01*
X45548057Y-55880000D01*
X45575764Y-56161309D01*
X45657818Y-56431808D01*
X45791068Y-56681101D01*
X45970392Y-56899608D01*
X46188899Y-57078932D01*
X46326682Y-57152579D01*
X46134869Y-57267615D01*
X45926481Y-57456586D01*
X45758963Y-57682580D01*
X45638754Y-57936913D01*
X45598096Y-58070961D01*
X45720085Y-58293000D01*
X46863000Y-58293000D01*
X46863000Y-58273000D01*
X47117000Y-58273000D01*
X47117000Y-58293000D01*
X48259915Y-58293000D01*
X48381904Y-58070961D01*
X48341246Y-57936913D01*
X48221037Y-57682580D01*
X48053519Y-57456586D01*
X47845131Y-57267615D01*
X47653318Y-57152579D01*
X47791101Y-57078932D01*
X48009608Y-56899608D01*
X48188932Y-56681101D01*
X48322182Y-56431808D01*
X48404236Y-56161309D01*
X48431943Y-55880000D01*
X48404236Y-55598691D01*
X48322182Y-55328192D01*
X48188932Y-55078899D01*
X48009608Y-54860392D01*
X47791101Y-54681068D01*
X47541808Y-54547818D01*
X47271309Y-54465764D01*
X47060492Y-54445000D01*
X46919508Y-54445000D01*
X46708691Y-54465764D01*
X46438192Y-54547818D01*
X46188899Y-54681068D01*
X45970392Y-54860392D01*
X45791068Y-55078899D01*
X45657818Y-55328192D01*
X45575764Y-55598691D01*
X45548057Y-55880000D01*
X33188072Y-55880000D01*
X33188072Y-55080000D01*
X33175812Y-54955518D01*
X33139502Y-54835820D01*
X33080537Y-54725506D01*
X33001185Y-54628815D01*
X32904494Y-54549463D01*
X32794180Y-54490498D01*
X32674482Y-54454188D01*
X32550000Y-54441928D01*
X30950000Y-54441928D01*
X30825518Y-54454188D01*
X30705820Y-54490498D01*
X30595506Y-54549463D01*
X30498815Y-54628815D01*
X30419463Y-54725506D01*
X30360498Y-54835820D01*
X30324188Y-54955518D01*
X30311928Y-55080000D01*
X30311928Y-56680000D01*
X30324188Y-56804482D01*
X30360498Y-56924180D01*
X30419463Y-57034494D01*
X30498815Y-57131185D01*
X30595506Y-57210537D01*
X30705820Y-57269502D01*
X30825518Y-57305812D01*
X30843482Y-57307581D01*
X30730392Y-57400392D01*
X30551068Y-57618899D01*
X30417818Y-57868192D01*
X30335764Y-58138691D01*
X30308057Y-58420000D01*
X30335764Y-58701309D01*
X30417818Y-58971808D01*
X30551068Y-59221101D01*
X30730392Y-59439608D01*
X30948899Y-59618932D01*
X31081858Y-59690000D01*
X30948899Y-59761068D01*
X30730392Y-59940392D01*
X30551068Y-60158899D01*
X30417818Y-60408192D01*
X30335764Y-60678691D01*
X30308057Y-60960000D01*
X30335764Y-61241309D01*
X30417818Y-61511808D01*
X30551068Y-61761101D01*
X30730392Y-61979608D01*
X30948899Y-62158932D01*
X31081858Y-62230000D01*
X30948899Y-62301068D01*
X30730392Y-62480392D01*
X30551068Y-62698899D01*
X30417818Y-62948192D01*
X30335764Y-63218691D01*
X30308057Y-63500000D01*
X30335764Y-63781309D01*
X30417818Y-64051808D01*
X30551068Y-64301101D01*
X30730392Y-64519608D01*
X30948899Y-64698932D01*
X31081858Y-64770000D01*
X30948899Y-64841068D01*
X30730392Y-65020392D01*
X30551068Y-65238899D01*
X30417818Y-65488192D01*
X30335764Y-65758691D01*
X30308057Y-66040000D01*
X30335764Y-66321309D01*
X30417818Y-66591808D01*
X30551068Y-66841101D01*
X30730392Y-67059608D01*
X30948899Y-67238932D01*
X31081858Y-67310000D01*
X30948899Y-67381068D01*
X30730392Y-67560392D01*
X30551068Y-67778899D01*
X30417818Y-68028192D01*
X30335764Y-68298691D01*
X30308057Y-68580000D01*
X30335764Y-68861309D01*
X30417818Y-69131808D01*
X30551068Y-69381101D01*
X30730392Y-69599608D01*
X30948899Y-69778932D01*
X31081858Y-69850000D01*
X30948899Y-69921068D01*
X30730392Y-70100392D01*
X30551068Y-70318899D01*
X30417818Y-70568192D01*
X30335764Y-70838691D01*
X30308057Y-71120000D01*
X30335764Y-71401309D01*
X30417818Y-71671808D01*
X30551068Y-71921101D01*
X30730392Y-72139608D01*
X30948899Y-72318932D01*
X31081858Y-72390000D01*
X30948899Y-72461068D01*
X30730392Y-72640392D01*
X30551068Y-72858899D01*
X30417818Y-73108192D01*
X30335764Y-73378691D01*
X30308057Y-73660000D01*
X30335764Y-73941309D01*
X30417818Y-74211808D01*
X30551068Y-74461101D01*
X30730392Y-74679608D01*
X30948899Y-74858932D01*
X31081858Y-74930000D01*
X30948899Y-75001068D01*
X30730392Y-75180392D01*
X30551068Y-75398899D01*
X30417818Y-75648192D01*
X30335764Y-75918691D01*
X30308057Y-76200000D01*
X30335764Y-76481309D01*
X30417818Y-76751808D01*
X30551068Y-77001101D01*
X30730392Y-77219608D01*
X30948899Y-77398932D01*
X31081858Y-77470000D01*
X30948899Y-77541068D01*
X30730392Y-77720392D01*
X30551068Y-77938899D01*
X30417818Y-78188192D01*
X30335764Y-78458691D01*
X30308057Y-78740000D01*
X30335764Y-79021309D01*
X30417818Y-79291808D01*
X30551068Y-79541101D01*
X30730392Y-79759608D01*
X30948899Y-79938932D01*
X31081858Y-80010000D01*
X30948899Y-80081068D01*
X30730392Y-80260392D01*
X30551068Y-80478899D01*
X30417818Y-80728192D01*
X30335764Y-80998691D01*
X30308057Y-81280000D01*
X30335764Y-81561309D01*
X30417818Y-81831808D01*
X30551068Y-82081101D01*
X30730392Y-82299608D01*
X30948899Y-82478932D01*
X31081858Y-82550000D01*
X30948899Y-82621068D01*
X30730392Y-82800392D01*
X30551068Y-83018899D01*
X30417818Y-83268192D01*
X30335764Y-83538691D01*
X30308057Y-83820000D01*
X30335764Y-84101309D01*
X30417818Y-84371808D01*
X30551068Y-84621101D01*
X30730392Y-84839608D01*
X30948899Y-85018932D01*
X31081858Y-85090000D01*
X30948899Y-85161068D01*
X30730392Y-85340392D01*
X30551068Y-85558899D01*
X30417818Y-85808192D01*
X30335764Y-86078691D01*
X30308057Y-86360000D01*
X30335764Y-86641309D01*
X30417818Y-86911808D01*
X30551068Y-87161101D01*
X30730392Y-87379608D01*
X30948899Y-87558932D01*
X31081858Y-87630000D01*
X30948899Y-87701068D01*
X30730392Y-87880392D01*
X30551068Y-88098899D01*
X30417818Y-88348192D01*
X30335764Y-88618691D01*
X30308057Y-88900000D01*
X30335764Y-89181309D01*
X30417818Y-89451808D01*
X30551068Y-89701101D01*
X30640330Y-89809867D01*
X30113997Y-90336200D01*
X30084999Y-90359998D01*
X30061201Y-90388996D01*
X30061200Y-90388997D01*
X29990025Y-90475723D01*
X29919453Y-90607753D01*
X29909671Y-90640002D01*
X29879558Y-90739276D01*
X29875997Y-90751014D01*
X29861323Y-90899999D01*
X24257000Y-90899999D01*
X24257000Y-47117000D01*
X74803000Y-47117000D01*
X74803000Y-104013000D01*
X74803000Y-104013000D01*
G37*
X74803000Y-104013000D02*
X24257000Y-104013000D01*
X24257000Y-90899999D01*
X29861323Y-90899999D01*
X29865000Y-90937331D01*
X29864999Y-91942678D01*
X29861323Y-91980001D01*
X29864999Y-92017323D01*
X29864999Y-92017333D01*
X29875996Y-92128986D01*
X29898653Y-92203676D01*
X29919453Y-92272247D01*
X29990025Y-92404277D01*
X30029870Y-92452827D01*
X30084998Y-92520002D01*
X30114001Y-92543804D01*
X30646199Y-93076003D01*
X30669998Y-93105002D01*
X30698996Y-93128800D01*
X30785722Y-93199975D01*
X30917752Y-93270547D01*
X31061013Y-93314004D01*
X31172666Y-93325001D01*
X31172676Y-93325001D01*
X31209999Y-93328677D01*
X31247322Y-93325001D01*
X59672677Y-93325001D01*
X59709999Y-93328677D01*
X59747321Y-93325001D01*
X59747332Y-93325001D01*
X59858985Y-93314004D01*
X60002246Y-93270547D01*
X60134275Y-93199975D01*
X60250000Y-93105002D01*
X60273803Y-93075998D01*
X63044249Y-90305552D01*
X63094463Y-90399494D01*
X63173815Y-90496185D01*
X63270506Y-90575537D01*
X63380820Y-90634502D01*
X63500518Y-90670812D01*
X63625000Y-90683072D01*
X63955000Y-90683072D01*
X64079482Y-90670812D01*
X64132500Y-90654729D01*
X64185518Y-90670812D01*
X64310000Y-90683072D01*
X65230000Y-90683072D01*
X65354482Y-90670812D01*
X65407305Y-90654788D01*
X65453733Y-90669424D01*
X65553250Y-90680000D01*
X65712000Y-90521250D01*
X65712000Y-90458637D01*
X65760537Y-90399494D01*
X65788000Y-90348115D01*
X65788000Y-90521250D01*
X65946750Y-90680000D01*
X66046267Y-90669424D01*
X66165564Y-90631817D01*
X66275231Y-90571659D01*
X66371056Y-90491261D01*
X66449354Y-90393714D01*
X66507117Y-90282767D01*
X66542126Y-90162682D01*
X66553034Y-90038074D01*
X66550000Y-89185750D01*
X66391250Y-89027000D01*
X65868072Y-89027000D01*
X65868072Y-88773000D01*
X66391250Y-88773000D01*
X66550000Y-88614250D01*
X66553034Y-87761926D01*
X66542126Y-87637318D01*
X66507117Y-87517233D01*
X66449354Y-87406286D01*
X66371056Y-87308739D01*
X66275231Y-87228341D01*
X66165564Y-87168183D01*
X66046267Y-87130576D01*
X65946750Y-87120000D01*
X65788000Y-87278750D01*
X65788000Y-87451885D01*
X65760537Y-87400506D01*
X65712000Y-87341363D01*
X65712000Y-87278750D01*
X65553250Y-87120000D01*
X65453733Y-87130576D01*
X65407305Y-87145212D01*
X65354482Y-87129188D01*
X65230000Y-87116928D01*
X64310000Y-87116928D01*
X64185518Y-87129188D01*
X64132500Y-87145271D01*
X64079482Y-87129188D01*
X63955000Y-87116928D01*
X63625000Y-87116928D01*
X63500518Y-87129188D01*
X63380820Y-87165498D01*
X63270506Y-87224463D01*
X63173815Y-87303815D01*
X63094463Y-87400506D01*
X63035498Y-87510820D01*
X62999188Y-87630518D01*
X62986928Y-87755000D01*
X62986928Y-88245674D01*
X62950723Y-88265026D01*
X62867083Y-88333668D01*
X62834999Y-88359999D01*
X62811201Y-88388997D01*
X59395198Y-91805001D01*
X48378849Y-91805001D01*
X48404236Y-91721309D01*
X48431943Y-91440000D01*
X48404236Y-91158691D01*
X48378849Y-91074999D01*
X53492681Y-91074999D01*
X53530003Y-91078675D01*
X53567325Y-91074999D01*
X53567336Y-91074999D01*
X53678989Y-91064002D01*
X53822250Y-91020545D01*
X53954279Y-90949973D01*
X54070004Y-90855000D01*
X54093807Y-90825996D01*
X66751004Y-78168800D01*
X66780002Y-78145002D01*
X66874975Y-78029277D01*
X66945547Y-77897248D01*
X66989004Y-77753987D01*
X67000001Y-77642334D01*
X67003678Y-77605001D01*
X67000001Y-77567668D01*
X67000001Y-74832321D01*
X67003677Y-74794998D01*
X67000001Y-74757675D01*
X67000001Y-74757666D01*
X66989004Y-74646013D01*
X66945547Y-74502752D01*
X66906226Y-74429188D01*
X66874975Y-74370722D01*
X66803800Y-74283996D01*
X66780002Y-74254998D01*
X66751005Y-74231201D01*
X65724999Y-73205196D01*
X65724999Y-63578823D01*
X65839960Y-63607250D01*
X66112492Y-63619812D01*
X66382238Y-63578965D01*
X66638832Y-63486277D01*
X66751863Y-63425860D01*
X66817388Y-63186993D01*
X66040000Y-62409605D01*
X66025858Y-62423748D01*
X65846253Y-62244143D01*
X65860395Y-62230000D01*
X66219605Y-62230000D01*
X66996993Y-63007388D01*
X67235860Y-62941863D01*
X67351760Y-62694884D01*
X67417250Y-62430040D01*
X67429812Y-62157508D01*
X67388965Y-61887762D01*
X67296277Y-61631168D01*
X67235860Y-61518137D01*
X66996993Y-61452612D01*
X66219605Y-62230000D01*
X65860395Y-62230000D01*
X65846253Y-62215858D01*
X66025858Y-62036253D01*
X66040000Y-62050395D01*
X66817388Y-61273007D01*
X66751863Y-61034140D01*
X66593523Y-60959836D01*
X66696043Y-60917371D01*
X66922886Y-60765799D01*
X67115799Y-60572886D01*
X67267371Y-60346043D01*
X67371775Y-60093989D01*
X67425000Y-59826411D01*
X67425000Y-59553589D01*
X67371775Y-59286011D01*
X67267371Y-59033957D01*
X67115799Y-58807114D01*
X66922886Y-58614201D01*
X66696043Y-58462629D01*
X66593127Y-58420000D01*
X66696043Y-58377371D01*
X66922886Y-58225799D01*
X67115799Y-58032886D01*
X67267371Y-57806043D01*
X67371775Y-57553989D01*
X67425000Y-57286411D01*
X67425000Y-57013589D01*
X67371775Y-56746011D01*
X67267371Y-56493957D01*
X67115799Y-56267114D01*
X66922886Y-56074201D01*
X66806517Y-55996445D01*
X66914482Y-55985812D01*
X67034180Y-55949502D01*
X67144494Y-55890537D01*
X67241185Y-55811185D01*
X67320537Y-55714494D01*
X67379502Y-55604180D01*
X67415812Y-55484482D01*
X67428072Y-55360000D01*
X67428072Y-53860000D01*
X67415812Y-53735518D01*
X67379502Y-53615820D01*
X67320537Y-53505506D01*
X67241185Y-53408815D01*
X67144494Y-53329463D01*
X67034180Y-53270498D01*
X66914482Y-53234188D01*
X66790000Y-53221928D01*
X65290000Y-53221928D01*
X65165518Y-53234188D01*
X65045820Y-53270498D01*
X64935506Y-53329463D01*
X64838815Y-53408815D01*
X64759463Y-53505506D01*
X64700498Y-53615820D01*
X64664188Y-53735518D01*
X64652913Y-53850000D01*
X55917333Y-53850000D01*
X55880000Y-53846323D01*
X55842667Y-53850000D01*
X55731014Y-53860997D01*
X55587753Y-53904454D01*
X55455724Y-53975026D01*
X55339999Y-54069999D01*
X55316201Y-54098997D01*
X48429402Y-60985797D01*
X48431943Y-60960000D01*
X48404236Y-60678691D01*
X48322182Y-60408192D01*
X48188932Y-60158899D01*
X48009608Y-59940392D01*
X47791101Y-59761068D01*
X47653318Y-59687421D01*
X47845131Y-59572385D01*
X48053519Y-59383414D01*
X48221037Y-59157420D01*
X48341246Y-58903087D01*
X48381904Y-58769039D01*
X48259915Y-58547000D01*
X47117000Y-58547000D01*
X47117000Y-58567000D01*
X46863000Y-58567000D01*
X46863000Y-58547000D01*
X45720085Y-58547000D01*
X45598096Y-58769039D01*
X45638754Y-58903087D01*
X45758963Y-59157420D01*
X45926481Y-59383414D01*
X46134869Y-59572385D01*
X46326682Y-59687421D01*
X46188899Y-59761068D01*
X45970392Y-59940392D01*
X45791068Y-60158899D01*
X45657818Y-60408192D01*
X45575764Y-60678691D01*
X45548057Y-60960000D01*
X45575764Y-61241309D01*
X45657818Y-61511808D01*
X45791068Y-61761101D01*
X45970392Y-61979608D01*
X46188899Y-62158932D01*
X46321858Y-62230000D01*
X46188899Y-62301068D01*
X45970392Y-62480392D01*
X45791068Y-62698899D01*
X45657818Y-62948192D01*
X45575764Y-63218691D01*
X45548057Y-63500000D01*
X45575764Y-63781309D01*
X45657818Y-64051808D01*
X45712975Y-64154999D01*
X33027025Y-64154999D01*
X33082182Y-64051808D01*
X33164236Y-63781309D01*
X33191943Y-63500000D01*
X33164236Y-63218691D01*
X33082182Y-62948192D01*
X32948932Y-62698899D01*
X32769608Y-62480392D01*
X32551101Y-62301068D01*
X32418142Y-62230000D01*
X32551101Y-62158932D01*
X32769608Y-61979608D01*
X32948932Y-61761101D01*
X33082182Y-61511808D01*
X33164236Y-61241309D01*
X33191943Y-60960000D01*
X33164236Y-60678691D01*
X33082182Y-60408192D01*
X32948932Y-60158899D01*
X32769608Y-59940392D01*
X32551101Y-59761068D01*
X32418142Y-59690000D01*
X32551101Y-59618932D01*
X32769608Y-59439608D01*
X32948932Y-59221101D01*
X33082182Y-58971808D01*
X33164236Y-58701309D01*
X33191943Y-58420000D01*
X33164236Y-58138691D01*
X33082182Y-57868192D01*
X32948932Y-57618899D01*
X32769608Y-57400392D01*
X32656518Y-57307581D01*
X32674482Y-57305812D01*
X32794180Y-57269502D01*
X32904494Y-57210537D01*
X33001185Y-57131185D01*
X33080537Y-57034494D01*
X33139502Y-56924180D01*
X33175812Y-56804482D01*
X33188072Y-56680000D01*
X33188072Y-55880000D01*
X45548057Y-55880000D01*
X45575764Y-56161309D01*
X45657818Y-56431808D01*
X45791068Y-56681101D01*
X45970392Y-56899608D01*
X46188899Y-57078932D01*
X46326682Y-57152579D01*
X46134869Y-57267615D01*
X45926481Y-57456586D01*
X45758963Y-57682580D01*
X45638754Y-57936913D01*
X45598096Y-58070961D01*
X45720085Y-58293000D01*
X46863000Y-58293000D01*
X46863000Y-58273000D01*
X47117000Y-58273000D01*
X47117000Y-58293000D01*
X48259915Y-58293000D01*
X48381904Y-58070961D01*
X48341246Y-57936913D01*
X48221037Y-57682580D01*
X48053519Y-57456586D01*
X47845131Y-57267615D01*
X47653318Y-57152579D01*
X47791101Y-57078932D01*
X48009608Y-56899608D01*
X48188932Y-56681101D01*
X48322182Y-56431808D01*
X48404236Y-56161309D01*
X48431943Y-55880000D01*
X48404236Y-55598691D01*
X48322182Y-55328192D01*
X48188932Y-55078899D01*
X48009608Y-54860392D01*
X47791101Y-54681068D01*
X47541808Y-54547818D01*
X47271309Y-54465764D01*
X47060492Y-54445000D01*
X46919508Y-54445000D01*
X46708691Y-54465764D01*
X46438192Y-54547818D01*
X46188899Y-54681068D01*
X45970392Y-54860392D01*
X45791068Y-55078899D01*
X45657818Y-55328192D01*
X45575764Y-55598691D01*
X45548057Y-55880000D01*
X33188072Y-55880000D01*
X33188072Y-55080000D01*
X33175812Y-54955518D01*
X33139502Y-54835820D01*
X33080537Y-54725506D01*
X33001185Y-54628815D01*
X32904494Y-54549463D01*
X32794180Y-54490498D01*
X32674482Y-54454188D01*
X32550000Y-54441928D01*
X30950000Y-54441928D01*
X30825518Y-54454188D01*
X30705820Y-54490498D01*
X30595506Y-54549463D01*
X30498815Y-54628815D01*
X30419463Y-54725506D01*
X30360498Y-54835820D01*
X30324188Y-54955518D01*
X30311928Y-55080000D01*
X30311928Y-56680000D01*
X30324188Y-56804482D01*
X30360498Y-56924180D01*
X30419463Y-57034494D01*
X30498815Y-57131185D01*
X30595506Y-57210537D01*
X30705820Y-57269502D01*
X30825518Y-57305812D01*
X30843482Y-57307581D01*
X30730392Y-57400392D01*
X30551068Y-57618899D01*
X30417818Y-57868192D01*
X30335764Y-58138691D01*
X30308057Y-58420000D01*
X30335764Y-58701309D01*
X30417818Y-58971808D01*
X30551068Y-59221101D01*
X30730392Y-59439608D01*
X30948899Y-59618932D01*
X31081858Y-59690000D01*
X30948899Y-59761068D01*
X30730392Y-59940392D01*
X30551068Y-60158899D01*
X30417818Y-60408192D01*
X30335764Y-60678691D01*
X30308057Y-60960000D01*
X30335764Y-61241309D01*
X30417818Y-61511808D01*
X30551068Y-61761101D01*
X30730392Y-61979608D01*
X30948899Y-62158932D01*
X31081858Y-62230000D01*
X30948899Y-62301068D01*
X30730392Y-62480392D01*
X30551068Y-62698899D01*
X30417818Y-62948192D01*
X30335764Y-63218691D01*
X30308057Y-63500000D01*
X30335764Y-63781309D01*
X30417818Y-64051808D01*
X30551068Y-64301101D01*
X30730392Y-64519608D01*
X30948899Y-64698932D01*
X31081858Y-64770000D01*
X30948899Y-64841068D01*
X30730392Y-65020392D01*
X30551068Y-65238899D01*
X30417818Y-65488192D01*
X30335764Y-65758691D01*
X30308057Y-66040000D01*
X30335764Y-66321309D01*
X30417818Y-66591808D01*
X30551068Y-66841101D01*
X30730392Y-67059608D01*
X30948899Y-67238932D01*
X31081858Y-67310000D01*
X30948899Y-67381068D01*
X30730392Y-67560392D01*
X30551068Y-67778899D01*
X30417818Y-68028192D01*
X30335764Y-68298691D01*
X30308057Y-68580000D01*
X30335764Y-68861309D01*
X30417818Y-69131808D01*
X30551068Y-69381101D01*
X30730392Y-69599608D01*
X30948899Y-69778932D01*
X31081858Y-69850000D01*
X30948899Y-69921068D01*
X30730392Y-70100392D01*
X30551068Y-70318899D01*
X30417818Y-70568192D01*
X30335764Y-70838691D01*
X30308057Y-71120000D01*
X30335764Y-71401309D01*
X30417818Y-71671808D01*
X30551068Y-71921101D01*
X30730392Y-72139608D01*
X30948899Y-72318932D01*
X31081858Y-72390000D01*
X30948899Y-72461068D01*
X30730392Y-72640392D01*
X30551068Y-72858899D01*
X30417818Y-73108192D01*
X30335764Y-73378691D01*
X30308057Y-73660000D01*
X30335764Y-73941309D01*
X30417818Y-74211808D01*
X30551068Y-74461101D01*
X30730392Y-74679608D01*
X30948899Y-74858932D01*
X31081858Y-74930000D01*
X30948899Y-75001068D01*
X30730392Y-75180392D01*
X30551068Y-75398899D01*
X30417818Y-75648192D01*
X30335764Y-75918691D01*
X30308057Y-76200000D01*
X30335764Y-76481309D01*
X30417818Y-76751808D01*
X30551068Y-77001101D01*
X30730392Y-77219608D01*
X30948899Y-77398932D01*
X31081858Y-77470000D01*
X30948899Y-77541068D01*
X30730392Y-77720392D01*
X30551068Y-77938899D01*
X30417818Y-78188192D01*
X30335764Y-78458691D01*
X30308057Y-78740000D01*
X30335764Y-79021309D01*
X30417818Y-79291808D01*
X30551068Y-79541101D01*
X30730392Y-79759608D01*
X30948899Y-79938932D01*
X31081858Y-80010000D01*
X30948899Y-80081068D01*
X30730392Y-80260392D01*
X30551068Y-80478899D01*
X30417818Y-80728192D01*
X30335764Y-80998691D01*
X30308057Y-81280000D01*
X30335764Y-81561309D01*
X30417818Y-81831808D01*
X30551068Y-82081101D01*
X30730392Y-82299608D01*
X30948899Y-82478932D01*
X31081858Y-82550000D01*
X30948899Y-82621068D01*
X30730392Y-82800392D01*
X30551068Y-83018899D01*
X30417818Y-83268192D01*
X30335764Y-83538691D01*
X30308057Y-83820000D01*
X30335764Y-84101309D01*
X30417818Y-84371808D01*
X30551068Y-84621101D01*
X30730392Y-84839608D01*
X30948899Y-85018932D01*
X31081858Y-85090000D01*
X30948899Y-85161068D01*
X30730392Y-85340392D01*
X30551068Y-85558899D01*
X30417818Y-85808192D01*
X30335764Y-86078691D01*
X30308057Y-86360000D01*
X30335764Y-86641309D01*
X30417818Y-86911808D01*
X30551068Y-87161101D01*
X30730392Y-87379608D01*
X30948899Y-87558932D01*
X31081858Y-87630000D01*
X30948899Y-87701068D01*
X30730392Y-87880392D01*
X30551068Y-88098899D01*
X30417818Y-88348192D01*
X30335764Y-88618691D01*
X30308057Y-88900000D01*
X30335764Y-89181309D01*
X30417818Y-89451808D01*
X30551068Y-89701101D01*
X30640330Y-89809867D01*
X30113997Y-90336200D01*
X30084999Y-90359998D01*
X30061201Y-90388996D01*
X30061200Y-90388997D01*
X29990025Y-90475723D01*
X29919453Y-90607753D01*
X29909671Y-90640002D01*
X29879558Y-90739276D01*
X29875997Y-90751014D01*
X29861323Y-90899999D01*
X24257000Y-90899999D01*
X24257000Y-47117000D01*
X74803000Y-47117000D01*
X74803000Y-104013000D01*
G36*
X64664188Y-55484482D02*
G01*
X64700498Y-55604180D01*
X64759463Y-55714494D01*
X64838815Y-55811185D01*
X64935506Y-55890537D01*
X65045820Y-55949502D01*
X65165518Y-55985812D01*
X65273483Y-55996445D01*
X65157114Y-56074201D01*
X64964201Y-56267114D01*
X64812629Y-56493957D01*
X64708225Y-56746011D01*
X64655000Y-57013589D01*
X64655000Y-57286411D01*
X64683833Y-57431365D01*
X64454001Y-57661197D01*
X64424998Y-57685000D01*
X64369870Y-57752175D01*
X64330025Y-57800725D01*
X64293963Y-57868192D01*
X64259453Y-57932755D01*
X64215996Y-58076016D01*
X64204999Y-58187669D01*
X64204999Y-58187679D01*
X64201323Y-58225001D01*
X64204999Y-58262323D01*
X64205000Y-73482664D01*
X64201323Y-73519997D01*
X64215997Y-73668982D01*
X64259453Y-73812243D01*
X64330025Y-73944273D01*
X64401200Y-74030999D01*
X64424999Y-74059998D01*
X64453997Y-74083796D01*
X64787129Y-74416928D01*
X64310000Y-74416928D01*
X64185518Y-74429188D01*
X64132500Y-74445271D01*
X64079482Y-74429188D01*
X64073390Y-74428588D01*
X54048803Y-64404002D01*
X54025000Y-64374998D01*
X53909275Y-64280025D01*
X53777246Y-64209453D01*
X53633985Y-64165996D01*
X53522332Y-64154999D01*
X53522321Y-64154999D01*
X53484999Y-64151323D01*
X53447677Y-64154999D01*
X48267025Y-64154999D01*
X48322182Y-64051808D01*
X48404236Y-63781309D01*
X48431943Y-63500000D01*
X48404236Y-63218691D01*
X48390708Y-63174093D01*
X56194802Y-55370000D01*
X64652913Y-55370000D01*
X64664188Y-55484482D01*
X64664188Y-55484482D01*
G37*
X64664188Y-55484482D02*
X64700498Y-55604180D01*
X64759463Y-55714494D01*
X64838815Y-55811185D01*
X64935506Y-55890537D01*
X65045820Y-55949502D01*
X65165518Y-55985812D01*
X65273483Y-55996445D01*
X65157114Y-56074201D01*
X64964201Y-56267114D01*
X64812629Y-56493957D01*
X64708225Y-56746011D01*
X64655000Y-57013589D01*
X64655000Y-57286411D01*
X64683833Y-57431365D01*
X64454001Y-57661197D01*
X64424998Y-57685000D01*
X64369870Y-57752175D01*
X64330025Y-57800725D01*
X64293963Y-57868192D01*
X64259453Y-57932755D01*
X64215996Y-58076016D01*
X64204999Y-58187669D01*
X64204999Y-58187679D01*
X64201323Y-58225001D01*
X64204999Y-58262323D01*
X64205000Y-73482664D01*
X64201323Y-73519997D01*
X64215997Y-73668982D01*
X64259453Y-73812243D01*
X64330025Y-73944273D01*
X64401200Y-74030999D01*
X64424999Y-74059998D01*
X64453997Y-74083796D01*
X64787129Y-74416928D01*
X64310000Y-74416928D01*
X64185518Y-74429188D01*
X64132500Y-74445271D01*
X64079482Y-74429188D01*
X64073390Y-74428588D01*
X54048803Y-64404002D01*
X54025000Y-64374998D01*
X53909275Y-64280025D01*
X53777246Y-64209453D01*
X53633985Y-64165996D01*
X53522332Y-64154999D01*
X53522321Y-64154999D01*
X53484999Y-64151323D01*
X53447677Y-64154999D01*
X48267025Y-64154999D01*
X48322182Y-64051808D01*
X48404236Y-63781309D01*
X48431943Y-63500000D01*
X48404236Y-63218691D01*
X48390708Y-63174093D01*
X56194802Y-55370000D01*
X64652913Y-55370000D01*
X64664188Y-55484482D01*
M02*
